<?xml version="1.0" standalone="no"?>
<!DOCTYPE svg PUBLIC "-//W3C//DTD SVG 20010904//EN"
 "http://www.w3.org/TR/2001/REC-SVG-20010904/DTD/svg10.dtd">
<svg version="1.0" xmlns="http://www.w3.org/2000/svg"
 width="842.000000pt" height="802.000000pt" viewBox="0 0 842.000000 802.000000"
 preserveAspectRatio="xMidYMid meet">

<g transform="translate(0.000000,802.000000) scale(0.100000,-0.100000)"
fill="#000000" stroke="none">
<path d="M460 7790 c0 -56 3 -70 15 -70 12 0 15 14 15 70 0 56 -3 70 -15 70
-12 0 -15 -14 -15 -70z"/>
<path d="M350 7785 l0 -65 29 0 c16 0 36 3 45 6 18 7 22 49 6 59 -6 4 -5 13 3
26 15 25 -3 39 -50 39 l-33 0 0 -65z m58 33 c-7 -19 -38 -22 -38 -4 0 10 9 16
21 16 12 0 19 -5 17 -12z m2 -58 c0 -13 -7 -20 -20 -20 -13 0 -20 7 -20 20 0
13 7 20 20 20 13 0 20 -7 20 -20z"/>
<path d="M800 7785 c0 -51 3 -65 15 -65 9 0 15 9 15 24 0 18 7 25 29 29 33 7
49 40 31 62 -7 9 -30 15 -51 15 l-39 0 0 -65z m65 25 c0 -8 -8 -16 -17 -18
-13 -2 -18 3 -18 18 0 15 5 20 18 18 9 -2 17 -10 17 -18z"/>
<path d="M1118 7836 c-18 -17 -15 -79 5 -103 11 -15 37 -17 37 -3 0 6 -4 10
-10 10 -15 0 -12 57 3 63 8 4 9 8 1 14 -6 4 -13 14 -15 22 -4 11 -8 11 -21 -3z"/>
<path d="M7260 7715 l0 -125 335 0 335 0 0 125 0 125 -335 0 -335 0 0 -125z
m198 39 c26 -18 30 -65 6 -88 -23 -24 -70 -20 -88 6 -21 30 -20 47 6 75 25 27
45 29 76 7z m132 -11 c-40 -15 -48 -53 -11 -53 24 1 56 27 39 33 -7 2 8 5 35
5 45 1 47 0 46 -26 l-1 -27 -8 25 -8 25 -7 -23 c-7 -21 -12 -23 -69 -20 -56 3
-61 5 -64 27 -4 26 12 41 43 40 14 0 16 -2 5 -6z m240 -28 c0 -19 -4 -35 -10
-35 -5 0 -10 5 -10 10 0 6 -10 10 -22 9 -22 0 -22 -1 -3 -9 15 -7 9 -9 -25 -7
-38 2 -45 5 -45 22 0 16 8 21 39 23 24 2 42 -2 47 -10 6 -9 9 -6 9 10 0 12 5
22 10 22 6 0 10 -16 10 -35z"/>
<path d="M7392 7738 c-19 -19 -14 -56 8 -68 38 -21 80 22 60 61 -12 21 -50 25
-68 7z m44 -44 c-13 -12 -18 -13 -30 -2 -12 11 -12 15 1 30 13 15 17 15 30 3
13 -13 12 -17 -1 -31z"/>
<path d="M7730 7705 c0 -8 6 -15 13 -15 8 0 14 7 14 15 0 8 -6 15 -14 15 -7 0
-13 -7 -13 -15z"/>
<path d="M526 7804 c-9 -8 -16 -24 -16 -34 0 -40 60 -66 88 -38 15 15 15 61 0
76 -17 17 -54 15 -72 -4z m54 -34 c0 -32 -26 -43 -36 -15 -9 21 3 45 21 45 10
0 15 -10 15 -30z"/>
<path d="M642 7808 c-7 -7 -12 -27 -12 -44 0 -36 22 -50 56 -37 17 6 18 5 5
-11 -9 -11 -24 -16 -38 -13 -15 3 -22 0 -20 -7 5 -16 42 -19 66 -6 18 9 21 20
21 69 l0 58 -33 1 c-19 1 -39 -4 -45 -10z m52 -23 c7 -20 -3 -45 -19 -45 -16
0 -26 25 -19 45 4 8 12 15 19 15 7 0 15 -7 19 -15z"/>
<path d="M915 7800 c-24 -27 -13 -68 22 -76 34 -9 57 6 61 40 6 53 -47 76 -83
36z m59 -15 c8 -21 -3 -45 -20 -45 -18 0 -28 24 -20 45 3 8 12 15 20 15 7 0
16 -7 20 -15z"/>
<path d="M1027 7813 c-14 -14 -6 -45 13 -50 11 -3 20 -9 20 -14 0 -5 -9 -9
-20 -9 -11 0 -20 -4 -20 -10 0 -14 43 -13 58 2 18 18 15 36 -8 43 -23 7 -27
25 -5 25 8 0 15 5 15 10 0 11 -43 14 -53 3z"/>
<path d="M1179 7804 c-12 -14 -9 -20 16 -41 l30 -25 -27 5 c-20 3 -28 0 -28
-10 0 -10 10 -13 33 -11 25 2 33 8 35 26 3 17 -2 25 -17 29 -12 3 -21 10 -21
15 0 6 9 8 20 5 13 -3 20 0 20 9 0 19 -44 18 -61 -2z"/>
<path d="M958 7603 c7 -3 16 -2 19 1 4 3 -2 6 -13 5 -11 0 -14 -3 -6 -6z"/>
<path d="M618 7583 c7 -3 16 -2 19 1 4 3 -2 6 -13 5 -11 0 -14 -3 -6 -6z"/>
<path d="M1248 7583 c7 -3 16 -2 19 1 4 3 -2 6 -13 5 -11 0 -14 -3 -6 -6z"/>
<path d="M1077 7569 c7 -7 15 -10 18 -7 3 3 -2 9 -12 12 -14 6 -15 5 -6 -5z"/>
<path d="M1117 7569 c7 -7 15 -10 18 -7 3 3 -2 9 -12 12 -14 6 -15 5 -6 -5z"/>
<path d="M518 7563 c7 -3 16 -2 19 1 4 3 -2 6 -13 5 -11 0 -14 -3 -6 -6z"/>
<path d="M3398 6999 c-22 -12 -24 -71 -4 -89 17 -13 58 -10 63 5 2 6 -9 11
-24 10 -24 0 -28 4 -28 30 0 26 4 30 28 30 15 -1 27 5 27 12 0 15 -38 17 -62
2z"/>
<path d="M3880 6955 c0 -30 5 -55 10 -55 6 0 10 17 10 37 l0 38 25 -38 c14
-20 30 -37 35 -37 6 0 10 25 10 55 0 62 -17 75 -22 18 l-3 -38 -22 38 c-12 20
-27 37 -33 37 -6 0 -10 -24 -10 -55z"/>
<path d="M4240 6954 l0 -55 33 3 c26 2 33 8 35 30 3 22 -2 29 -22 34 -14 3
-26 10 -26 15 0 14 28 11 33 -3 2 -7 8 -10 12 -6 16 15 -5 38 -35 38 -30 0
-30 0 -30 -56z m50 -19 c0 -8 -7 -15 -15 -15 -8 0 -15 7 -15 15 0 8 7 15 15
15 8 0 15 -7 15 -15z"/>
<path d="M4330 6955 c0 -30 5 -55 10 -55 6 0 10 25 10 55 0 30 -4 55 -10 55
-5 0 -10 -25 -10 -55z"/>
<path d="M4600 6955 c0 -30 5 -55 10 -55 6 0 10 9 10 19 0 12 8 21 21 23 55 8
44 68 -12 68 -28 0 -29 -1 -29 -55z m53 20 c1 -5 -6 -11 -15 -13 -11 -2 -18 3
-18 13 0 17 30 18 33 0z"/>
<path d="M3697 6987 c-9 -25 8 -82 26 -85 9 -2 17 1 17 7 0 6 -4 11 -10 11
-14 0 -12 38 2 42 9 3 8 9 -4 21 -20 20 -24 21 -31 4z"/>
<path d="M4847 6987 c-9 -25 8 -82 26 -85 9 -2 17 1 17 7 0 6 -4 11 -10 11
-14 0 -12 38 2 42 9 3 8 9 -4 21 -20 20 -24 21 -31 4z"/>
<path d="M3480 6939 c0 -21 5 -39 10 -39 6 0 10 14 10 30 0 17 5 30 10 30 19
0 10 16 -10 17 -17 2 -20 -4 -20 -38z"/>
<path d="M3542 6968 c-17 -17 -15 -55 4 -62 24 -9 44 -7 44 4 0 6 -9 10 -20
10 -11 0 -20 5 -20 10 0 6 11 10 25 10 14 0 25 4 25 8 0 12 -22 32 -35 32 -6
0 -16 -5 -23 -12z m35 -14 c-3 -3 -12 -4 -19 -1 -8 3 -5 6 6 6 11 1 17 -2 13
-5z"/>
<path d="M3620 6970 c0 -5 10 -10 23 -11 21 -1 21 -1 -3 -8 -39 -11 -34 -45 8
-47 28 -1 32 1 32 25 0 15 -5 32 -12 39 -15 15 -48 16 -48 2z m35 -40 c-3 -5
-11 -10 -16 -10 -6 0 -7 5 -4 10 3 6 11 10 16 10 6 0 7 -4 4 -10z"/>
<path d="M3762 6968 c-17 -17 -15 -55 4 -62 24 -9 44 -7 44 4 0 6 -9 10 -20
10 -11 0 -20 5 -20 10 0 6 11 10 25 10 14 0 25 4 25 8 0 12 -22 32 -35 32 -6
0 -16 -5 -23 -12z m35 -14 c-3 -3 -12 -4 -19 -1 -8 3 -5 6 6 6 11 1 17 -2 13
-5z"/>
<path d="M4002 6968 c-25 -25 -7 -68 30 -68 25 0 22 16 -4 25 -22 7 -22 8 5
12 20 3 27 9 25 21 -4 21 -39 27 -56 10z m35 -14 c-3 -3 -12 -4 -19 -1 -8 3
-5 6 6 6 11 1 17 -2 13 -5z"/>
<path d="M4075 6948 c12 -55 28 -65 41 -26 l7 23 8 -23 c11 -28 26 -28 34 1 4
12 9 30 11 40 3 9 1 17 -5 17 -6 0 -11 -9 -11 -20 0 -11 -4 -20 -10 -20 -5 0
-10 9 -10 21 0 27 -24 19 -28 -9 -4 -27 -22 -19 -22 9 0 10 -5 19 -11 19 -7 0
-8 -12 -4 -32z"/>
<path d="M4380 6965 c-26 -32 13 -81 48 -59 34 22 22 74 -18 74 -10 0 -23 -7
-30 -15z m46 -16 c10 -17 -13 -36 -27 -22 -12 12 -4 33 11 33 5 0 12 -5 16
-11z"/>
<path d="M4468 6955 c-13 -30 6 -59 34 -52 10 3 16 1 12 -4 -3 -5 -14 -9 -25
-9 -10 0 -19 -4 -19 -10 0 -5 11 -10 25 -10 29 0 45 26 45 73 0 31 -3 34 -31
35 -23 0 -33 -5 -41 -23z m48 -6 c10 -17 -13 -36 -27 -22 -12 12 -4 33 11 33
5 0 12 -5 16 -11z"/>
<path d="M4690 6961 c-25 -47 36 -83 64 -38 8 12 8 22 0 35 -16 25 -51 27 -64
3z m50 -21 c0 -21 -24 -28 -35 -10 -8 14 3 30 21 30 8 0 14 -9 14 -20z"/>
<path d="M4783 6964 c-4 -11 1 -22 12 -30 17 -13 17 -14 2 -14 -9 0 -17 -4
-17 -10 0 -5 9 -10 20 -10 29 0 38 30 15 46 -17 13 -17 14 -2 14 9 0 17 5 17
10 0 17 -40 11 -47 -6z"/>
<path d="M647 6572 c6 -4 13 -21 16 -37 l4 -30 2 32 c0 17 7 34 14 36 6 3 -1
6 -18 6 -16 0 -25 -3 -18 -7z"/>
<path d="M753 6545 c0 -22 2 -30 4 -17 2 12 2 30 0 40 -3 9 -5 -1 -4 -23z"/>
<path d="M718 6565 c-7 -7 3 -55 11 -55 8 0 7 47 -1 55 -2 3 -7 3 -10 0z"/>
<path d="M774 6546 c-7 -18 3 -36 19 -36 7 0 6 4 -3 10 -13 8 -12 10 3 10 10
0 17 5 15 12 -7 19 -27 21 -34 4z"/>
<path d="M1394 6346 c-3 -8 -4 -27 -2 -43 3 -24 7 -28 33 -28 28 0 30 3 31 35
0 19 -5 38 -10 42 -18 13 -46 9 -52 -6z m46 -11 c0 -8 -7 -15 -15 -15 -8 0
-15 7 -15 15 0 8 7 15 15 15 8 0 15 -7 15 -15z m3 -40 c1 -5 -6 -11 -15 -13
-11 -2 -18 3 -18 13 0 17 30 18 33 0z"/>
<path d="M1644 6352 c3 -4 1 -25 -4 -45 -4 -21 -4 -37 1 -37 5 0 9 12 9 26 0
14 5 34 10 45 9 15 7 19 -5 19 -9 0 -14 -4 -11 -8z"/>
<path d="M1993 6353 c15 -2 37 -2 50 0 12 2 0 4 -28 4 -27 0 -38 -2 -22 -4z"/>
<path d="M2213 6353 c15 -2 37 -2 50 0 12 2 0 4 -28 4 -27 0 -38 -2 -22 -4z"/>
<path d="M2433 6353 c15 -2 37 -2 50 0 12 2 0 4 -28 4 -27 0 -38 -2 -22 -4z"/>
<path d="M2780 6349 c0 -5 5 -7 10 -4 6 3 10 8 10 11 0 2 -4 4 -10 4 -5 0 -10
-5 -10 -11z"/>
<path d="M2833 6353 c9 -2 23 -2 30 0 6 3 -1 5 -18 5 -16 0 -22 -2 -12 -5z"/>
<path d="M3143 6353 c9 -2 23 -2 30 0 6 3 -1 5 -18 5 -16 0 -22 -2 -12 -5z"/>
<path d="M1983 6323 c9 -2 23 -2 30 0 6 3 -1 5 -18 5 -16 0 -22 -2 -12 -5z"/>
<path d="M2223 6323 c9 -2 23 -2 30 0 6 3 -1 5 -18 5 -16 0 -22 -2 -12 -5z"/>
<path d="M2463 6323 c9 -2 23 -2 30 0 6 3 -1 5 -18 5 -16 0 -22 -2 -12 -5z"/>
<path d="M2833 6313 c9 -2 23 -2 30 0 6 3 -1 5 -18 5 -16 0 -22 -2 -12 -5z"/>
<path d="M3143 6313 c9 -2 25 -2 35 0 9 3 1 5 -18 5 -19 0 -27 -2 -17 -5z"/>
<path d="M1993 6303 c15 -2 37 -2 50 0 12 2 0 4 -28 4 -27 0 -38 -2 -22 -4z"/>
<path d="M2213 6303 c15 -2 37 -2 50 0 12 2 0 4 -28 4 -27 0 -38 -2 -22 -4z"/>
<path d="M2433 6303 c15 -2 37 -2 50 0 12 2 0 4 -28 4 -27 0 -38 -2 -22 -4z"/>
<path d="M1983 6273 c9 -2 23 -2 30 0 6 3 -1 5 -18 5 -16 0 -22 -2 -12 -5z"/>
<path d="M2223 6273 c9 -2 23 -2 30 0 6 3 -1 5 -18 5 -16 0 -22 -2 -12 -5z"/>
<path d="M2463 6273 c9 -2 23 -2 30 0 6 3 -1 5 -18 5 -16 0 -22 -2 -12 -5z"/>
<path d="M2833 6273 c9 -2 23 -2 30 0 6 3 -1 5 -18 5 -16 0 -22 -2 -12 -5z"/>
<path d="M3143 6273 c9 -2 25 -2 35 0 9 3 1 5 -18 5 -19 0 -27 -2 -17 -5z"/>
<path d="M7084 5636 c-9 -23 0 -51 16 -52 9 0 10 1 3 3 -16 6 -17 35 -1 51 9
9 9 12 0 12 -7 0 -15 -6 -18 -14z"/>
<path d="M7141 5638 c0 -9 -4 -25 -7 -35 -5 -14 -4 -15 5 -7 7 7 11 22 8 35
-2 13 -5 16 -6 7z"/>
<path d="M7413 5635 c-3 -9 -3 -19 1 -22 3 -4 6 1 6 10 0 8 8 18 18 20 16 4
16 5 -1 6 -10 0 -20 -6 -24 -14z"/>
<path d="M7478 5643 c7 -3 16 -2 19 1 4 3 -2 6 -13 5 -11 0 -14 -3 -6 -6z"/>
<path d="M715 5630 c-3 -6 1 -7 9 -4 18 7 21 14 7 14 -6 0 -13 -4 -16 -10z"/>
<path d="M7005 5630 c-3 -6 1 -7 9 -4 18 7 21 14 7 14 -6 0 -13 -4 -16 -10z"/>
<path d="M7342 5615 c0 -16 2 -22 5 -12 2 9 2 23 0 30 -3 6 -5 -1 -5 -18z"/>
<path d="M7272 5610 c0 -14 2 -19 5 -12 2 6 2 18 0 25 -3 6 -5 1 -5 -13z"/>
<path d="M7301 5594 c0 -11 3 -14 6 -6 3 7 2 16 -1 19 -3 4 -6 -2 -5 -13z"/>
<path d="M6678 5593 c7 -3 16 -2 19 1 4 3 -2 6 -13 5 -11 0 -14 -3 -6 -6z"/>
<path d="M7478 5593 c7 -3 16 -2 19 1 4 3 -2 6 -13 5 -11 0 -14 -3 -6 -6z"/>
<path d="M656 5361 c-4 -5 3 -7 14 -4 23 6 26 13 6 13 -8 0 -17 -4 -20 -9z"/>
<path d="M808 5355 c-7 -7 3 -55 11 -55 8 0 7 47 -1 55 -2 3 -7 3 -10 0z"/>
<path d="M938 5355 c-7 -7 3 -55 11 -55 8 0 7 47 -1 55 -2 3 -7 3 -10 0z"/>
<path d="M703 5334 c-8 -22 13 -42 30 -25 10 10 9 11 -5 6 -13 -5 -18 -2 -18
10 0 11 5 15 16 11 8 -3 12 -2 9 4 -9 15 -25 12 -32 -6z"/>
<path d="M760 5340 c0 -5 7 -7 15 -4 8 4 15 8 15 10 0 2 -7 4 -15 4 -8 0 -15
-4 -15 -10z"/>
<path d="M882 5325 c0 -16 2 -22 5 -12 2 9 2 23 0 30 -3 6 -5 -1 -5 -18z"/>
<path d="M908 5325 c2 -14 6 -25 8 -25 2 0 4 11 4 25 0 14 -4 25 -9 25 -4 0
-6 -11 -3 -25z"/>
<path d="M848 5323 c7 -3 16 -2 19 1 4 3 -2 6 -13 5 -11 0 -14 -3 -6 -6z"/>
<path d="M658 5308 c5 -5 16 -8 23 -6 8 3 3 7 -10 11 -17 4 -21 3 -13 -5z"/>
<path d="M848 5303 c7 -3 16 -2 19 1 4 3 -2 6 -13 5 -11 0 -14 -3 -6 -6z"/>
<path d="M1028 5143 c7 -3 16 -2 19 1 4 3 -2 6 -13 5 -11 0 -14 -3 -6 -6z"/>
<path d="M1898 5143 c7 -3 16 -2 19 1 4 3 -2 6 -13 5 -11 0 -14 -3 -6 -6z"/>
<path d="M2268 5143 c6 -2 18 -2 25 0 6 3 1 5 -13 5 -14 0 -19 -2 -12 -5z"/>
<path d="M2578 5143 c6 -2 18 -2 25 0 6 3 1 5 -13 5 -14 0 -19 -2 -12 -5z"/>
<path d="M2650 5118 c0 -37 20 -53 35 -28 3 6 -1 7 -9 4 -11 -4 -16 0 -16 10
0 9 8 16 18 17 13 0 14 2 2 6 -8 3 -18 11 -22 17 -4 6 -8 -6 -8 -26z"/>
<path d="M2703 5115 c0 -22 2 -30 4 -17 2 12 2 30 0 40 -3 9 -5 -1 -4 -23z"/>
<path d="M2983 5115 c0 -22 2 -30 4 -17 2 12 2 30 0 40 -3 9 -5 -1 -4 -23z"/>
<path d="M1138 5135 c-7 -7 3 -55 11 -55 8 0 7 47 -1 55 -2 3 -7 3 -10 0z"/>
<path d="M878 5123 c7 -3 16 -2 19 1 4 3 -2 6 -13 5 -11 0 -14 -3 -6 -6z"/>
<path d="M1078 5123 c7 -3 16 -2 19 1 4 3 -2 6 -13 5 -11 0 -14 -3 -6 -6z"/>
<path d="M1358 5123 c7 -3 16 -2 19 1 4 3 -2 6 -13 5 -11 0 -14 -3 -6 -6z"/>
<path d="M1595 5120 c-3 -6 1 -7 9 -4 18 7 21 14 7 14 -6 0 -13 -4 -16 -10z"/>
<path d="M1690 5121 c13 -9 12 -11 -3 -11 -21 0 -18 -22 4 -28 11 -3 11 -2 -1
7 -13 9 -12 11 3 11 21 0 18 22 -4 28 -11 3 -11 2 1 -7z"/>
<path d="M1721 5103 c1 -23 2 -24 6 -6 2 13 13 24 26 26 18 4 17 5 -5 6 -24 1
-28 -3 -27 -26z"/>
<path d="M1930 5126 c0 -2 9 -6 20 -9 11 -3 18 -1 14 4 -5 9 -34 13 -34 5z"/>
<path d="M1980 5105 c0 -14 2 -25 4 -25 2 0 6 11 8 25 3 14 1 25 -3 25 -5 0
-9 -11 -9 -25z"/>
<path d="M2011 5102 c2 -24 2 -24 6 -4 2 12 9 22 14 22 5 0 10 -10 10 -22 1
-21 2 -21 6 -3 3 11 10 23 15 26 5 3 -5 6 -21 7 -27 1 -31 -2 -30 -26z"/>
<path d="M2098 5122 c11 -7 11 -10 -3 -16 -19 -7 -11 -26 11 -26 20 0 15 42
-6 47 -12 4 -12 3 -2 -5z"/>
<path d="M2304 5115 c-7 -17 3 -35 19 -34 9 0 9 2 0 6 -19 7 -16 31 5 36 16 4
16 5 -1 6 -10 0 -20 -6 -23 -14z"/>
<path d="M2368 5123 c7 -3 16 -2 19 1 4 3 -2 6 -13 5 -11 0 -14 -3 -6 -6z"/>
<path d="M2618 5122 c11 -7 11 -10 -3 -16 -19 -7 -11 -26 11 -26 20 0 15 42
-6 47 -12 4 -12 3 -2 -5z"/>
<path d="M2740 5121 c13 -9 12 -11 -3 -11 -21 0 -18 -22 4 -28 11 -3 11 -2 -1
7 -13 9 -12 11 3 11 21 0 18 22 -4 28 -11 3 -11 2 1 -7z"/>
<path d="M2948 5123 c7 -3 16 -2 19 1 4 3 -2 6 -13 5 -11 0 -14 -3 -6 -6z"/>
<path d="M3015 5121 c-3 -7 0 -8 9 -5 10 4 16 1 16 -9 0 -9 -7 -18 -15 -20
-11 -4 -10 -4 2 -3 10 1 18 9 18 20 0 22 -20 33 -30 17z"/>
<path d="M1028 5113 c7 -3 16 -2 19 1 4 3 -2 6 -13 5 -11 0 -14 -3 -6 -6z"/>
<path d="M1898 5113 c7 -3 16 -2 19 1 4 3 -2 6 -13 5 -11 0 -14 -3 -6 -6z"/>
<path d="M2888 5113 c6 -2 18 -2 25 0 6 3 1 5 -13 5 -14 0 -19 -2 -12 -5z"/>
<path d="M878 5103 c7 -3 16 -2 19 1 4 3 -2 6 -13 5 -11 0 -14 -3 -6 -6z"/>
<path d="M1286 5097 c3 -10 9 -15 12 -12 3 3 0 11 -7 18 -10 9 -11 8 -5 -6z"/>
<path d="M1358 5103 c7 -3 16 -2 19 1 4 3 -2 6 -13 5 -11 0 -14 -3 -6 -6z"/>
<path d="M2948 5103 c7 -3 16 -2 19 1 4 3 -2 6 -13 5 -11 0 -14 -3 -6 -6z"/>
<path d="M1945 5090 c-16 -7 -17 -9 -3 -9 9 -1 20 4 23 9 7 11 7 11 -20 0z"/>
<path d="M878 5083 c7 -3 16 -2 19 1 4 3 -2 6 -13 5 -11 0 -14 -3 -6 -6z"/>
<path d="M1028 5083 c7 -3 16 -2 19 1 4 3 -2 6 -13 5 -11 0 -14 -3 -6 -6z"/>
<path d="M1078 5083 c7 -3 16 -2 19 1 4 3 -2 6 -13 5 -11 0 -14 -3 -6 -6z"/>
<path d="M1358 5083 c7 -3 16 -2 19 1 4 3 -2 6 -13 5 -11 0 -14 -3 -6 -6z"/>
<path d="M2368 5083 c7 -3 16 -2 19 1 4 3 -2 6 -13 5 -11 0 -14 -3 -6 -6z"/>
<path d="M2948 5083 c7 -3 16 -2 19 1 4 3 -2 6 -13 5 -11 0 -14 -3 -6 -6z"/>
<path d="M2364 4886 c-3 -8 -4 -27 -2 -43 3 -24 7 -28 33 -28 28 0 30 3 31 35
0 19 -5 38 -10 42 -18 13 -46 9 -52 -6z m46 -11 c0 -8 -7 -15 -15 -15 -8 0
-15 7 -15 15 0 8 7 15 15 15 8 0 15 -7 15 -15z m3 -40 c1 -5 -6 -11 -15 -13
-11 -2 -18 3 -18 13 0 17 30 18 33 0z"/>
<path d="M2614 4892 c3 -4 1 -25 -4 -45 -4 -21 -4 -37 1 -37 5 0 9 12 9 26 0
14 5 34 10 45 9 15 7 19 -5 19 -9 0 -14 -4 -11 -8z"/>
<path d="M3283 4893 c15 -2 37 -2 50 0 12 2 0 4 -28 4 -27 0 -38 -2 -22 -4z"/>
<path d="M3503 4893 c15 -2 37 -2 50 0 12 2 0 4 -28 4 -27 0 -38 -2 -22 -4z"/>
<path d="M3723 4893 c15 -2 37 -2 50 0 12 2 0 4 -28 4 -27 0 -38 -2 -22 -4z"/>
<path d="M3943 4893 c15 -2 37 -2 50 0 12 2 0 4 -28 4 -27 0 -38 -2 -22 -4z"/>
<path d="M4290 4889 c0 -5 5 -7 10 -4 6 3 10 8 10 11 0 2 -4 4 -10 4 -5 0 -10
-5 -10 -11z"/>
<path d="M4343 4893 c9 -2 23 -2 30 0 6 3 -1 5 -18 5 -16 0 -22 -2 -12 -5z"/>
<path d="M4653 4893 c9 -2 23 -2 30 0 6 3 -1 5 -18 5 -16 0 -22 -2 -12 -5z"/>
<path d="M5178 4893 c12 -2 32 -2 45 0 12 2 2 4 -23 4 -25 0 -35 -2 -22 -4z"/>
<path d="M5547 4894 c7 -3 10 -18 8 -37 l-5 -32 10 32 c6 17 18 34 28 36 9 3
1 5 -18 5 -19 0 -30 -2 -23 -4z"/>
<path d="M5900 4885 c-19 -22 -8 -25 13 -3 9 10 13 18 8 18 -5 0 -14 -7 -21
-15z"/>
<path d="M5958 4882 c9 -10 19 -17 21 -16 6 5 -20 34 -30 34 -5 0 -1 -8 9 -18z"/>
<path d="M1388 4883 c7 -3 16 -2 19 1 4 3 -2 6 -13 5 -11 0 -14 -3 -6 -6z"/>
<path d="M2816 4864 c-4 -15 -5 -29 -1 -32 3 -3 5 0 5 6 0 7 7 12 15 12 8 0
15 -5 15 -12 0 -6 2 -9 5 -6 10 10 -7 58 -20 58 -7 0 -16 -12 -19 -26z"/>
<path d="M1428 4863 c7 -3 16 -2 19 1 4 3 -2 6 -13 5 -11 0 -14 -3 -6 -6z"/>
<path d="M1470 4859 c0 -5 5 -7 10 -4 6 3 10 8 10 11 0 2 -4 4 -10 4 -5 0 -10
-5 -10 -11z"/>
<path d="M1508 4862 c11 -7 11 -10 -3 -16 -19 -7 -11 -26 11 -26 20 0 15 42
-6 47 -12 4 -12 3 -2 -5z"/>
<path d="M1545 4860 c-3 -6 1 -7 9 -4 11 4 16 0 16 -11 0 -12 -5 -15 -17 -11
-16 5 -16 5 0 -8 18 -14 18 -14 0 -20 -15 -4 -15 -5 2 -3 25 3 36 67 11 67 -8
0 -18 -4 -21 -10z"/>
<path d="M1590 4845 c0 -14 2 -25 4 -25 2 0 6 11 8 25 3 14 1 25 -3 25 -5 0
-9 -11 -9 -25z"/>
<path d="M1628 4863 c7 -3 16 -2 19 1 4 3 -2 6 -13 5 -11 0 -14 -3 -6 -6z"/>
<path d="M1675 4861 c-3 -7 0 -8 9 -5 10 4 16 1 16 -9 0 -9 -7 -18 -15 -20
-11 -4 -10 -4 2 -3 10 1 18 9 18 20 0 22 -20 33 -30 17z"/>
<path d="M1725 4860 c-3 -6 1 -7 9 -4 18 7 21 14 7 14 -6 0 -13 -4 -16 -10z"/>
<path d="M3273 4863 c9 -2 23 -2 30 0 6 3 -1 5 -18 5 -16 0 -22 -2 -12 -5z"/>
<path d="M3513 4863 c9 -2 23 -2 30 0 6 3 -1 5 -18 5 -16 0 -22 -2 -12 -5z"/>
<path d="M3753 4863 c9 -2 23 -2 30 0 6 3 -1 5 -18 5 -16 0 -22 -2 -12 -5z"/>
<path d="M3943 4863 c15 -2 37 -2 50 0 12 2 0 4 -28 4 -27 0 -38 -2 -22 -4z"/>
<path d="M5153 4855 c0 -8 4 -12 9 -9 5 3 6 10 3 15 -9 13 -12 11 -12 -6z"/>
<path d="M5203 4863 c9 -2 23 -2 30 0 6 3 -1 5 -18 5 -16 0 -22 -2 -12 -5z"/>
<path d="M4343 4853 c9 -2 23 -2 30 0 6 3 -1 5 -18 5 -16 0 -22 -2 -12 -5z"/>
<path d="M4653 4853 c9 -2 25 -2 35 0 9 3 1 5 -18 5 -19 0 -27 -2 -17 -5z"/>
<path d="M1388 4843 c7 -3 16 -2 19 1 4 3 -2 6 -13 5 -11 0 -14 -3 -6 -6z"/>
<path d="M3283 4843 c15 -2 37 -2 50 0 12 2 0 4 -28 4 -27 0 -38 -2 -22 -4z"/>
<path d="M3503 4843 c15 -2 37 -2 50 0 12 2 0 4 -28 4 -27 0 -38 -2 -22 -4z"/>
<path d="M3723 4843 c15 -2 37 -2 50 0 12 2 0 4 -28 4 -27 0 -38 -2 -22 -4z"/>
<path d="M3943 4843 c15 -2 37 -2 50 0 12 2 0 4 -28 4 -27 0 -38 -2 -22 -4z"/>
<path d="M5203 4843 c9 -2 23 -2 30 0 6 3 -1 5 -18 5 -16 0 -22 -2 -12 -5z"/>
<path d="M5890 4843 c0 -6 8 -17 18 -24 16 -13 16 -13 2 6 -8 11 -16 22 -17
24 -2 2 -3 0 -3 -6z"/>
<path d="M5963 4832 c-11 -15 -13 -15 -22 -2 -7 9 -11 10 -11 3 0 -21 21 -26
38 -9 9 8 14 18 11 20 -3 3 -10 -3 -16 -12z"/>
<path d="M5580 4825 c0 -6 6 -12 13 -12 8 0 14 6 14 12 0 6 -6 12 -14 12 -7 0
-13 -6 -13 -12z"/>
<path d="M1428 4823 c7 -3 16 -2 19 1 4 3 -2 6 -13 5 -11 0 -14 -3 -6 -6z"/>
<path d="M1628 4823 c7 -3 16 -2 19 1 4 3 -2 6 -13 5 -11 0 -14 -3 -6 -6z"/>
<path d="M2780 4810 c0 -5 25 -10 55 -10 30 0 55 5 55 10 0 6 -25 10 -55 10
-30 0 -55 -4 -55 -10z"/>
<path d="M3273 4813 c9 -2 23 -2 30 0 6 3 -1 5 -18 5 -16 0 -22 -2 -12 -5z"/>
<path d="M3513 4813 c9 -2 23 -2 30 0 6 3 -1 5 -18 5 -16 0 -22 -2 -12 -5z"/>
<path d="M3753 4813 c9 -2 23 -2 30 0 6 3 -1 5 -18 5 -16 0 -22 -2 -12 -5z"/>
<path d="M3943 4813 c15 -2 37 -2 50 0 12 2 0 4 -28 4 -27 0 -38 -2 -22 -4z"/>
<path d="M4343 4813 c9 -2 23 -2 30 0 6 3 -1 5 -18 5 -16 0 -22 -2 -12 -5z"/>
<path d="M4653 4813 c9 -2 25 -2 35 0 9 3 1 5 -18 5 -19 0 -27 -2 -17 -5z"/>
<path d="M5178 4813 c12 -2 32 -2 45 0 12 2 2 4 -23 4 -25 0 -35 -2 -22 -4z"/>
<path d="M5533 4813 c9 -2 23 -2 30 0 6 3 -1 5 -18 5 -16 0 -22 -2 -12 -5z"/>
<path d="M3738 2253 c7 -3 16 -2 19 1 4 3 -2 6 -13 5 -11 0 -14 -3 -6 -6z"/>
<path d="M7084 2236 c-9 -23 0 -51 16 -52 9 0 10 1 3 3 -16 6 -17 35 -1 51 9
9 9 12 0 12 -7 0 -15 -6 -18 -14z"/>
<path d="M7141 2238 c0 -9 -4 -25 -7 -35 -5 -14 -4 -15 5 -7 7 7 11 22 8 35
-2 13 -5 16 -6 7z"/>
<path d="M7413 2235 c-3 -9 -3 -19 1 -22 3 -4 6 1 6 10 0 8 8 18 18 20 16 4
16 5 -1 6 -10 0 -20 -6 -24 -14z"/>
<path d="M7478 2243 c7 -3 16 -2 19 1 4 3 -2 6 -13 5 -11 0 -14 -3 -6 -6z"/>
<path d="M715 2230 c-3 -6 1 -7 9 -4 18 7 21 14 7 14 -6 0 -13 -4 -16 -10z"/>
<path d="M6490 2236 c0 -2 7 -7 16 -10 8 -3 12 -2 9 4 -6 10 -25 14 -25 6z"/>
<path d="M7005 2230 c-3 -6 1 -7 9 -4 18 7 21 14 7 14 -6 0 -13 -4 -16 -10z"/>
<path d="M7342 2215 c0 -16 2 -22 5 -12 2 9 2 23 0 30 -3 6 -5 -1 -5 -18z"/>
<path d="M7272 2210 c0 -14 2 -19 5 -12 2 6 2 18 0 25 -3 6 -5 1 -5 -13z"/>
<path d="M3818 2213 c7 -3 16 -2 19 1 4 3 -2 6 -13 5 -11 0 -14 -3 -6 -6z"/>
<path d="M3968 2213 c7 -3 16 -2 19 1 4 3 -2 6 -13 5 -11 0 -14 -3 -6 -6z"/>
<path d="M4068 2213 c6 -2 18 -2 25 0 6 3 1 5 -13 5 -14 0 -19 -2 -12 -5z"/>
<path d="M4378 2213 c7 -3 16 -2 19 1 4 3 -2 6 -13 5 -11 0 -14 -3 -6 -6z"/>
<path d="M4447 2199 c7 -7 15 -10 18 -7 3 3 -2 9 -12 12 -14 6 -15 5 -6 -5z"/>
<path d="M6487 2199 c7 -7 15 -10 18 -7 3 3 -2 9 -12 12 -14 6 -15 5 -6 -5z"/>
<path d="M7301 2194 c0 -11 3 -14 6 -6 3 7 2 16 -1 19 -3 4 -6 -2 -5 -13z"/>
<path d="M7478 2193 c7 -3 16 -2 19 1 4 3 -2 6 -13 5 -11 0 -14 -3 -6 -6z"/>
<path d="M650 1935 c0 -24 5 -35 14 -35 23 0 31 22 13 35 -21 15 -22 29 -1 21
8 -3 12 -2 9 4 -15 24 -35 9 -35 -25z m30 -15 c0 -5 -4 -10 -10 -10 -5 0 -10
5 -10 10 0 6 5 10 10 10 6 0 10 -4 10 -10z"/>
<path d="M703 1935 c0 -22 2 -30 4 -17 2 12 2 30 0 40 -3 9 -5 -1 -4 -23z"/>
<path d="M723 1934 c-8 -22 13 -42 30 -25 10 10 9 11 -5 6 -13 -5 -18 -2 -18
10 0 11 5 15 16 11 8 -3 12 -2 9 4 -9 15 -25 12 -32 -6z"/>
<path d="M793 1943 c21 -6 23 -30 2 -36 -11 -4 -10 -4 2 -3 10 1 19 11 21 24
3 18 -1 22 -20 21 -17 -1 -18 -3 -5 -6z"/>
<path d="M881 1922 c2 -25 2 -25 6 -4 3 14 10 22 17 19 7 -3 18 -2 25 2 7 5 0
8 -18 9 -27 1 -31 -2 -30 -26z"/>
<path d="M970 1943 c7 -3 5 -10 -6 -17 -13 -10 -14 -15 -4 -21 9 -5 11 -4 6 3
-4 7 -3 12 3 12 5 0 12 -6 15 -12 3 -7 4 -2 3 11 -1 14 -8 26 -15 27 -7 1 -8
0 -2 -3z"/>
<path d="M1003 1934 c-4 -10 1 -22 11 -30 16 -12 16 -13 -1 -18 -15 -4 -15 -5
2 -3 26 3 36 67 10 67 -8 0 -18 -7 -22 -16z m27 -9 c0 -8 -4 -15 -10 -15 -5 0
-10 7 -10 15 0 8 5 15 10 15 6 0 10 -7 10 -15z"/>
<path d="M1054 1936 c-7 -18 3 -36 19 -36 7 0 6 4 -3 10 -13 8 -12 10 3 10 10
0 17 5 15 12 -7 19 -27 21 -34 4z"/>
<path d="M788 1883 c7 -3 16 -2 19 1 4 3 -2 6 -13 5 -11 0 -14 -3 -6 -6z"/>
<path d="M756 1761 c-4 -5 3 -7 14 -4 23 6 26 13 6 13 -8 0 -17 -4 -20 -9z"/>
<path d="M803 1735 c0 -22 2 -30 4 -17 2 12 2 30 0 40 -3 9 -5 -1 -4 -23z"/>
<path d="M1071 1733 c1 -21 3 -30 6 -20 2 9 10 17 16 17 7 0 6 4 -3 10 -13 9
-13 11 0 20 13 8 12 10 -2 10 -14 0 -18 -8 -17 -37z"/>
<path d="M1133 1735 c0 -22 2 -30 4 -17 2 12 2 30 0 40 -3 9 -5 -1 -4 -23z"/>
<path d="M828 1725 c2 -14 6 -25 8 -25 2 0 4 11 4 25 0 14 -4 25 -9 25 -4 0
-6 -11 -3 -25z"/>
<path d="M854 1735 c-7 -17 3 -35 19 -34 9 0 9 2 0 6 -7 2 -13 11 -13 18 0 7
6 16 13 18 9 4 9 6 -1 6 -7 1 -15 -6 -18 -14z"/>
<path d="M918 1743 c7 -3 16 -2 19 1 4 3 -2 6 -13 5 -11 0 -14 -3 -6 -6z"/>
<path d="M1112 1725 c0 -16 2 -22 5 -12 2 9 2 23 0 30 -3 6 -5 -1 -5 -18z"/>
<path d="M998 1723 c6 -2 18 -2 25 0 6 3 1 5 -13 5 -14 0 -19 -2 -12 -5z"/>
<path d="M1158 1723 c6 -2 18 -2 25 0 6 3 1 5 -13 5 -14 0 -19 -2 -12 -5z"/>
<path d="M1618 1723 c7 -3 16 -2 19 1 4 3 -2 6 -13 5 -11 0 -14 -3 -6 -6z"/>
<path d="M1868 1723 c7 -3 16 -2 19 1 4 3 -2 6 -13 5 -11 0 -14 -3 -6 -6z"/>
<path d="M758 1708 c5 -5 16 -8 23 -6 8 3 3 7 -10 11 -17 4 -21 3 -13 -5z"/>
<path d="M1687 1709 c7 -7 15 -10 18 -7 3 3 -2 9 -12 12 -14 6 -15 5 -6 -5z"/>
<path d="M1777 1709 c7 -7 15 -10 18 -7 3 3 -2 9 -12 12 -14 6 -15 5 -6 -5z"/>
<path d="M918 1703 c7 -3 16 -2 19 1 4 3 -2 6 -13 5 -11 0 -14 -3 -6 -6z"/>
<path d="M1008 1703 c7 -3 16 -2 19 1 4 3 -2 6 -13 5 -11 0 -14 -3 -6 -6z"/>
<path d="M1168 1703 c7 -3 16 -2 19 1 4 3 -2 6 -13 5 -11 0 -14 -3 -6 -6z"/>
<path d="M650 1426 c0 -2 8 -10 18 -17 15 -13 16 -12 3 4 -13 16 -21 21 -21
13z"/>
<path d="M740 1423 c7 -3 5 -10 -6 -17 -13 -10 -14 -15 -4 -21 9 -5 11 -4 6 3
-4 7 -3 12 3 12 5 0 12 -6 15 -12 3 -7 4 -2 3 11 -1 14 -8 26 -15 27 -7 1 -8
0 -2 -3z"/>
<path d="M804 1405 c1 -11 9 -21 19 -23 13 -3 17 3 16 25 -1 23 -2 24 -6 6 -5
-27 -20 -30 -26 -5 -3 13 -4 12 -3 -3z"/>
<path d="M855 1421 c-3 -5 0 -13 6 -17 8 -4 7 -9 -2 -15 -10 -6 -10 -9 -2 -9
17 0 25 17 12 26 -8 4 -7 9 2 15 10 6 10 9 2 9 -6 0 -14 -4 -18 -9z"/>
<path d="M658 1383 c7 -3 16 -2 19 1 4 3 -2 6 -13 5 -11 0 -14 -3 -6 -6z"/>
<path d="M754 1228 c-4 -6 0 -16 9 -23 22 -16 21 -22 0 -28 -16 -4 -16 -5 -1
-6 24 -2 34 20 15 34 -22 16 -21 22 1 28 15 4 15 5 0 6 -9 0 -20 -4 -24 -11z"/>
<path d="M1118 1225 c-7 -7 3 -55 11 -55 8 0 7 47 -1 55 -2 3 -7 3 -10 0z"/>
<path d="M7470 1222 c0 -5 9 -17 19 -26 19 -17 21 -17 45 1 38 27 35 45 -4 21
-15 -10 -22 -10 -32 0 -14 14 -28 16 -28 4z"/>
<path d="M804 1205 c-7 -17 3 -35 19 -35 8 0 7 3 -2 9 -11 7 -10 10 5 14 18 4
18 5 -1 6 -17 1 -18 3 -5 11 10 7 11 10 2 10 -7 0 -15 -7 -18 -15z"/>
<path d="M880 1210 c13 -8 12 -10 -3 -10 -24 0 -16 -24 9 -27 18 -3 18 -2 -1
6 -17 8 -18 10 -2 10 9 1 17 8 17 16 0 8 -8 15 -17 15 -15 0 -16 -2 -3 -10z"/>
<path d="M914 1205 c-7 -17 3 -35 19 -34 9 0 9 2 0 6 -23 9 -14 32 15 36 l27
4 -28 2 c-16 0 -30 -5 -33 -14z"/>
<path d="M1005 1211 c-6 -11 13 -26 22 -17 4 3 0 6 -8 6 -11 0 -11 2 1 10 9 6
10 10 3 10 -6 0 -14 -4 -18 -9z"/>
<path d="M1084 1212 c18 -8 18 -9 3 -15 -24 -9 -21 -27 4 -27 28 0 23 44 -6
47 -19 3 -19 3 -1 -5z"/>
<path d="M1195 1211 c-6 -11 13 -26 22 -17 4 3 0 6 -8 6 -11 0 -11 2 1 10 9 6
10 10 3 10 -6 0 -14 -4 -18 -9z"/>
<path d="M1150 1180 c0 -6 7 -10 15 -10 8 0 15 2 15 4 0 2 -7 6 -15 10 -8 3
-15 1 -15 -4z"/>
<path d="M1008 1173 c7 -3 16 -2 19 1 4 3 -2 6 -13 5 -11 0 -14 -3 -6 -6z"/>
<path d="M1198 1173 c7 -3 16 -2 19 1 4 3 -2 6 -13 5 -11 0 -14 -3 -6 -6z"/>
<path d="M6950 815 l0 -125 335 0 335 0 0 125 0 125 -335 0 -335 0 0 -125z
m152 34 c-27 -10 -26 -42 1 -47 12 -2 17 3 17 17 0 17 6 21 34 21 19 0 38 -4
41 -10 3 -5 12 -10 18 -10 8 0 8 3 -1 9 -19 11 22 19 71 13 38 -4 54 -31 20
-33 -15 0 -15 -2 2 -9 13 -5 -11 -8 -67 -9 -84 0 -88 1 -89 22 -2 22 -2 22 -6
-1 -4 -20 -10 -23 -41 -20 -26 2 -38 8 -40 21 -6 31 6 47 35 46 27 0 28 0 5
-10z m288 0 c0 -7 20 -10 57 -7 55 3 56 2 57 -23 1 -25 -1 -26 -56 -28 -34 -1
-58 3 -58 9 0 5 -7 10 -15 10 -8 0 -15 -4 -15 -10 0 -5 -4 -10 -10 -10 -5 0
-10 16 -10 35 0 31 3 35 25 35 14 0 25 -5 25 -11z"/>
<path d="M7261 814 c0 -11 3 -14 6 -6 3 7 2 16 -1 19 -3 4 -6 -2 -5 -13z"/>
<path d="M7361 834 c0 -11 3 -14 6 -6 3 7 2 16 -1 19 -3 4 -6 -2 -5 -13z"/>
<path d="M7411 814 c0 -11 3 -14 6 -6 3 7 2 16 -1 19 -3 4 -6 -2 -5 -13z"/>
<path d="M6496 851 c-4 -5 3 -7 14 -4 23 6 26 13 6 13 -8 0 -17 -4 -20 -9z"/>
<path d="M6548 833 c7 -3 16 -2 19 1 4 3 -2 6 -13 5 -11 0 -14 -3 -6 -6z"/>
<path d="M6591 813 c1 -23 2 -24 6 -5 2 12 8 22 13 22 5 0 11 -10 13 -22 5
-20 5 -20 4 2 -1 15 -9 26 -19 28 -14 3 -18 -3 -17 -25z"/>
<path d="M6645 830 c-3 -6 1 -7 9 -4 18 7 21 14 7 14 -6 0 -13 -4 -16 -10z"/>
<path d="M6547 813 c-10 -10 -8 -23 4 -23 5 0 8 4 5 9 -4 5 0 12 6 14 7 3 8 6
2 6 -6 1 -14 -2 -17 -6z"/>
<path d="M6688 813 c7 -3 16 -2 19 1 4 3 -2 6 -13 5 -11 0 -14 -3 -6 -6z"/>
<path d="M6498 798 c5 -5 16 -8 23 -6 8 3 3 7 -10 11 -17 4 -21 3 -13 -5z"/>
<path d="M6647 799 c7 -7 15 -10 18 -7 3 3 -2 9 -12 12 -14 6 -15 5 -6 -5z"/>
<path d="M6688 793 c7 -3 16 -2 19 1 4 3 -2 6 -13 5 -11 0 -14 -3 -6 -6z"/>
</g>
</svg>
