<?xml version="1.0" standalone="no"?>
<!DOCTYPE svg PUBLIC "-//W3C//DTD SVG 20010904//EN"
 "http://www.w3.org/TR/2001/REC-SVG-20010904/DTD/svg10.dtd">
<svg version="1.0" xmlns="http://www.w3.org/2000/svg"
 width="1477.000000pt" height="877.000000pt" viewBox="0 0 1477.000000 877.000000"
 preserveAspectRatio="xMidYMid meet">

<g transform="translate(0.000000,877.000000) scale(0.100000,-0.100000)"
fill="#000000" stroke="none">
<path d="M0 4385 l0 -4385 7385 0 7385 0 0 4385 0 4385 -7385 0 -7385 0 0
-4385z m11100 0 l0 -3985 -3840 0 -3840 0 0 3985 0 3985 3840 0 3840 0 0
-3985z"/>
<path d="M3670 8161 c0 -114 4 -190 9 -182 5 7 6 21 4 31 -3 10 4 27 16 39 12
12 21 32 21 45 0 14 7 31 15 40 8 8 15 26 15 40 0 14 5 28 10 31 6 3 10 14 10
24 0 10 9 26 19 35 11 10 17 24 14 32 -3 8 2 17 11 20 9 3 16 15 16 26 0 17
-7 19 -80 17 l-80 -3 0 -195z"/>
<path d="M4074 8345 c-10 -8 -36 -19 -56 -25 -41 -12 -44 -17 -53 -112 -5 -53
-12 -73 -33 -95 -14 -15 -27 -35 -27 -43 -4 -38 -21 -69 -69 -120 -28 -31 -60
-68 -71 -82 -27 -37 -65 -40 -82 -8 -10 20 -13 -341 -13 -1947 l0 -1973 3495
0 3495 0 0 1494 0 1494 -25 4 c-14 3 -28 1 -31 -4 -10 -16 -27 -3 -29 23 -3
34 12 69 30 69 23 0 24 88 2 102 -8 5 -6 8 6 8 9 0 17 -7 17 -16 0 -9 6 -14
13 -12 9 4 12 60 13 234 1 159 -1 212 -7 172 -4 -32 -13 -67 -19 -77 -14 -26
-13 -31 5 -25 10 4 15 0 15 -15 0 -12 -6 -21 -14 -21 -7 0 -26 -10 -41 -22
l-27 -21 6 21 c9 28 -9 29 -26 2 -16 -25 -25 -25 -31 -2 -4 14 -6 14 -12 -5
-4 -13 -14 -23 -22 -23 -26 0 -14 137 15 178 13 17 20 32 15 32 -5 0 -24 -25
-43 -56 -31 -51 -35 -55 -47 -38 -16 22 -16 24 2 109 29 135 34 150 57 168 36
29 108 8 108 -33 0 -23 -11 -32 -25 -20 -14 12 -27 -21 -30 -77 -4 -70 35 -36
54 46 9 36 28 36 50 0 l20 -33 1 382 0 382 -358 0 -358 0 -12 -137 c-7 -76
-17 -184 -22 -241 -9 -93 -8 -109 11 -164 22 -67 20 -88 -11 -88 -11 0 -20 -6
-20 -12 0 -7 -3 -23 -6 -35 -5 -17 -2 -23 10 -23 9 0 16 8 16 19 0 17 18 31
40 31 5 0 10 -10 12 -22 2 -18 12 -24 45 -30 112 -19 212 -69 289 -145 83 -81
111 -119 119 -154 4 -17 13 -42 21 -57 8 -15 14 -34 14 -43 0 -8 8 -24 18 -35
10 -11 17 -25 14 -33 -3 -9 2 -11 18 -6 15 5 21 3 18 -5 -2 -6 -7 -11 -11 -11
-4 1 -16 1 -27 1 -14 0 -20 7 -21 23 -2 17 -14 -104 -22 -206 -1 -10 -7 -15
-15 -12 -9 3 -12 -1 -7 -15 4 -13 2 -20 -7 -20 -7 0 -28 -21 -47 -46 -66 -88
-169 -159 -277 -193 -38 -12 -42 -17 -48 -52 -5 -33 -10 -39 -31 -39 -22 0
-25 4 -25 35 l0 35 -69 0 c-116 0 -247 52 -339 135 -54 49 -132 159 -132 187
0 9 -6 18 -12 20 -21 7 -24 236 -5 279 9 19 19 45 23 59 4 14 15 36 25 49 11
13 19 27 19 32 0 13 80 92 130 128 56 40 113 66 183 81 l54 13 6 57 c4 31 4
73 0 93 -3 23 -1 42 7 52 11 13 9 15 -13 15 -21 0 -27 6 -32 33 -4 17 -11 34
-15 37 -5 3 -11 17 -15 31 -6 23 -3 27 20 33 28 7 54 -13 55 -43 0 -10 3 -12
10 -5 5 5 14 68 20 139 5 72 13 158 16 193 l7 62 -119 0 c-114 0 -120 -1 -129
-22 -14 -33 -48 -34 -69 -4 l-16 26 -813 0 c-449 0 -818 -4 -826 -9 -15 -10
23 -41 116 -94 26 -15 62 -36 78 -46 28 -18 40 -19 159 -10 133 10 162 5 137
-24 -7 -10 -41 -16 -102 -19 -49 -3 -92 -8 -95 -11 -3 -3 13 -22 36 -43 23
-21 60 -55 83 -76 38 -34 46 -38 82 -33 22 3 159 7 303 10 257 6 264 5 269
-14 3 -12 15 -21 32 -23 17 -2 27 -10 29 -23 3 -20 -5 -21 -245 -33 -136 -7
-271 -12 -300 -12 l-52 0 63 -94 c34 -51 68 -107 75 -123 13 -32 55 -58 74
-46 7 4 84 8 172 10 88 1 169 4 180 7 11 3 29 -2 40 -10 17 -12 17 -16 4 -29
-11 -12 -55 -15 -217 -17 -111 -2 -202 -6 -202 -10 0 -8 35 -102 50 -133 13
-26 47 -173 60 -255 20 -131 7 -370 -21 -370 -5 0 -8 -3 -8 -7 4 -22 -3 -33
-18 -33 -15 0 -16 2 -3 10 8 5 12 12 8 15 -4 4 2 27 13 53 21 47 27 101 15
120 -4 7 -35 12 -77 12 l-69 0 0 -59 c0 -54 2 -59 24 -65 42 -10 41 -39 -5
-149 -45 -111 -61 -151 -108 -272 -17 -44 -38 -93 -45 -110 -8 -16 -24 -57
-36 -90 -13 -33 -31 -78 -41 -100 -10 -22 -32 -76 -49 -120 -17 -44 -42 -96
-54 -115 -13 -20 -35 -67 -49 -105 -14 -39 -43 -113 -64 -165 l-39 -95 -80 3
c-77 4 -80 5 -119 43 -23 21 -46 39 -51 39 -6 0 -24 11 -40 25 -16 14 -35 23
-41 20 -7 -2 -13 2 -13 10 0 11 -14 15 -52 16 -29 1 -69 3 -88 4 -19 2 -80 6
-135 9 -55 4 -111 7 -125 8 -14 1 -93 1 -176 0 -135 -2 -152 -4 -172 -22 -12
-11 -26 -20 -32 -20 -5 0 -9 -3 -9 -7 3 -20 -2 -26 -11 -13 -8 12 -12 13 -19
2 -4 -8 -12 -14 -17 -14 -12 -1 -53 -17 -85 -34 -14 -7 -29 -11 -33 -7 -3 3
-24 -8 -45 -25 -27 -22 -51 -32 -73 -32 -40 0 -137 25 -151 39 -14 14 31 34
64 27 15 -3 31 -1 34 4 4 6 -13 10 -40 10 -58 0 -65 15 -37 83 32 80 37 107
18 107 -8 0 -39 11 -68 24 -29 12 -60 26 -68 30 -44 19 -195 110 -210 126 -3
4 -26 21 -51 39 -57 40 -221 209 -257 265 -15 22 -29 43 -32 46 -4 3 -21 32
-39 65 -19 33 -37 62 -41 65 -5 3 -13 25 -20 49 -6 24 -18 54 -25 65 -7 12
-17 39 -21 61 -3 22 -10 45 -14 50 -14 17 -30 164 -31 285 -1 123 19 310 33
310 5 0 6 9 3 20 -4 12 -2 20 5 20 8 0 10 10 8 25 -3 14 -2 25 2 25 11 0 42
69 36 79 -3 5 1 14 9 21 8 7 12 17 8 23 -3 5 0 15 8 21 8 6 26 29 39 51 70
118 242 314 320 363 14 9 28 20 31 24 25 36 329 198 397 213 18 4 45 13 59 20
15 8 51 17 80 21 29 3 56 10 58 15 3 4 37 11 75 15 46 4 70 11 70 19 0 7 3 27
6 44 l7 31 -216 0 c-141 0 -225 -4 -244 -12 -15 -6 -31 -11 -35 -10 -5 1 -8
-3 -8 -8 0 -6 -6 -10 -12 -9 -20 2 -58 -12 -58 -22 0 -5 -7 -9 -15 -9 -8 0
-15 -4 -15 -10 0 -5 -6 -7 -14 -4 -8 3 -23 -3 -33 -13 -11 -10 -35 -27 -54
-37 -19 -11 -38 -25 -42 -33 -4 -7 -15 -13 -24 -13 -8 0 -24 -11 -35 -25 -11
-14 -26 -25 -34 -25 -8 0 -12 -5 -9 -10 3 -6 -1 -13 -10 -16 -38 -15 -179
-154 -197 -195 -7 -15 -15 -26 -19 -23 -4 2 -16 -9 -25 -26 -10 -16 -22 -30
-27 -30 -4 0 -6 -4 -2 -10 3 -5 -6 -16 -19 -25 -14 -9 -28 -27 -32 -38 -3 -12
-13 -29 -21 -38 -13 -15 -12 -19 5 -31 20 -13 20 -14 -4 -41 -12 -15 -26 -22
-29 -17 -3 6 -11 10 -17 10 -6 0 -9 -3 -5 -6 3 -4 -4 -15 -16 -25 -19 -16 -20
-18 -4 -19 26 0 21 -19 -8 -26 -29 -7 -31 -16 -9 -39 16 -15 16 -16 -2 -13
-12 2 -19 -3 -19 -12 0 -8 -6 -19 -12 -25 -7 -5 -16 -25 -19 -43 -6 -28 -4
-32 12 -26 17 5 17 4 -1 -7 -11 -7 -26 -19 -33 -26 -11 -11 -11 -13 2 -13 9 0
16 -5 16 -11 0 -6 -7 -8 -16 -5 -12 4 -15 2 -10 -9 3 -8 1 -15 -5 -15 -7 0 -9
-10 -5 -25 4 -16 2 -25 -5 -25 -7 0 -9 -3 -6 -7 4 -3 2 -12 -5 -20 -8 -10 -8
-17 0 -25 7 -7 12 -19 12 -27 -1 -13 -4 -12 -15 3 -13 18 -15 18 -15 3 0 -10
7 -20 15 -23 13 -5 13 -8 0 -21 -8 -8 -15 -24 -15 -35 0 -17 2 -18 15 -8 9 7
15 8 15 2 0 -5 -7 -13 -16 -16 -10 -4 -14 -14 -11 -26 3 -11 1 -23 -5 -26 -6
-4 -8 -22 -5 -41 6 -36 0 -63 -14 -63 -17 0 11 370 31 395 4 6 11 28 15 50 3
22 13 54 20 70 7 17 17 41 21 55 13 45 89 193 138 268 103 158 259 319 408
420 73 50 217 131 244 138 13 3 27 10 30 15 3 6 -357 9 -877 9 -788 0 -881 -2
-861 -15 l21 -15 -22 -38 c-12 -20 -25 -38 -29 -40 -4 -2 -8 -10 -8 -18 0 -8
-6 -14 -14 -14 -25 0 -46 12 -46 26 0 15 48 94 65 106 5 4 -130 8 -301 8 -259
0 -313 -2 -330 -15z m5647 -67 c7 -18 19 -39 26 -46 19 -19 16 -40 -6 -52 -31
-16 -40 -12 -59 28 -9 20 -23 43 -29 50 -18 18 -16 29 5 41 31 18 49 12 63
-21z m865 -61 c-4 -24 -14 -53 -22 -63 -14 -18 -15 -16 -10 23 7 50 24 98 32
90 4 -3 3 -26 0 -50z m44 -3 c0 -26 -17 -33 -26 -9 -8 20 3 48 16 40 5 -3 10
-17 10 -31z m-5967 -8 c16 -13 15 -17 -13 -75 -17 -33 -32 -61 -35 -61 -2 0
-15 4 -29 10 -24 9 -24 11 -14 42 6 18 14 35 17 38 4 3 12 17 18 33 14 30 29
33 56 13z m5135 -81 c9 -22 20 -43 25 -46 5 -4 7 -15 5 -25 -6 -31 -49 -24
-68 11 -8 16 -21 35 -27 43 -18 19 -16 39 5 51 28 17 43 8 60 -34z m771 -68
c15 -15 14 -48 -2 -41 -24 9 -36 41 -30 81 l7 38 7 -33 c4 -19 12 -39 18 -45z
m-5974 -6 c5 -17 -40 -131 -52 -131 -2 0 -13 5 -24 10 -20 11 -25 39 -10 56 5
5 14 26 21 47 9 29 17 37 35 37 14 0 26 -7 30 -19z m5936 -74 c-13 -13 -15 1
-4 30 7 17 8 17 11 -1 2 -10 -1 -23 -7 -29z m-5997 -94 c-2 -28 2 -33 30 -38
17 -4 68 -25 113 -47 131 -63 216 -159 264 -297 18 -53 21 -79 17 -169 -2 -59
-9 -116 -14 -127 -6 -11 -24 -46 -39 -77 -62 -124 -178 -215 -330 -262 -59
-17 -239 -23 -257 -8 -7 6 -27 14 -43 18 -69 17 -162 77 -228 148 -45 48 -82
112 -108 188 -35 99 -14 306 36 368 7 8 15 24 19 35 5 17 54 71 118 129 58 54
199 106 288 106 55 0 57 1 70 35 12 30 19 35 40 33 21 -3 25 -8 24 -35z m5966
-40 c-15 -79 -29 -113 -30 -70 0 30 32 148 39 142 2 -2 -2 -35 -9 -72z m143
-38 c-3 -33 -26 -61 -42 -51 -12 8 -5 53 12 74 16 20 32 7 30 -23z m-4698 -15
c3 -5 1 -10 -4 -10 -6 0 -11 5 -11 10 0 6 2 10 4 10 3 0 8 -4 11 -10z m-55
-86 c0 -8 -5 -12 -10 -9 -6 4 -8 11 -5 16 9 14 15 11 15 -7z m10 -34 c-24 -15
-36 -11 -14 4 10 8 21 12 24 10 2 -3 -2 -9 -10 -14z m-106 -69 c3 -5 -1 -11
-9 -14 -9 -4 -12 -1 -8 9 6 16 10 17 17 5z m81 -1 c3 -5 1 -10 -4 -10 -6 0
-11 5 -11 10 0 6 2 10 4 10 3 0 8 -4 11 -10z m-65 -45 c11 -13 10 -14 -4 -9
-9 3 -16 10 -16 15 0 13 6 11 20 -6z m-33 -47 c-3 -8 -6 -5 -6 6 -1 11 2 17 5
13 3 -3 4 -12 1 -19z m23 -18 c0 -5 -5 -10 -11 -10 -5 0 -7 5 -4 10 3 6 8 10
11 10 2 0 4 -4 4 -10z m-40 -24 c0 -2 -7 -9 -15 -16 -13 -11 -14 -10 -9 4 5
14 24 23 24 12z m-60 -36 c0 -5 -2 -10 -4 -10 -3 0 -8 5 -11 10 -3 6 -1 10 4
10 6 0 11 -4 11 -10z m-5 -60 c3 -5 1 -10 -4 -10 -6 0 -11 5 -11 10 0 6 2 10
4 10 3 0 8 -4 11 -10z m30 -49 c-6 -5 -25 10 -25 20 0 5 6 4 14 -3 8 -7 12
-15 11 -17z m-80 -21 c3 -5 1 -10 -4 -10 -6 0 -11 5 -11 10 0 6 2 10 4 10 3 0
8 -4 11 -10z m105 -16 c0 -8 -5 -12 -10 -9 -6 4 -8 11 -5 16 9 14 15 11 15 -7z
m-67 -24 c3 -11 2 -20 -3 -20 -4 0 -10 9 -13 20 -3 11 -2 20 3 20 4 0 10 -9
13 -20z m-38 -49 c-6 -5 -25 10 -25 20 0 5 6 4 14 -3 8 -7 12 -15 11 -17z m75
9 c0 -5 -4 -10 -10 -10 -5 0 -10 5 -10 10 0 6 5 10 10 10 6 0 10 -4 10 -10z
m30 -16 c0 -8 -5 -12 -10 -9 -6 4 -8 11 -5 16 9 14 15 11 15 -7z m-60 -14 c0
-5 -4 -10 -10 -10 -5 0 -10 5 -10 10 0 6 5 10 10 10 6 0 10 -4 10 -10z m-15
-49 c3 -5 1 -12 -5 -16 -5 -3 -10 1 -10 9 0 18 6 21 15 7z m-12 -45 c4 -10 1
-13 -8 -9 -8 3 -12 9 -9 14 7 12 11 11 17 -5z m37 -36 c0 -5 -5 -10 -11 -10
-5 0 -7 5 -4 10 3 6 8 10 11 10 2 0 4 -4 4 -10z m-70 -35 c-7 -8 -17 -15 -23
-15 -6 0 -2 7 9 15 25 19 30 19 14 0z m4916 -59 c-6 -33 -28 -52 -47 -40 -12
7 -11 44 1 44 6 0 10 6 10 14 0 13 29 27 39 20 2 -2 0 -19 -3 -38z m-4931 -26
c3 -5 1 -10 -4 -10 -6 0 -11 5 -11 10 0 6 2 10 4 10 3 0 8 -4 11 -10z m-25
-70 c0 -19 -5 -42 -10 -50 -7 -11 -10 3 -9 48 2 66 19 67 19 2z m-1207 -112
c3 -35 4 -64 3 -65 -1 -1 -13 -4 -26 -5 -21 -3 -24 2 -35 60 -6 34 -9 64 -7
67 3 3 17 5 32 5 26 0 27 -3 33 -62z m1212 32 c3 -5 1 -10 -4 -10 -6 0 -11 5
-11 10 0 6 2 10 4 10 3 0 8 -4 11 -10z m3138 -22 c-4 -7 -8 -17 -9 -23 -1 -5
-5 -18 -9 -27 -4 -11 -3 -18 4 -18 6 0 11 -5 11 -12 0 -9 -3 -9 -12 0 -8 8
-15 9 -25 1 -9 -8 -13 -8 -13 0 0 6 5 11 10 11 6 0 9 3 8 8 -4 14 21 72 32 72
6 0 8 -5 3 -12z m-3146 -30 c-3 -8 -6 -5 -6 6 -1 11 2 17 5 13 3 -3 4 -12 1
-19z m4017 -13 c4 -10 -1 -15 -14 -15 -13 0 -18 5 -14 15 4 8 10 15 14 15 4 0
10 -7 14 -15z m-857 -47 c-3 -8 -6 -5 -6 6 -1 11 2 17 5 13 3 -3 4 -12 1 -19z
m-4348 -62 c18 -73 15 -86 -19 -86 -26 0 -30 4 -35 38 -3 20 -8 49 -10 65 -4
24 -1 27 24 27 26 0 30 -5 40 -44z m4251 -36 c-6 -12 -14 -20 -17 -17 -2 3 1
14 8 26 17 26 24 19 9 -9z m1372 -5 c2 -3 -2 -32 -10 -65 -11 -46 -19 -60 -33
-60 -28 0 -33 18 -19 76 11 45 17 54 35 54 12 0 24 -2 27 -5z m-5597 -107 c4
-24 11 -50 15 -58 12 -24 0 -40 -29 -40 -27 0 -29 3 -38 60 -8 52 -7 62 6 70
29 17 39 10 46 -32z m4195 38 c0 -3 -4 -8 -10 -11 -5 -3 -10 -1 -10 4 0 6 5
11 10 11 6 0 10 -2 10 -4z m2000 -6 c0 -5 -9 -10 -20 -10 -11 0 -20 5 -20 10
0 6 9 10 20 10 11 0 20 -4 20 -10z m-2030 -80 c0 -5 -5 -10 -11 -10 -5 0 -7 5
-4 10 3 6 8 10 11 10 2 0 4 -4 4 -10z m1384 4 c20 -8 20 -13 0 -80 -15 -54
-26 -62 -53 -45 -12 8 -13 16 -3 48 6 21 14 48 17 61 7 23 13 26 39 16z
m-5509 -114 c4 -22 11 -42 16 -46 17 -10 9 -43 -12 -49 -28 -9 -44 9 -58 68
-13 55 -9 67 24 67 19 0 24 -7 30 -40z m4075 3 c0 -5 -8 -17 -17 -28 -14 -18
-15 -18 -9 -2 3 10 6 23 6 28 0 5 5 9 10 9 6 0 10 -3 10 -7z m1404 -52 c3 -5
-3 -33 -13 -62 -15 -45 -22 -54 -42 -54 -20 0 -24 4 -21 27 5 49 31 98 52 98
10 0 21 -4 24 -9z m-5430 -101 c26 -60 26 -94 -1 -98 -18 -3 -26 6 -42 42 -32
69 -28 85 20 95 3 0 13 -17 23 -39z m5374 -62 c2 -9 -6 -39 -18 -66 -17 -40
-25 -49 -41 -45 -11 3 -21 9 -24 13 -5 8 23 88 38 108 13 17 41 11 45 -10z
m-5317 -85 c6 -16 17 -40 24 -55 9 -19 10 -29 2 -37 -22 -22 -48 -12 -63 27
-8 20 -19 44 -24 53 -5 11 -4 21 3 28 20 20 47 12 58 -16z m5248 -52 c13 -8
12 -16 -4 -53 -24 -55 -34 -68 -52 -68 -25 0 -26 31 -2 81 25 50 33 56 58 40z
m-3648 -49 c14 -9 67 -53 118 -96 91 -79 121 -117 121 -154 0 -10 7 -33 16
-51 16 -32 13 -61 -6 -61 -5 0 -13 18 -16 39 -10 65 -37 95 -155 173 -63 42
-124 84 -136 94 -13 11 -34 27 -48 37 -14 10 -25 22 -25 27 0 17 103 11 131
-8z m-1531 -47 c17 -27 25 -33 38 -26 95 48 148 61 262 61 113 0 178 -16 263
-64 254 -141 333 -451 176 -684 -33 -49 -115 -142 -124 -142 -3 0 -29 -12 -58
-26 -235 -116 -491 -69 -658 121 -49 56 -75 103 -98 183 -26 86 -26 158 -2
243 28 100 74 174 147 243 l24 21 -21 40 c-20 37 -20 39 -3 52 26 19 30 17 54
-22z m1250 5 c30 -11 57 -20 59 -20 2 0 -4 -9 -13 -19 -10 -11 -24 -17 -32
-14 -8 3 -17 -5 -23 -20 -10 -26 -29 -29 -96 -13 -11 2 -32 5 -47 5 -32 1 -37
20 -8 28 11 3 20 9 20 14 0 5 7 9 15 9 8 0 22 11 32 25 22 30 25 30 93 5z
m3866 -63 c5 -13 -40 -102 -57 -113 -5 -3 17 -32 49 -64 106 -105 148 -219
140 -381 -3 -84 -8 -102 -41 -171 -53 -108 -133 -187 -244 -240 -79 -39 -92
-42 -190 -46 -151 -7 -234 15 -346 92 -46 32 -47 32 -93 1 -43 -30 -59 -31
-69 -8 -6 18 15 42 61 69 19 11 18 12 -2 35 -122 139 -139 382 -38 556 28 49
122 145 162 167 109 59 173 76 290 76 97 0 181 -20 250 -61 37 -21 46 -24 37
-9 -3 5 6 32 20 60 18 35 31 50 45 50 12 0 23 -6 26 -13z m-4146 -76 c1 -26 1
-25 35 14 30 35 35 37 35 18 0 -12 -19 -47 -41 -78 -38 -50 -62 -67 -71 -47
-1 4 -16 15 -33 24 -37 21 -39 49 -3 66 16 7 33 22 39 33 8 16 13 18 25 8 8
-6 14 -23 14 -38z m3340 15 c0 -3 -4 -8 -10 -11 -5 -3 -10 -1 -10 4 0 6 5 11
10 11 6 0 10 -2 10 -4z m-40 -23 c0 -5 -21 -27 -47 -50 -32 -29 -54 -41 -65
-37 -10 3 -30 -3 -46 -13 -93 -61 -112 -70 -121 -54 -5 7 -12 13 -17 13 -14 1
-38 10 -52 21 -9 7 -4 14 20 27 18 10 36 16 41 13 4 -2 7 0 7 6 0 11 39 26 58
22 7 -1 11 3 10 10 -2 7 14 13 42 15 25 2 68 10 95 18 61 17 75 18 75 9z
m-2964 -58 c36 -45 37 -46 24 -87 -12 -41 -11 -43 20 -71 30 -27 31 -29 13
-42 -10 -8 -25 -12 -33 -8 -8 3 -27 8 -42 11 -22 3 -28 10 -28 31 -1 14 -7 37
-15 51 -27 48 -7 84 25 45 19 -23 30 -18 30 15 0 20 -9 40 -25 56 -14 14 -25
29 -25 34 0 21 20 8 56 -35z m254 -65 c0 -10 -7 -23 -15 -30 -8 -7 -15 -21
-15 -31 0 -23 -21 -69 -32 -69 -16 0 -8 55 12 80 11 14 20 40 20 59 0 29 2 32
15 21 8 -7 15 -20 15 -30z m2283 3 c4 -2 5 -8 2 -13 -3 -5 10 -6 28 -3 38 6
110 -25 120 -52 4 -8 16 -15 27 -15 12 0 18 -4 15 -10 -4 -6 -14 -8 -24 -5
-10 3 -38 -8 -65 -25 -44 -28 -48 -29 -53 -12 -5 20 -52 52 -75 52 -7 -1 0 -8
15 -16 l28 -15 -43 -29 c-24 -16 -52 -30 -63 -29 -18 0 -18 1 -3 12 11 9 14
22 11 40 -3 16 -1 27 6 27 6 0 11 -4 11 -10 0 -5 5 -10 11 -10 9 0 9 4 0 14
-8 10 -5 19 14 40 27 29 27 30 -10 16 -17 -7 -25 -15 -22 -24 4 -11 -2 -14
-21 -13 -17 1 -27 -3 -27 -12 0 -22 -52 -32 -71 -14 -14 14 -13 18 6 38 11 12
18 28 15 36 -10 27 44 50 105 43 30 -4 58 -8 63 -11z m-2118 -94 c0 -24 -5
-34 -15 -34 -16 0 -25 37 -16 62 10 26 31 8 31 -28z m2433 -6 c-18 -15 -39
-36 -46 -45 -10 -13 -18 -16 -30 -9 -13 7 -32 -1 -77 -31 -68 -46 -139 -63
-133 -31 2 11 20 24 48 33 25 8 69 27 97 43 29 15 61 27 70 27 10 0 32 9 48
20 45 30 62 24 23 -7z m-692 -20 c-10 -10 -19 5 -10 18 6 11 8 11 12 0 2 -7 1
-15 -2 -18z m600 -94 c-28 -22 -86 -42 -86 -30 0 8 86 50 104 51 5 0 -3 -9
-18 -21z m-166 -231 c0 -18 -17 -6 -34 25 l-19 32 26 -24 c15 -14 27 -28 27
-33z m-395 -112 c38 -35 77 -98 68 -107 -5 -5 -28 -5 -52 -1 l-44 7 -1 63 c-1
34 -1 62 0 62 2 0 14 -11 29 -24z m-2761 -85 c20 -22 15 -51 -9 -51 -9 0 -34
17 -57 38 -38 36 -39 39 -23 55 16 16 18 16 43 -2 15 -10 35 -28 46 -40z
m1936 20 c183 -52 317 -177 365 -339 19 -65 19 -298 0 -306 -7 -2 -27 -31 -45
-63 -60 -110 -200 -214 -322 -243 -62 -14 -214 -12 -273 4 -131 35 -261 136
-320 249 -27 52 -32 55 -73 60 -50 5 -65 16 -56 40 4 12 18 17 43 17 l36 0 -3
93 c-5 151 43 265 154 367 133 121 328 169 494 121z m640 0 c0 -14 -18 -23
-30 -16 -6 4 -8 11 -5 16 8 12 35 12 35 0z m-2469 -93 c51 -34 58 -48 35 -68
-12 -9 -25 -5 -65 22 -53 34 -59 46 -39 66 16 16 12 17 69 -20z m3399 -44 c0
-7 -21 -30 -46 -50 -44 -37 -47 -37 -60 -19 -20 27 -19 29 33 68 35 26 51 33
60 25 7 -6 13 -16 13 -24z m-3277 -44 c14 -11 30 -20 35 -20 6 0 14 -5 17 -10
8 -13 -3 -50 -15 -50 -20 0 -99 56 -100 71 0 34 26 38 63 9z m3145 -42 c2 -11
-13 -27 -45 -47 -26 -17 -53 -31 -60 -31 -14 0 -29 43 -16 47 5 2 25 14 44 28
38 27 72 29 77 3z m-2992 -44 c42 -25 57 -55 34 -69 -13 -8 -120 46 -120 60 0
13 20 35 33 35 5 0 28 -12 53 -26z m2848 -30 c9 -23 1 -31 -53 -59 -36 -18
-51 -21 -60 -12 -21 21 -10 42 32 64 51 26 73 28 81 7z m-2701 -46 c49 -24 57
-37 32 -58 -23 -19 -115 26 -115 57 0 30 21 30 83 1z m2555 -36 c3 -16 -7 -25
-44 -41 -44 -20 -74 -26 -74 -17 0 2 -3 11 -6 20 -5 12 8 22 47 41 61 28 73
28 77 -3z m-2403 -33 c50 -24 49 -22 34 -48 -12 -17 -14 -17 -63 1 -66 25 -65
25 -59 48 7 26 32 25 88 -1z m2252 -43 c-7 -17 -41 -33 -88 -43 -19 -3 -28 0
-33 12 -9 24 10 43 50 51 19 3 37 11 40 16 10 15 38 -18 31 -36z m-2109 -11
c42 -15 54 -28 46 -48 -8 -22 -26 -21 -80 3 -28 13 -44 27 -44 39 0 24 11 33
29 25 9 -4 31 -12 49 -19z m1957 -25 c9 -28 1 -37 -42 -45 -21 -4 -44 -12 -51
-18 -10 -8 -16 -7 -23 4 -19 30 -9 46 39 62 62 21 70 21 77 -3z m-1806 -22
c53 -12 67 -27 48 -51 -10 -13 -19 -13 -60 -2 -55 14 -72 27 -64 49 8 19 11
19 76 4z m1651 -31 c0 -20 -9 -26 -56 -41 -47 -15 -58 -16 -65 -4 -16 25 -9
36 34 51 66 23 87 21 87 -6z m-1462 -18 c13 -5 22 -17 22 -30 0 -21 -3 -21
-56 -15 -69 8 -74 11 -74 42 0 25 2 25 43 19 23 -4 52 -11 65 -16z m1306 -15
c10 -27 7 -30 -53 -43 -64 -14 -81 -10 -81 18 0 31 123 55 134 25z"/>
<path d="M4142 7650 c-35 -16 -43 -24 -40 -42 10 -74 326 -74 336 0 5 36 -63
62 -168 62 -63 0 -96 -5 -128 -20z"/>
<path d="M4092 7520 c5 -34 45 -58 116 -69 107 -17 225 11 237 56 8 34 2 37
-36 24 -75 -26 -195 -24 -297 5 -21 6 -23 4 -20 -16z"/>
<path d="M4090 7424 c0 -41 47 -74 107 -74 26 0 42 -25 25 -42 -7 -7 -27 -5
-65 6 -69 20 -69 20 -65 -5 6 -42 51 -63 145 -69 69 -4 88 -9 97 -23 9 -15 7
-21 -9 -33 -11 -8 -26 -12 -33 -9 -41 15 -62 17 -62 3 0 -25 23 -38 70 -38 58
0 84 25 83 75 -1 19 3 35 8 35 5 0 12 0 16 1 4 0 14 -21 23 -48 12 -39 21 -50
47 -58 17 -6 41 -19 52 -29 23 -21 45 -13 36 13 -3 10 1 34 10 54 45 108 -14
230 -96 197 -15 -7 -35 -22 -43 -35 -15 -22 -80 -45 -130 -45 -19 0 -26 5 -26
19 0 22 35 32 68 20 13 -5 22 -4 22 1 0 5 15 16 34 24 33 14 53 46 41 65 -3 6
-21 3 -43 -6 -52 -22 -213 -22 -266 1 -47 20 -46 20 -46 0z m439 -98 c19 -23
10 -127 -12 -140 -27 -16 -47 17 -47 79 0 67 29 97 59 61z"/>
<path d="M4640 7260 l0 -120 69 0 c65 0 81 7 81 36 0 2 -22 4 -49 4 -59 0 -61
3 -61 116 0 77 -2 84 -20 84 -19 0 -20 -7 -20 -120z"/>
<path d="M4731 5731 c-28 -28 -35 -60 -28 -137 l5 -64 -37 -10 c-55 -15 -121
-75 -121 -110 0 -40 40 -83 103 -111 l54 -24 -5 -71 c-5 -77 4 -104 43 -130
22 -14 28 -14 72 0 26 9 63 29 82 45 l34 28 44 -33 c122 -93 201 -53 191 97
l-5 67 44 17 c57 22 113 77 113 112 0 33 -55 86 -114 108 l-46 18 6 71 c5 64
4 75 -18 106 -15 22 -33 36 -50 38 -29 4 -100 -29 -136 -61 -19 -18 -26 -19
-40 -9 -100 70 -158 86 -191 53z m126 -47 c23 -13 45 -29 48 -34 3 -5 -8 -27
-25 -49 -26 -31 -41 -41 -83 -49 -29 -6 -54 -8 -57 -6 -2 3 -6 33 -8 68 -4 55
-1 67 17 85 25 25 42 22 108 -15z m259 22 c16 -12 19 -26 18 -80 0 -37 -5 -71
-10 -76 -6 -6 -27 -5 -58 3 -37 9 -57 22 -80 50 l-31 39 35 29 c29 24 69 43
101 48 3 1 14 -5 25 -13z m-146 -133 c0 -9 -13 -13 -41 -13 -42 0 -43 5 -11
43 14 16 16 16 34 1 10 -10 18 -23 18 -31z m49 -65 c7 -12 24 -40 36 -62 l23
-41 -36 -62 -36 -63 -73 0 -72 0 -37 62 -36 63 27 50 c42 76 41 75 119 75 62
0 73 -3 85 -22z m-208 -5 c-5 -10 -16 -27 -25 -38 -14 -20 -15 -19 -25 8 -14
36 -7 47 30 47 25 0 28 -3 20 -17z m304 8 c6 -10 -14 -61 -25 -61 -3 0 -14 16
-23 35 l-17 35 30 0 c16 0 31 -4 35 -9z m-375 -61 c15 -41 15 -49 -1 -90 -9
-24 -21 -46 -26 -47 -29 -10 -133 61 -133 89 0 24 30 58 68 77 56 29 74 23 92
-29z m486 20 c28 -16 54 -38 57 -49 9 -36 -41 -84 -110 -105 -19 -6 -25 0 -42
40 -20 45 -20 48 -4 95 11 30 24 49 33 49 8 0 38 -13 66 -30z m-421 -151 l16
-29 -31 0 c-35 0 -47 19 -30 49 13 25 25 20 45 -20z m305 15 c13 -33 6 -44
-31 -44 -34 0 -34 1 -14 40 19 37 32 38 45 4z m-301 -74 c23 0 101 -71 101
-92 0 -17 -94 -68 -127 -68 -40 0 -53 21 -53 89 0 67 8 84 34 77 11 -3 32 -6
45 -6z m327 -36 c8 -58 -9 -120 -36 -127 -21 -5 -110 34 -130 58 -12 14 -4 29
47 94 3 5 68 18 95 20 13 1 18 -10 24 -45z m-165 8 c-19 -36 -37 -44 -53 -24
-33 38 -31 42 17 42 41 0 45 -2 36 -18z"/>
<path d="M4920 5472 c-50 -16 -66 -76 -30 -112 48 -48 126 4 105 71 -8 23 -54
48 -75 41z"/>
<path d="M7010 4775 c0 -44 15 -60 26 -30 4 8 10 15 15 15 5 0 9 -7 9 -15 0
-8 7 -15 15 -15 11 0 15 12 15 45 0 33 -4 45 -15 45 -8 0 -15 -7 -15 -15 0 -8
-5 -15 -10 -15 -6 0 -13 7 -16 15 -12 30 -24 14 -24 -30z"/>
<path d="M7100 4805 c0 -8 4 -15 9 -15 5 0 11 -12 13 -27 4 -34 28 -43 28 -11
0 24 16 48 32 48 4 0 8 -16 8 -35 0 -40 2 -41 34 -20 21 14 24 14 29 0 12 -30
27 -14 27 30 0 32 -4 45 -14 45 -8 0 -16 -6 -19 -12 -3 -10 -8 -10 -18 -2 -8
6 -40 11 -71 12 -46 2 -58 -1 -58 -13z"/>
<path d="M7298 4783 c-6 -48 -3 -53 33 -53 19 0 29 5 29 15 0 8 -6 15 -14 15
-8 0 -16 12 -18 27 -5 41 -25 39 -30 -4z"/>
<path d="M6970 4668 c0 -6 4 -39 10 -72 5 -34 14 -131 19 -216 12 -173 12
-174 87 -186 25 -3 47 -10 50 -15 3 -5 25 -9 49 -9 24 0 46 4 49 9 3 5 25 12
50 15 74 11 75 13 86 181 6 83 15 180 20 217 6 37 10 72 10 77 0 8 -70 11
-215 11 -157 0 -215 -3 -215 -12z m355 -72 c10 -9 11 -23 6 -42 l-8 -29 -101
1 c-100 1 -102 1 -102 -22 0 -23 2 -23 95 -22 52 1 97 -1 101 -4 3 -3 2 -48
-3 -100 l-8 -93 -54 -18 c-47 -16 -62 -16 -105 -6 -81 19 -86 23 -86 80 l0 50
33 -3 c24 -2 33 -8 35 -25 7 -47 112 -35 112 13 0 16 -6 24 -17 25 -112 6
-159 11 -164 17 -4 4 -9 45 -11 92 l-3 85 79 2 c44 2 80 4 82 5 10 11 108 5
119 -6z m-95 -376 c0 -5 -4 -10 -10 -10 -5 0 -10 5 -10 10 0 6 5 10 10 10 6 0
10 -4 10 -10z"/>
<path d="M6797 7913 c-4 -3 -7 -67 -7 -140 l0 -134 28 3 c25 3 27 7 30 56 l3
52 45 0 c37 0 44 3 44 20 0 17 -7 20 -45 20 l-45 0 0 40 0 40 45 0 c41 0 45 2
45 25 0 24 -2 25 -68 25 -38 0 -72 -3 -75 -7z"/>
<path d="M6995 7910 c-4 -6 -6 -56 -6 -112 1 -96 2 -104 26 -128 22 -21 35
-25 86 -25 54 0 63 3 85 28 23 27 25 35 22 135 -3 107 -3 107 -28 107 -25 0
-25 -1 -28 -99 -1 -55 -8 -106 -14 -113 -13 -16 -60 -17 -76 -1 -8 8 -12 46
-12 103 0 90 -8 115 -36 115 -7 0 -16 -5 -19 -10z"/>
<path d="M7277 7913 c-4 -3 -7 -66 -7 -140 l0 -133 76 0 c72 0 75 1 72 23 -2
18 -10 23 -45 25 l-43 3 0 103 c0 100 -7 126 -35 126 -7 0 -15 -3 -18 -7z"/>
<path d="M7455 7908 c-3 -8 -4 -70 -3 -139 l3 -124 69 -3 c38 -2 74 2 79 7 18
18 -13 41 -54 41 l-38 0 -3 113 c-3 108 -4 112 -26 115 -12 2 -24 -3 -27 -10z"/>
<path d="M5776 7673 c-9 -22 3 -36 20 -22 18 15 18 25 0 32 -8 3 -17 -1 -20
-10z"/>
<path d="M9913 7404 c-77 -69 -89 -98 -60 -139 13 -16 13 -15 9 15 -6 44 17
86 73 130 36 28 64 60 52 60 -1 0 -35 -30 -74 -66z"/>
<path d="M10581 7434 c0 -11 3 -14 6 -6 3 7 2 16 -1 19 -3 4 -6 -2 -5 -13z"/>
<path d="M6690 7393 c-24 -10 -39 -36 -39 -68 0 -39 16 -59 62 -79 44 -18 56
-41 33 -64 -16 -17 -19 -16 -88 13 -14 5 -18 2 -18 -11 0 -34 17 -47 69 -52
37 -3 58 0 76 12 55 36 52 102 -6 134 -17 9 -41 25 -53 34 -20 16 -20 18 -4
34 13 13 22 15 46 6 17 -6 33 -8 36 -5 12 12 6 41 -10 47 -19 7 -84 7 -104 -1z"/>
<path d="M6830 7380 c0 -16 7 -20 35 -20 l35 0 0 -99 c0 -120 3 -131 41 -131
l29 0 0 115 0 115 35 0 c28 0 35 4 35 20 0 19 -7 20 -105 20 -98 0 -105 -1
-105 -20z"/>
<path d="M7097 7383 c-3 -10 -24 -69 -46 -132 -23 -63 -41 -115 -41 -117 0 -2
13 -4 29 -4 23 0 31 6 40 30 9 28 13 30 60 30 46 0 50 -2 60 -30 8 -24 16 -30
40 -30 17 0 31 3 31 6 0 3 -21 64 -46 135 l-47 129 -37 0 c-27 0 -39 -5 -43
-17z m52 -75 c25 -66 24 -68 -8 -68 -35 0 -35 0 -20 53 12 43 16 45 28 15z"/>
<path d="M7360 7393 c-76 -28 -102 -156 -45 -227 37 -46 156 -50 170 -6 10 31
-3 42 -28 25 -53 -37 -107 4 -107 80 0 48 30 95 61 95 11 0 30 -7 43 -16 27
-17 41 -6 31 25 -8 27 -79 41 -125 24z"/>
<path d="M7527 7393 c-4 -3 -7 -64 -7 -135 l0 -128 30 0 c29 0 29 1 32 62 l3
63 40 -63 c36 -55 44 -62 73 -62 17 0 32 3 32 6 0 4 -18 33 -40 65 -22 32 -40
65 -40 72 0 8 16 34 35 58 42 53 44 69 8 69 -22 0 -36 -11 -63 -50 -19 -27
-38 -50 -42 -50 -5 0 -8 23 -8 50 0 46 -2 50 -23 50 -13 0 -27 -3 -30 -7z"/>
<path d="M9956 7343 c-24 -25 -24 -28 -10 -61 8 -20 18 -40 23 -46 5 -6 11
-20 13 -31 4 -19 5 -19 17 4 7 13 9 26 4 30 -11 8 -37 62 -38 81 -1 8 5 23 13
33 24 27 5 20 -22 -10z"/>
<path d="M10148 7168 c15 -15 15 -53 1 -81 -12 -22 -12 -22 10 -3 32 29 24 96
-13 96 -6 0 -5 -5 2 -12z"/>
<path d="M9730 7140 c0 -15 58 -21 155 -18 l90 4 -102 2 c-61 1 -103 6 -103
12 0 6 -9 10 -20 10 -11 0 -20 -4 -20 -10z"/>
<path d="M9790 7067 c0 -18 82 -27 178 -19 103 8 70 19 -43 14 -75 -3 -109 -1
-120 8 -12 10 -15 10 -15 -3z"/>
<path d="M9810 6992 c0 -6 7 -13 16 -16 26 -10 182 -7 189 4 4 6 -29 9 -89 9
-52 -1 -99 2 -105 5 -6 4 -11 3 -11 -2z"/>
<path d="M9666 6931 c-8 -12 65 -33 99 -28 24 3 21 4 -13 6 -28 0 -45 6 -48
16 -7 16 -30 20 -38 6z"/>
<path d="M9915 6900 l-110 -6 100 -1 c55 -1 120 2 145 6 39 7 40 8 10 8 -19
-1 -84 -4 -145 -7z"/>
<path d="M7390 6751 c0 -143 1 -151 19 -151 11 0 23 5 26 10 4 7 12 7 25 0 32
-17 70 -11 95 15 21 20 25 34 25 80 0 46 -4 60 -25 80 -25 26 -59 32 -85 15
-12 -8 -16 -1 -20 43 -5 48 -7 52 -32 55 l-28 3 0 -150z m125 -46 c0 -40 -4
-50 -18 -53 -27 -5 -47 17 -47 52 0 38 17 58 45 54 17 -3 20 -11 20 -53z"/>
<path d="M6784 6867 c-5 -14 -1 -34 34 -169 25 -96 26 -98 67 -98 32 0 35 3
45 43 6 23 17 60 23 81 12 44 10 48 42 -66 15 -56 16 -58 51 -58 41 0 40 0 81
155 21 83 24 108 15 117 -24 24 -45 -6 -66 -95 -11 -48 -23 -87 -27 -87 -3 0
-14 37 -25 81 -23 99 -33 114 -65 106 -20 -5 -28 -17 -38 -59 -7 -29 -18 -71
-23 -93 l-11 -40 -13 37 c-7 20 -16 58 -20 83 -7 48 -25 75 -50 75 -8 0 -17
-6 -20 -13z"/>
<path d="M10048 6863 c12 -2 30 -2 40 0 9 3 -1 5 -23 4 -22 0 -30 -2 -17 -4z"/>
<path d="M7207 6794 c-55 -30 -65 -118 -18 -165 24 -23 38 -29 73 -29 50 0 84
19 75 42 -4 12 -16 15 -49 11 -33 -4 -47 -1 -57 11 -19 23 -8 30 47 33 26 1
53 2 60 2 23 2 13 52 -17 82 -33 33 -70 37 -114 13z m78 -44 c4 -6 -8 -10 -30
-10 -22 0 -34 4 -30 10 3 6 17 10 30 10 13 0 27 -4 30 -10z"/>
<path d="M7197 6384 c-4 -4 -7 -72 -7 -151 l0 -144 28 3 27 3 0 145 c0 138 -1
145 -20 148 -12 2 -24 0 -28 -4z"/>
<path d="M6285 6348 c-3 -8 -4 -68 -3 -134 l3 -119 82 0 c76 0 85 2 109 26 50
50 50 158 0 208 -23 23 -36 26 -106 29 -62 3 -81 1 -85 -10z m124 -43 c34 -17
41 -33 41 -86 0 -51 -37 -92 -78 -87 -26 3 -27 5 -30 73 -5 115 6 132 67 100z"/>
<path d="M6583 6275 c-33 -23 -46 -75 -33 -125 13 -47 36 -60 109 -60 48 0 71
12 71 38 0 11 -10 13 -46 7 -47 -7 -74 4 -74 31 0 10 16 14 60 14 l60 0 0 35
c0 49 -29 75 -83 75 -23 0 -52 -7 -64 -15z m82 -35 c4 -6 -7 -10 -25 -10 -18
0 -29 4 -25 10 3 6 15 10 25 10 10 0 22 -4 25 -10z"/>
<path d="M6750 6277 c0 -7 14 -50 30 -97 17 -47 30 -86 30 -87 0 -2 17 -3 38
-3 l38 0 29 88 c16 48 31 93 33 100 3 8 -6 12 -26 12 -28 0 -31 -4 -48 -64
-10 -36 -21 -63 -24 -61 -4 2 -15 31 -25 65 -17 55 -21 60 -47 60 -16 0 -28
-5 -28 -13z"/>
<path d="M7003 6278 c-49 -23 -57 -134 -13 -170 26 -21 119 -25 138 -6 27 27
14 40 -33 32 -47 -7 -75 5 -75 32 0 9 19 14 63 16 59 3 62 4 65 30 5 41 -36
78 -85 77 -21 0 -48 -5 -60 -11z m82 -38 c4 -6 -8 -10 -30 -10 -22 0 -34 4
-30 10 3 6 17 10 30 10 13 0 27 -4 30 -10z"/>
<path d="M7313 6266 c-24 -21 -28 -32 -28 -76 0 -44 4 -55 28 -76 36 -31 103
-33 140 -4 45 35 48 119 7 160 -30 30 -110 28 -147 -4z m105 -28 c17 -17 15
-74 -4 -92 -34 -34 -69 -12 -69 44 0 41 14 60 46 60 8 0 20 -5 27 -12z"/>
<path d="M7530 6149 l0 -140 28 3 c24 3 27 8 30 44 l3 42 39 -5 c32 -5 43 -1
64 20 21 21 26 36 26 75 0 83 -56 126 -121 92 -13 -7 -19 -7 -19 0 0 5 -11 10
-25 10 l-25 0 0 -141z m119 87 c7 -8 11 -31 9 -52 -6 -73 -68 -68 -68 5 0 54
32 79 59 47z"/>
<path d="M7779 6261 c-33 -34 -39 -83 -14 -130 15 -31 39 -41 97 -41 50 0 68
8 68 32 0 17 -5 19 -45 12 -47 -7 -75 5 -75 32 0 9 19 14 63 16 l62 3 -2 35
c-3 72 -97 97 -154 41z m96 -21 c4 -6 -8 -10 -30 -10 -22 0 -34 4 -30 10 3 6
17 10 30 10 13 0 27 -4 30 -10z"/>
<path d="M7980 6190 l0 -100 30 0 30 0 0 64 c0 67 6 78 44 80 31 2 30 50 -2
54 -13 2 -30 -2 -38 -8 -10 -9 -14 -9 -14 -1 0 6 -11 11 -25 11 l-25 0 0 -100z"/>
<path d="M4764 3199 c-7 -13 -7 -120 1 -127 3 -3 5 13 5 36 0 23 5 42 13 45
10 4 10 6 0 6 -20 1 -15 39 5 44 15 4 15 5 0 6 -9 0 -20 -4 -24 -10z"/>
<path d="M5180 3144 c0 -68 1 -70 26 -72 33 -3 54 14 54 42 0 26 -18 46 -39
45 -10 0 -7 -4 7 -10 18 -7 23 -15 20 -36 -2 -22 -8 -28 -28 -28 -24 0 -25 3
-27 59 -4 83 -13 83 -13 0z"/>
<path d="M5810 3179 c0 -18 -4 -28 -10 -24 -14 9 -50 -4 -50 -17 0 -6 6 -6 15
2 21 18 45 5 45 -25 0 -31 -24 -43 -47 -24 -14 12 -16 12 -11 -1 3 -9 18 -15
36 -16 l32 -1 0 69 c0 37 -2 68 -5 68 -3 0 -5 -14 -5 -31z"/>
<path d="M5970 3181 c0 -24 -3 -28 -20 -24 -11 3 -27 0 -35 -7 -29 -24 -12
-81 25 -79 9 0 6 4 -8 10 -18 7 -23 15 -20 36 2 22 8 28 28 28 21 0 25 -5 25
-32 0 -17 3 -35 8 -39 4 -4 7 25 7 64 0 40 -2 72 -5 72 -3 0 -5 -13 -5 -29z"/>
<path d="M6293 3140 c0 -41 2 -58 4 -37 2 20 2 54 0 75 -2 20 -4 3 -4 -38z"/>
<path d="M7370 3195 c-8 -9 -12 -38 -11 -67 2 -62 11 -78 11 -20 0 23 5 42 13
45 10 4 10 6 0 6 -19 1 -16 28 5 40 9 6 12 11 6 11 -6 0 -17 -7 -24 -15z"/>
<path d="M7523 3140 c0 -41 2 -58 4 -37 2 20 2 54 0 75 -2 20 -4 3 -4 -38z"/>
<path d="M7563 3140 c0 -41 2 -58 4 -37 2 20 2 54 0 75 -2 20 -4 3 -4 -38z"/>
<path d="M8223 3140 c0 -41 2 -58 4 -37 2 20 2 54 0 75 -2 20 -4 3 -4 -38z"/>
<path d="M3692 3193 c13 -3 18 -18 21 -66 l3 -62 2 62 c2 55 4 62 25 66 12 2
2 4 -23 4 -25 1 -37 -1 -28 -4z"/>
<path d="M4151 3178 c-1 -9 -7 -19 -13 -21 -10 -4 -10 -6 0 -6 7 -1 12 -16 12
-41 0 -32 4 -40 18 -39 10 0 12 3 5 6 -7 2 -13 20 -13 39 0 20 5 34 13 34 8 0
9 3 1 8 -6 4 -14 14 -17 22 -4 12 -6 12 -6 -2z"/>
<path d="M6901 3178 c-1 -9 -7 -19 -13 -21 -10 -4 -10 -6 0 -6 7 -1 12 -16 12
-41 0 -32 4 -40 18 -39 10 0 12 3 5 6 -7 2 -13 20 -13 39 0 20 5 34 13 34 8 0
9 3 1 8 -6 4 -14 14 -17 22 -4 12 -6 12 -6 -2z"/>
<path d="M7011 3178 c-1 -9 -7 -19 -13 -21 -10 -4 -10 -6 0 -6 7 -1 12 -16 12
-41 0 -32 4 -40 18 -39 10 0 12 3 5 6 -7 2 -13 20 -13 39 0 20 5 34 13 34 8 0
9 3 1 8 -6 4 -14 14 -17 22 -4 12 -6 12 -6 -2z"/>
<path d="M9811 3178 c-1 -9 -7 -19 -13 -21 -10 -4 -10 -6 0 -6 7 -1 12 -16 12
-41 0 -32 4 -40 18 -39 10 0 12 3 5 6 -7 2 -13 20 -13 39 0 20 5 34 13 34 8 0
9 3 1 8 -6 4 -14 14 -17 22 -4 12 -6 12 -6 -2z"/>
<path d="M10121 3178 c-1 -9 -7 -19 -13 -21 -10 -4 -10 -6 0 -6 7 -1 12 -16
12 -41 0 -32 4 -40 18 -39 10 0 12 3 5 6 -7 2 -13 20 -13 39 0 20 5 34 13 34
8 0 9 3 1 8 -6 4 -14 14 -17 22 -4 12 -6 12 -6 -2z"/>
<path d="M3840 3153 c46 -15 46 -15 25 -23 -18 -8 -18 -9 -2 -9 13 -1 17 -6
12 -20 -3 -11 -1 -22 5 -26 6 -4 10 6 10 24 0 46 -10 61 -39 60 -14 0 -19 -3
-11 -6z"/>
<path d="M3920 3115 c0 -27 2 -46 4 -44 8 8 10 78 3 85 -4 4 -7 -14 -7 -41z"/>
<path d="M3962 3148 c9 -7 19 -29 21 -48 3 -26 4 -24 3 10 -1 36 -5 45 -21 48
-18 4 -19 3 -3 -10z"/>
<path d="M4023 3143 c-4 -11 1 -22 15 -31 28 -18 28 -29 0 -35 -20 -5 -20 -5
2 -4 32 2 41 36 11 44 -28 7 -27 30 2 36 l22 4 -23 2 c-13 0 -25 -6 -29 -16z"/>
<path d="M4103 3115 c0 -27 2 -38 4 -22 2 15 2 37 0 50 -2 12 -4 0 -4 -28z"/>
<path d="M4203 3115 c0 -27 2 -38 4 -22 2 15 2 37 0 50 -2 12 -4 0 -4 -28z"/>
<path d="M4256 3152 c-2 -4 8 -8 22 -7 23 0 27 -4 27 -30 0 -25 -4 -30 -25
-30 -17 0 -26 7 -32 25 -7 25 -7 25 -5 1 3 -32 31 -50 55 -35 21 14 28 64 10
75 -17 11 -45 11 -52 1z"/>
<path d="M4350 3115 c0 -27 2 -46 4 -44 8 8 10 78 3 85 -4 4 -7 -14 -7 -41z"/>
<path d="M4392 3154 c11 -4 18 -19 21 -45 l4 -39 -1 42 c-1 35 -5 43 -21 45
-15 1 -15 0 -3 -3z"/>
<path d="M4463 3115 c0 -27 2 -38 4 -22 2 15 2 37 0 50 -2 12 -4 0 -4 -28z"/>
<path d="M4501 3110 l2 -45 6 40 c5 31 10 40 26 40 16 0 21 -9 26 -40 l6 -40
2 36 c1 41 -14 59 -47 56 -19 -1 -22 -7 -21 -47z"/>
<path d="M4614 3152 c-36 -24 -19 -87 22 -79 38 7 26 -26 -11 -34 -28 -6 -28
-7 -4 -8 37 -2 49 17 49 74 0 45 -2 51 -22 52 -13 1 -28 -1 -34 -5z m44 -35
c4 -33 -22 -47 -45 -25 -12 13 -13 20 -3 37 15 30 44 23 48 -12z"/>
<path d="M4812 3110 c1 -40 2 -41 5 -10 2 19 11 40 20 47 13 10 13 12 -6 10
-18 -1 -21 -7 -19 -47z"/>
<path d="M4880 3146 c-28 -35 11 -93 48 -70 35 22 22 84 -18 84 -10 0 -23 -7
-30 -14z m55 -31 c0 -25 -4 -30 -25 -30 -16 0 -26 6 -28 18 -6 30 6 49 30 45
18 -2 23 -9 23 -33z"/>
<path d="M4981 3111 l2 -46 6 40 c7 46 37 62 45 23 3 -13 7 -32 9 -43 3 -11 5
-1 6 23 0 23 -2 43 -6 44 -5 0 -20 2 -35 3 -27 2 -28 0 -27 -44z"/>
<path d="M5072 3154 c11 -4 18 -19 21 -45 l4 -39 -1 42 c-1 35 -5 43 -21 45
-15 1 -15 0 -3 -3z"/>
<path d="M5318 3153 c23 -5 31 -23 9 -23 -24 0 -48 -25 -41 -43 4 -12 16 -16
36 -15 27 2 29 4 26 43 -3 35 -6 40 -28 42 -22 1 -22 1 -2 -4z m22 -48 c0 -21
-28 -31 -43 -16 -9 9 -8 14 3 21 22 14 40 12 40 -5z"/>
<path d="M5393 3148 c-19 -25 -24 -43 -6 -21 10 11 27 23 38 26 19 4 19 5 -1
6 -12 0 -26 -5 -31 -11z"/>
<path d="M5494 3137 l-20 -22 31 -25 30 -24 -22 25 -23 25 22 22 c13 12 18 22
12 22 -6 0 -19 -10 -30 -23z"/>
<path d="M5562 3148 c-7 -7 -12 -24 -12 -39 0 -27 16 -40 48 -38 10 1 7 4 -7
8 -37 10 -38 31 -2 31 19 0 31 5 31 13 0 16 -20 37 -35 37 -6 0 -16 -5 -23
-12z m46 -15 c2 -8 -6 -13 -22 -13 -25 0 -33 10 -19 24 10 10 36 3 41 -11z"/>
<path d="M5651 3110 l2 -45 6 40 c5 31 10 40 26 40 16 0 21 -9 26 -40 l6 -40
2 36 c1 41 -14 59 -47 56 -19 -1 -22 -7 -21 -47z"/>
<path d="M6023 3153 c-7 -2 -13 -9 -13 -15 0 -6 6 -6 15 2 8 7 22 10 30 6 27
-10 16 -25 -22 -29 l-38 -4 43 -1 c43 -2 55 11 30 36 -13 13 -24 14 -45 5z"/>
<path d="M6109 3115 c9 -25 19 -45 22 -45 4 0 12 12 17 28 21 57 22 66 3 28
l-19 -40 -16 37 c-21 52 -27 46 -7 -8z"/>
<path d="M6203 3153 c-7 -2 -13 -9 -13 -15 0 -6 6 -6 15 2 8 7 22 10 30 6 27
-10 16 -25 -22 -29 l-38 -4 43 -1 c43 -2 55 11 30 36 -13 13 -24 14 -45 5z"/>
<path d="M6343 3153 c-7 -2 -13 -10 -13 -16 0 -8 4 -7 12 1 18 18 46 14 53 -7
13 -41 -24 -68 -53 -39 -8 8 -12 8 -12 1 0 -12 23 -23 46 -23 8 0 19 11 25 24
20 43 -14 77 -58 59z"/>
<path d="M6453 3154 c-7 -3 -13 -10 -13 -16 0 -6 6 -6 15 2 21 18 45 5 45 -25
0 -17 -7 -29 -22 -35 -16 -6 -18 -9 -7 -9 24 -1 41 24 37 56 -3 28 -26 39 -55
27z"/>
<path d="M6541 3111 l2 -46 6 40 c7 46 37 62 45 23 3 -13 7 -32 9 -43 3 -11 5
-1 6 23 0 23 -2 43 -6 44 -5 0 -20 2 -35 3 -27 2 -28 0 -27 -44z"/>
<path d="M6632 3154 c11 -4 18 -19 21 -45 l4 -39 -1 42 c-1 35 -5 43 -21 45
-15 1 -15 0 -3 -3z"/>
<path d="M6702 3148 c-28 -28 -7 -79 33 -77 17 1 17 2 -4 8 -38 10 -38 31 -1
31 27 0 31 3 28 23 -3 25 -36 35 -56 15z m46 -15 c2 -8 -6 -13 -22 -13 -25 0
-33 10 -19 24 10 10 36 3 41 -11z"/>
<path d="M6790 3115 c0 -27 2 -46 4 -44 8 8 10 78 3 85 -4 4 -7 -14 -7 -41z"/>
<path d="M6832 3148 c9 -7 19 -29 21 -48 3 -26 4 -24 3 10 -1 36 -5 45 -21 48
-18 4 -19 3 -3 -10z"/>
<path d="M7070 3146 c-28 -35 11 -93 48 -70 35 22 22 84 -18 84 -10 0 -23 -7
-30 -14z m55 -31 c0 -25 -4 -30 -25 -30 -16 0 -26 6 -28 18 -6 30 6 49 30 45
18 -2 23 -9 23 -33z"/>
<path d="M7230 3153 c46 -15 46 -15 25 -23 -18 -8 -18 -9 -2 -9 13 -1 17 -6
12 -20 -3 -11 -1 -22 5 -26 6 -4 10 6 10 24 0 46 -10 61 -39 60 -14 0 -19 -3
-11 -6z"/>
<path d="M7411 3129 c-1 -41 14 -59 47 -56 19 1 22 7 21 47 l-2 45 -6 -40 c-5
-31 -10 -40 -26 -40 -16 0 -21 9 -26 40 l-6 40 -2 -36z"/>
<path d="M7603 3143 c-4 -11 1 -22 15 -31 28 -18 28 -29 0 -35 -20 -5 -20 -5
2 -4 32 2 41 36 11 44 -28 7 -27 30 2 36 l22 4 -23 2 c-13 0 -25 -6 -29 -16z"/>
<path d="M7683 3153 c9 -2 23 -2 30 0 6 3 -1 5 -18 5 -16 0 -22 -2 -12 -5z"/>
<path d="M7768 3153 c23 -5 31 -23 9 -23 -24 0 -48 -25 -41 -43 4 -12 16 -16
36 -15 27 2 29 4 26 43 -3 35 -6 40 -28 42 -22 1 -22 1 -2 -4z m22 -48 c0 -21
-28 -31 -43 -16 -9 9 -8 14 3 21 22 14 40 12 40 -5z"/>
<path d="M7842 3148 c-28 -28 -7 -79 33 -77 17 1 16 2 -5 8 -19 5 -25 13 -25
36 0 23 6 31 25 36 21 6 22 7 5 8 -12 1 -26 -4 -33 -11z"/>
<path d="M7944 3137 l-20 -22 31 -25 30 -24 -22 25 -23 25 22 22 c13 12 18 22
12 22 -6 0 -19 -10 -30 -23z"/>
<path d="M8126 3152 c-2 -4 8 -8 22 -7 23 0 27 -4 27 -30 0 -25 -4 -30 -25
-30 -17 0 -26 7 -32 25 -7 25 -7 25 -5 1 3 -32 31 -50 55 -35 21 14 28 64 10
75 -17 11 -45 11 -52 1z"/>
<path d="M8272 3148 c-28 -28 -7 -79 33 -77 17 1 17 2 -4 8 -38 10 -38 31 -1
31 27 0 31 3 28 23 -3 25 -36 35 -56 15z m46 -15 c2 -8 -6 -13 -22 -13 -25 0
-33 10 -19 24 10 10 36 3 41 -11z"/>
<path d="M8423 3153 c-7 -2 -13 -10 -13 -16 0 -8 4 -7 12 1 18 18 46 14 53 -7
13 -41 -24 -68 -53 -39 -8 8 -12 8 -12 1 0 -12 23 -23 46 -23 8 0 19 11 25 24
20 43 -14 77 -58 59z"/>
<path d="M8533 3154 c-7 -3 -13 -10 -13 -16 0 -6 6 -6 15 2 21 18 45 5 45 -25
0 -17 -7 -29 -22 -35 -16 -6 -18 -9 -7 -9 24 -1 41 24 37 56 -3 28 -26 39 -55
27z"/>
<path d="M8633 3153 c-7 -2 -13 -9 -13 -15 0 -6 6 -6 15 2 8 7 22 10 30 6 27
-10 16 -25 -22 -29 l-38 -4 43 -1 c43 -2 55 11 30 36 -13 13 -24 14 -45 5z"/>
<path d="M8733 3153 c-7 -2 -13 -9 -13 -14 0 -5 9 -4 20 3 25 16 39 0 41 -47
2 -30 2 -30 6 -3 7 48 -18 76 -54 61z"/>
<path d="M8817 3153 c-14 -13 -6 -30 20 -42 27 -13 23 -25 -12 -34 -19 -4 -19
-5 1 -6 12 0 27 5 33 13 10 12 7 18 -13 31 -32 21 -33 32 -3 38 20 4 20 4 1 6
-11 0 -24 -2 -27 -6z"/>
<path d="M8940 3115 c0 -27 2 -46 4 -44 8 8 10 78 3 85 -4 4 -7 -14 -7 -41z"/>
<path d="M8982 3154 c11 -4 18 -19 21 -45 l4 -39 -1 42 c-1 35 -5 43 -21 45
-15 1 -15 0 -3 -3z"/>
<path d="M9052 3148 c-28 -28 -7 -79 33 -77 17 1 17 2 -4 8 -38 10 -38 31 -1
31 27 0 31 3 28 23 -3 25 -36 35 -56 15z m46 -15 c2 -8 -6 -13 -22 -13 -25 0
-33 10 -19 24 10 10 36 3 41 -11z"/>
<path d="M9131 3144 c0 -11 3 -14 6 -6 3 7 2 16 -1 19 -3 4 -6 -2 -5 -13z"/>
<path d="M9177 3138 c-4 -12 -4 -24 -2 -27 3 -2 5 1 5 8 0 7 5 9 10 6 6 -3 10
1 10 9 0 25 -17 27 -23 4z"/>
<path d="M9326 3152 c-2 -4 8 -8 22 -7 23 0 27 -4 27 -30 0 -25 -4 -30 -25
-30 -17 0 -26 7 -32 25 -7 25 -7 25 -5 1 3 -32 31 -50 55 -35 21 14 28 64 10
75 -17 11 -45 11 -52 1z"/>
<path d="M9421 3094 c1 -38 4 -57 6 -43 3 21 9 26 24 22 10 -3 26 0 34 7 29
24 12 81 -24 79 -10 0 -7 -4 7 -10 18 -7 23 -15 20 -36 -2 -22 -8 -28 -28 -28
-21 0 -25 5 -26 32 0 18 -3 36 -7 39 -4 4 -6 -24 -6 -62z"/>
<path d="M9531 3094 c1 -38 4 -57 6 -43 3 21 8 25 28 21 19 -3 27 2 37 23 14
31 2 59 -28 62 -15 2 -14 1 4 -7 36 -15 24 -76 -14 -68 -14 2 -19 12 -20 35 0
18 -3 36 -7 39 -4 4 -6 -24 -6 -62z"/>
<path d="M9640 3146 c-28 -35 11 -93 48 -70 35 22 22 84 -18 84 -10 0 -23 -7
-30 -14z m55 -31 c0 -25 -4 -30 -25 -30 -16 0 -26 6 -28 18 -6 30 6 49 30 45
18 -2 23 -9 23 -33z"/>
<path d="M9742 3110 c1 -40 2 -41 5 -10 2 19 11 40 20 47 13 10 13 12 -6 10
-18 -1 -21 -7 -19 -47z"/>
<path d="M9861 3129 c-1 -41 14 -59 47 -56 19 1 22 7 21 47 l-2 45 -6 -40 c-5
-31 -10 -40 -26 -40 -16 0 -21 9 -26 40 l-6 40 -2 -36z"/>
<path d="M9983 3153 c-7 -2 -13 -9 -13 -14 0 -5 9 -4 20 3 25 16 39 0 41 -47
2 -30 2 -30 6 -3 7 48 -18 76 -54 61z"/>
<path d="M10073 3115 c0 -27 2 -38 4 -22 2 15 2 37 0 50 -2 12 -4 0 -4 -28z"/>
<path d="M10173 3115 c0 -27 2 -38 4 -22 2 15 2 37 0 50 -2 12 -4 0 -4 -28z"/>
<path d="M10222 3148 c-28 -28 -7 -79 33 -77 17 1 17 2 -4 8 -38 10 -38 31 -1
31 27 0 31 3 28 23 -3 25 -36 35 -56 15z m46 -15 c2 -8 -6 -13 -22 -13 -25 0
-33 10 -19 24 10 10 36 3 41 -11z"/>
<path d="M10316 3151 c-3 -4 6 -6 19 -3 14 2 25 6 25 8 0 8 -39 4 -44 -5z"/>
<path d="M3771 3134 c0 -11 3 -14 6 -6 3 7 2 16 -1 19 -3 4 -6 -2 -5 -13z"/>
<path d="M8061 3134 c0 -11 3 -14 6 -6 3 7 2 16 -1 19 -3 4 -6 -2 -5 -13z"/>
<path d="M9225 3119 c-5 -23 -10 -28 -16 -18 -7 11 -9 11 -9 -3 0 -32 19 -28
30 8 7 19 10 38 7 40 -3 3 -8 -9 -12 -27z"/>
<path d="M10328 3114 c12 -9 22 -20 22 -25 0 -4 -10 -10 -22 -12 -20 -5 -20
-5 2 -4 17 1 25 8 25 21 0 11 -10 22 -25 27 l-25 9 23 -16z"/>
<path d="M3824 3105 c-8 -19 4 -35 24 -34 14 1 14 2 -1 6 -13 3 -17 11 -14 24
6 22 -1 26 -9 4z"/>
<path d="M7214 3105 c-8 -19 4 -35 24 -34 14 1 14 2 -1 6 -13 3 -17 11 -14 24
6 22 -1 26 -9 4z"/>
<path d="M9141 3113 c-2 -20 11 -43 20 -37 5 3 9 10 9 15 0 6 -4 8 -9 4 -5 -3
-12 3 -14 12 -3 10 -5 13 -6 6z"/>
<path d="M5380 3090 c0 -9 39 -25 45 -18 2 2 -7 8 -21 15 -13 6 -24 7 -24 3z"/>
<path d="M6012 3090 c2 -8 18 -16 34 -17 18 -1 22 0 9 4 -11 3 -26 10 -34 17
-11 9 -13 8 -9 -4z"/>
<path d="M6192 3090 c2 -8 18 -16 34 -17 18 -1 22 0 9 4 -11 3 -26 10 -34 17
-11 9 -13 8 -9 -4z"/>
<path d="M8622 3090 c2 -8 18 -16 34 -17 18 -1 22 0 9 4 -11 3 -26 10 -34 17
-11 9 -13 8 -9 -4z"/>
<path d="M7690 3080 c0 -6 7 -10 15 -10 8 0 15 2 15 4 0 2 -7 6 -15 10 -8 3
-15 1 -15 -4z"/>
<path d="M3691 2824 l-1 -71 28 2 c15 1 31 3 35 3 5 1 7 19 5 40 -3 32 -6 37
-28 37 -20 0 -26 6 -31 30 -4 20 -7 6 -8 -41z m54 -29 c0 -23 -4 -30 -20 -30
-21 0 -31 25 -21 51 11 28 41 12 41 -21z"/>
<path d="M4800 2820 c0 -40 2 -71 6 -68 7 8 7 128 0 136 -3 3 -6 -28 -6 -68z"/>
<path d="M5970 2875 c-8 -9 -12 -38 -11 -67 2 -62 11 -78 11 -20 0 23 5 42 13
45 10 4 10 6 0 6 -19 1 -16 28 5 40 9 6 12 11 6 11 -6 0 -17 -7 -24 -15z"/>
<path d="M6153 2820 c0 -54 2 -64 6 -35 5 31 10 40 26 40 16 0 21 -9 26 -40
l6 -40 2 36 c1 39 -19 65 -43 56 -11 -4 -16 3 -19 26 -2 18 -4 -2 -4 -43z"/>
<path d="M6343 2820 c0 -41 2 -58 4 -37 2 20 2 54 0 75 -2 20 -4 3 -4 -38z"/>
<path d="M6393 2820 c0 -41 2 -58 4 -37 2 20 2 54 0 75 -2 20 -4 3 -4 -38z"/>
<path d="M8120 2861 c0 -24 -3 -28 -20 -24 -11 3 -27 0 -35 -7 -29 -24 -12
-81 25 -79 9 0 6 4 -8 10 -18 7 -23 15 -20 36 2 22 8 28 28 28 21 0 25 -5 25
-32 0 -17 3 -35 8 -39 4 -4 7 25 7 64 0 40 -2 72 -5 72 -3 0 -5 -13 -5 -29z"/>
<path d="M6992 2873 c13 -3 18 -18 21 -66 l3 -62 2 62 c2 55 4 62 25 66 12 2
2 4 -23 4 -25 1 -37 -1 -28 -4z"/>
<path d="M3901 2858 c-1 -10 -7 -18 -13 -18 -10 0 -10 -2 -1 -8 6 -4 13 -23
15 -41 2 -19 9 -36 16 -37 7 -1 8 0 2 3 -15 7 -13 73 3 73 8 0 9 3 1 8 -6 4
-14 14 -17 22 -4 12 -6 11 -6 -2z"/>
<path d="M4751 2858 c-1 -9 -7 -19 -13 -21 -10 -4 -10 -6 0 -6 7 -1 12 -16 12
-41 0 -32 4 -40 18 -39 10 0 12 3 5 6 -7 2 -13 20 -13 39 0 20 5 34 13 34 8 0
9 3 1 8 -6 4 -14 14 -17 22 -4 12 -6 12 -6 -2z"/>
<path d="M4999 2855 c-7 -32 5 -98 19 -101 7 -1 8 0 2 3 -15 7 -13 73 3 73 8
0 9 3 1 8 -6 4 -13 14 -16 22 -3 11 -6 9 -9 -5z"/>
<path d="M5751 2858 c-1 -9 -7 -19 -13 -21 -10 -4 -10 -6 0 -6 7 -1 12 -16 12
-41 0 -32 4 -40 18 -39 10 0 12 3 5 6 -7 2 -13 20 -13 39 0 20 5 34 13 34 8 0
9 3 1 8 -6 4 -14 14 -17 22 -4 12 -6 12 -6 -2z"/>
<path d="M3794 2800 c1 -44 2 -45 34 -46 32 -1 32 -1 31 45 l-2 46 -6 -40 c-5
-31 -10 -40 -26 -40 -16 0 -21 9 -26 40 l-7 40 2 -45z"/>
<path d="M4012 2828 c-28 -28 -7 -79 33 -77 17 1 16 2 -5 8 -19 5 -25 13 -25
36 0 23 6 31 25 36 21 6 22 7 5 8 -12 1 -26 -4 -33 -11z"/>
<path d="M4096 2832 c-2 -4 8 -8 22 -7 23 0 27 -4 27 -30 0 -25 -4 -30 -25
-30 -17 0 -26 7 -32 25 -7 25 -7 25 -5 1 3 -32 31 -50 55 -35 21 14 28 64 10
75 -17 11 -45 11 -52 1z"/>
<path d="M4233 2829 c11 -6 18 -24 18 -47 l2 -37 6 40 c5 31 10 40 26 40 16 0
21 -9 26 -40 l6 -40 2 36 c1 44 -12 56 -64 56 -30 1 -35 -1 -22 -8z"/>
<path d="M4363 2833 c-7 -2 -13 -9 -13 -15 0 -6 6 -6 15 2 8 7 22 10 30 6 27
-10 16 -25 -22 -29 l-38 -4 43 -1 c43 -2 55 11 30 36 -13 13 -24 14 -45 5z"/>
<path d="M4443 2823 c-4 -11 1 -22 15 -31 28 -18 28 -29 0 -35 -20 -5 -20 -5
2 -4 32 2 41 36 11 44 -28 7 -27 30 2 36 l22 4 -23 2 c-13 0 -25 -6 -29 -16z"/>
<path d="M4564 2825 c3 -11 8 -32 12 -47 3 -16 10 -28 14 -28 9 0 21 42 15 49
-3 2 -5 -1 -5 -7 0 -7 -4 -12 -10 -12 -5 0 -10 8 -10 18 0 9 -5 24 -11 32 -8
12 -9 11 -5 -5z"/>
<path d="M4610 2825 c0 -8 5 -15 10 -15 6 0 10 7 10 15 0 8 -4 15 -10 15 -5 0
-10 -7 -10 -15z"/>
<path d="M4703 2795 c0 -27 2 -38 4 -22 2 15 2 37 0 50 -2 12 -4 0 -4 -28z"/>
<path d="M4842 2834 c11 -4 18 -19 21 -45 l4 -39 -1 42 c-1 35 -5 43 -21 45
-15 1 -15 0 -3 -3z"/>
<path d="M4963 2795 c0 -27 2 -38 4 -22 2 15 2 37 0 50 -2 12 -4 0 -4 -28z"/>
<path d="M5066 2831 c-3 -4 6 -6 19 -3 14 2 25 6 25 8 0 8 -39 4 -44 -5z"/>
<path d="M5190 2826 c-28 -35 11 -93 48 -70 35 22 22 84 -18 84 -10 0 -23 -7
-30 -14z m55 -31 c0 -25 -4 -30 -25 -30 -16 0 -26 6 -28 18 -6 30 6 49 30 45
18 -2 23 -9 23 -33z"/>
<path d="M5284 2825 c3 -11 8 -32 12 -47 3 -16 10 -28 14 -28 9 0 21 42 15 49
-3 2 -5 -1 -5 -7 0 -7 -4 -12 -10 -12 -5 0 -10 8 -10 18 0 9 -5 24 -11 32 -8
12 -9 11 -5 -5z"/>
<path d="M5330 2825 c0 -8 5 -15 10 -15 6 0 10 7 10 15 0 8 -4 15 -10 15 -5 0
-10 -7 -10 -15z"/>
<path d="M5420 2795 c0 -27 2 -46 4 -44 8 8 10 78 3 85 -4 4 -7 -14 -7 -41z"/>
<path d="M5462 2828 c9 -7 19 -29 21 -48 3 -26 4 -24 3 10 -1 36 -5 45 -21 48
-18 4 -19 3 -3 -10z"/>
<path d="M5573 2823 c-4 -11 1 -22 15 -31 28 -18 28 -29 0 -35 -20 -5 -20 -5
2 -4 32 2 41 36 11 44 -28 7 -27 30 2 36 l22 4 -23 2 c-13 0 -25 -6 -29 -16z"/>
<path d="M5648 2815 c-15 -33 -1 -59 33 -62 l24 -2 -24 7 c-38 11 -38 32 -1
32 27 0 31 3 28 23 -5 34 -45 35 -60 2z m52 0 c0 -9 -9 -15 -25 -15 -18 0 -23
4 -19 15 4 8 15 15 25 15 10 0 19 -7 19 -15z"/>
<path d="M5860 2826 c-28 -35 11 -93 48 -70 35 22 22 84 -18 84 -10 0 -23 -7
-30 -14z m55 -31 c0 -25 -4 -30 -25 -30 -16 0 -26 6 -28 18 -6 30 6 49 30 45
18 -2 23 -9 23 -33z"/>
<path d="M6072 2828 c-28 -28 -7 -79 33 -77 17 1 16 2 -5 8 -19 5 -25 13 -25
36 0 23 6 31 25 36 21 6 22 7 5 8 -12 1 -26 -4 -33 -11z"/>
<path d="M6260 2833 c46 -15 46 -15 25 -23 -18 -8 -18 -9 -2 -9 13 -1 17 -6
12 -20 -3 -11 -1 -22 5 -26 6 -4 10 6 10 24 0 46 -10 61 -39 60 -14 0 -19 -3
-11 -6z"/>
<path d="M6428 2815 c-15 -33 -1 -59 33 -62 l24 -2 -24 7 c-38 11 -38 32 -1
32 27 0 31 3 28 23 -5 34 -45 35 -60 2z m52 0 c0 -9 -9 -15 -25 -15 -18 0 -23
4 -19 15 4 8 15 15 25 15 10 0 19 -7 19 -15z"/>
<path d="M6520 2795 c0 -27 2 -46 4 -44 8 8 10 78 3 85 -4 4 -7 -14 -7 -41z"/>
<path d="M6562 2834 c11 -4 18 -19 21 -45 l4 -39 -1 42 c-1 35 -5 43 -21 45
-15 1 -15 0 -3 -3z"/>
<path d="M6630 2825 c-6 -7 -10 -26 -8 -42 2 -23 8 -28 31 -28 38 1 32 -28 -8
-36 -28 -6 -28 -7 -4 -8 37 -2 49 17 49 74 0 46 -2 51 -24 53 -13 1 -29 -5
-36 -13z m45 -30 c0 -23 -4 -30 -20 -30 -21 0 -31 25 -21 51 11 28 41 12 41
-21z"/>
<path d="M6743 2833 c-7 -2 -13 -9 -13 -15 0 -6 6 -6 15 2 8 7 22 10 30 6 27
-10 16 -25 -22 -29 l-38 -4 43 -1 c43 -2 55 11 30 36 -13 13 -24 14 -45 5z"/>
<path d="M6823 2823 c-4 -11 1 -22 15 -31 28 -18 28 -29 0 -35 -20 -5 -20 -5
2 -4 32 2 41 36 11 44 -28 7 -27 30 2 36 l22 4 -23 2 c-13 0 -25 -6 -29 -16z"/>
<path d="M7070 2826 c-28 -35 11 -93 48 -70 35 22 22 84 -18 84 -10 0 -23 -7
-30 -14z m55 -31 c0 -25 -4 -30 -25 -30 -16 0 -26 6 -28 18 -6 30 6 49 30 45
18 -2 23 -9 23 -33z"/>
<path d="M7171 2774 c1 -38 4 -57 6 -43 3 21 8 25 28 21 19 -3 27 2 37 23 14
31 2 59 -28 62 -15 2 -14 1 4 -7 36 -15 24 -76 -14 -68 -14 2 -19 12 -20 35 0
18 -3 36 -7 39 -4 4 -6 -24 -6 -62z"/>
<path d="M7283 2795 c0 -27 2 -38 4 -22 2 15 2 37 0 50 -2 12 -4 0 -4 -28z"/>
<path d="M7333 2828 c-19 -25 -24 -43 -6 -21 10 11 27 23 38 26 19 4 19 5 -1
6 -12 0 -26 -5 -31 -11z"/>
<path d="M7403 2823 c-4 -11 1 -22 15 -31 28 -18 28 -29 0 -35 -20 -5 -20 -5
2 -4 32 2 41 36 11 44 -28 7 -27 30 2 36 l22 4 -23 2 c-13 0 -25 -6 -29 -16z"/>
<path d="M7543 2828 c-19 -25 -24 -43 -6 -21 10 11 27 23 38 26 19 4 19 5 -1
6 -12 0 -26 -5 -31 -11z"/>
<path d="M7620 2826 c-28 -35 11 -93 48 -70 35 22 22 84 -18 84 -10 0 -23 -7
-30 -14z m55 -31 c0 -25 -4 -30 -25 -30 -16 0 -26 6 -28 18 -6 30 6 49 30 45
18 -2 23 -9 23 -33z"/>
<path d="M7711 2832 c-1 -7 6 -29 15 -50 l15 -37 13 25 c8 14 16 36 20 50 3
14 -3 7 -13 -15 -21 -44 -17 -46 -44 25 -3 10 -6 11 -6 2z"/>
<path d="M7812 2828 c-7 -7 -12 -24 -12 -39 0 -27 16 -40 48 -38 10 1 7 4 -7
8 -37 10 -38 31 -2 31 19 0 31 5 31 13 0 16 -20 37 -35 37 -6 0 -16 -5 -23
-12z m46 -15 c2 -8 -6 -13 -22 -13 -25 0 -33 10 -19 24 10 10 36 3 41 -11z"/>
<path d="M7902 2790 c1 -40 2 -41 5 -10 2 19 11 40 20 47 13 10 13 12 -6 10
-18 -1 -21 -7 -19 -47z"/>
<path d="M7973 2833 c-7 -2 -13 -9 -13 -15 0 -6 6 -6 15 2 8 7 22 10 30 6 27
-10 16 -25 -22 -29 l-38 -4 43 -1 c43 -2 55 11 30 36 -13 13 -24 14 -45 5z"/>
<path d="M4656 2795 c-8 -27 -9 -28 -16 -10 -6 13 -9 15 -9 5 0 -8 3 -22 9
-30 7 -11 11 -9 20 14 6 16 9 34 7 40 -2 6 -7 -3 -11 -19z"/>
<path d="M5376 2795 c-8 -27 -9 -28 -16 -10 -6 13 -9 15 -9 5 0 -8 3 -22 9
-30 7 -11 11 -9 20 14 6 16 9 34 7 40 -2 6 -7 -3 -11 -19z"/>
<path d="M5078 2794 c12 -9 22 -20 22 -25 0 -4 -10 -10 -22 -12 -20 -5 -20 -5
2 -4 17 1 25 8 25 21 0 11 -10 22 -25 27 l-25 9 23 -16z"/>
<path d="M6244 2785 c-8 -19 4 -35 24 -34 14 1 14 2 -1 6 -13 3 -17 11 -14 24
6 22 -1 26 -9 4z"/>
<path d="M4352 2770 c2 -8 18 -16 34 -17 18 -1 22 0 9 4 -11 3 -26 10 -34 17
-11 9 -13 8 -9 -4z"/>
<path d="M6732 2770 c2 -8 18 -16 34 -17 18 -1 22 0 9 4 -11 3 -26 10 -34 17
-11 9 -13 8 -9 -4z"/>
<path d="M7320 2770 c0 -9 39 -25 45 -18 2 2 -7 8 -21 15 -13 6 -24 7 -24 3z"/>
<path d="M7530 2770 c0 -9 39 -25 45 -18 2 2 -7 8 -21 15 -13 6 -24 7 -24 3z"/>
<path d="M7962 2770 c2 -8 18 -16 34 -17 18 -1 22 0 9 4 -11 3 -26 10 -34 17
-11 9 -13 8 -9 -4z"/>
<path d="M5080 2299 c0 -18 -4 -28 -10 -24 -14 9 -50 -4 -50 -17 0 -6 6 -6 15
2 21 18 45 5 45 -25 0 -31 -24 -43 -47 -24 -14 12 -16 12 -11 -1 3 -9 18 -15
36 -16 l32 -1 0 69 c0 37 -2 68 -5 68 -3 0 -5 -14 -5 -31z"/>
<path d="M5240 2301 c0 -24 -3 -28 -20 -24 -11 3 -27 0 -35 -7 -29 -24 -12
-81 25 -79 9 0 6 4 -8 10 -18 7 -23 15 -20 36 2 22 8 28 28 28 21 0 25 -5 25
-32 0 -17 3 -35 8 -39 4 -4 7 25 7 64 0 40 -2 72 -5 72 -3 0 -5 -13 -5 -29z"/>
<path d="M5563 2260 c0 -41 2 -58 4 -37 2 20 2 54 0 75 -2 20 -4 3 -4 -38z"/>
<path d="M6170 2260 c0 -40 2 -71 6 -68 7 8 7 128 0 136 -3 3 -6 -28 -6 -68z"/>
<path d="M6483 2260 c0 -41 2 -58 4 -37 2 20 2 54 0 75 -2 20 -4 3 -4 -38z"/>
<path d="M6580 2301 c0 -23 -4 -28 -18 -24 -25 6 -44 -20 -40 -54 3 -24 8 -28
36 -29 l32 -1 0 69 c0 37 -2 68 -5 68 -3 0 -5 -13 -5 -29z m-5 -66 c0 -23 -4
-30 -20 -30 -21 0 -31 25 -21 51 11 28 41 12 41 -21z"/>
<path d="M6683 2260 c0 -41 2 -58 4 -37 2 20 2 54 0 75 -2 20 -4 3 -4 -38z"/>
<path d="M7137 2323 c-4 -3 -7 -15 -7 -25 0 -10 -6 -18 -12 -18 -10 0 -10 -2
-1 -8 6 -4 13 -25 16 -47 l4 -40 1 42 c1 23 8 44 15 46 10 4 10 6 0 6 -7 1
-13 10 -13 20 0 11 6 22 13 24 6 3 7 6 1 6 -6 1 -14 -2 -17 -6z"/>
<path d="M7760 2301 c0 -23 -4 -28 -18 -24 -25 6 -44 -20 -40 -54 3 -24 8 -28
36 -29 l32 -1 0 69 c0 37 -2 68 -5 68 -3 0 -5 -13 -5 -29z m-5 -66 c0 -23 -4
-30 -20 -30 -21 0 -31 25 -21 51 11 28 41 12 41 -21z"/>
<path d="M7877 2323 c-4 -3 -7 -15 -7 -25 0 -10 -6 -18 -12 -18 -10 0 -10 -2
-1 -8 6 -4 13 -25 16 -47 l4 -40 1 42 c1 23 8 44 15 46 10 4 10 6 0 6 -7 1
-13 10 -13 20 0 11 6 22 13 24 6 3 7 6 1 6 -6 1 -14 -2 -17 -6z"/>
<path d="M8623 2260 c-1 -41 2 -64 6 -52 l6 24 19 -21 c11 -12 24 -21 29 -21
5 0 -2 10 -17 21 l-27 21 23 27 23 26 -27 -24 -27 -23 -4 48 c-2 34 -4 26 -4
-26z"/>
<path d="M8833 2260 c0 -41 2 -58 4 -37 2 20 2 54 0 75 -2 20 -4 3 -4 -38z"/>
<path d="M8923 2260 c-1 -41 2 -64 6 -52 l6 24 19 -21 c11 -12 24 -21 29 -21
6 0 0 12 -14 26 l-24 26 24 19 c13 10 19 19 14 19 -6 0 -18 -10 -29 -21 l-19
-21 -6 48 c-5 43 -6 39 -6 -26z"/>
<path d="M4041 2312 c-2 -24 30 -122 40 -122 5 0 9 6 9 13 0 6 3 23 5 37 l6
25 -12 -25 c-11 -24 -12 -23 -29 30 -10 30 -18 49 -19 42z"/>
<path d="M4107 2306 c-10 -26 -9 -44 2 -27 7 11 12 4 20 -25 6 -21 11 -45 11
-51 0 -7 4 -13 9 -13 9 0 45 119 38 126 -3 3 -10 -18 -17 -45 -11 -48 -29 -61
-30 -23 -1 9 -7 30 -14 47 -10 25 -13 27 -19 11z"/>
<path d="M7449 2295 c-7 -32 5 -98 19 -101 7 -1 8 0 2 3 -15 7 -13 73 3 73 8
0 9 3 1 8 -6 4 -13 14 -16 22 -3 11 -6 9 -9 -5z"/>
<path d="M4233 2273 c-7 -2 -13 -9 -13 -14 0 -5 9 -4 20 3 25 16 39 0 41 -47
2 -30 2 -30 6 -3 7 48 -18 76 -54 61z"/>
<path d="M4311 2270 c0 -8 4 -22 9 -30 12 -18 12 -2 0 25 -6 13 -9 15 -9 5z"/>
<path d="M4360 2246 c-6 -20 -16 -33 -22 -30 -6 4 -8 -1 -4 -14 4 -13 0 -26
-11 -38 -12 -12 -13 -16 -3 -12 14 4 65 116 56 125 -2 2 -9 -12 -16 -31z"/>
<path d="M4473 2274 c-7 -3 -13 -10 -13 -16 0 -6 6 -6 15 2 21 18 45 5 45 -25
0 -17 -7 -29 -22 -35 -16 -6 -18 -9 -7 -9 24 -1 41 24 37 56 -3 28 -26 39 -55
27z"/>
<path d="M4588 2273 c23 -5 31 -23 9 -23 -24 0 -48 -25 -41 -43 4 -12 16 -16
36 -15 27 2 29 4 26 43 -3 35 -6 40 -28 42 -22 1 -22 1 -2 -4z m22 -48 c0 -21
-28 -31 -43 -16 -9 9 -8 14 3 21 22 14 40 12 40 -5z"/>
<path d="M4663 2268 c-19 -25 -24 -43 -6 -21 10 11 27 23 38 26 19 4 19 5 -1
6 -12 0 -26 -5 -31 -11z"/>
<path d="M4764 2257 l-20 -22 31 -25 30 -24 -22 25 -23 25 22 22 c13 12 18 22
12 22 -6 0 -19 -10 -30 -23z"/>
<path d="M4832 2268 c-28 -28 -7 -79 33 -77 17 1 17 2 -4 8 -38 10 -38 31 -1
31 27 0 31 3 28 23 -3 25 -36 35 -56 15z m46 -15 c2 -8 -6 -13 -22 -13 -25 0
-33 10 -19 24 10 10 36 3 41 -11z"/>
<path d="M4921 2230 l2 -45 6 40 c5 31 10 40 26 40 16 0 21 -9 26 -40 l6 -40
2 36 c1 41 -14 59 -47 56 -19 -1 -22 -7 -21 -47z"/>
<path d="M5293 2273 c-7 -2 -13 -9 -13 -15 0 -6 6 -6 15 2 8 7 22 10 30 6 27
-10 16 -25 -22 -29 l-38 -4 43 -1 c43 -2 55 11 30 36 -13 13 -24 14 -45 5z"/>
<path d="M5379 2235 c9 -25 19 -45 22 -45 4 0 12 12 17 28 21 57 22 66 3 28
l-19 -40 -16 37 c-21 52 -27 46 -7 -8z"/>
<path d="M5472 2268 c-7 -7 -12 -24 -12 -39 0 -27 16 -40 48 -38 10 1 7 4 -7
8 -37 10 -38 31 -2 31 19 0 31 5 31 13 0 16 -20 37 -35 37 -6 0 -16 -5 -23
-12z m46 -15 c2 -8 -6 -13 -22 -13 -25 0 -33 10 -19 24 10 10 36 3 41 -11z"/>
<path d="M5613 2273 c-7 -2 -13 -10 -13 -16 0 -8 4 -7 12 1 18 18 46 14 53 -7
13 -41 -24 -68 -53 -39 -8 8 -12 8 -12 1 0 -12 23 -23 46 -23 8 0 19 11 25 24
20 43 -14 77 -58 59z"/>
<path d="M5723 2274 c-7 -3 -13 -10 -13 -16 0 -6 6 -6 15 2 21 18 45 5 45 -25
0 -17 -7 -29 -22 -35 -16 -6 -18 -9 -7 -9 24 -1 41 24 37 56 -3 28 -26 39 -55
27z"/>
<path d="M5823 2273 c-7 -2 -13 -9 -13 -15 0 -6 6 -6 15 2 8 7 22 10 30 6 27
-10 16 -25 -22 -29 l-38 -4 43 -1 c43 -2 55 11 30 36 -13 13 -24 14 -45 5z"/>
<path d="M5967 2273 c-14 -13 -6 -30 20 -42 27 -13 23 -25 -12 -34 -19 -4 -19
-5 1 -6 12 0 27 5 33 13 10 12 7 18 -13 31 -32 21 -33 32 -3 38 20 4 20 4 1 6
-11 0 -24 -2 -27 -6z"/>
<path d="M6093 2263 c-4 -11 1 -22 15 -31 28 -18 28 -29 0 -35 -20 -5 -20 -5
2 -4 32 2 41 36 11 44 -28 7 -27 30 2 36 l22 4 -23 2 c-13 0 -25 -6 -29 -16z"/>
<path d="M6212 2268 c9 -7 19 -29 21 -48 3 -26 4 -24 3 10 -1 36 -5 45 -21 48
-18 4 -19 3 -3 -10z"/>
<path d="M6283 2273 c-7 -2 -13 -10 -13 -16 0 -8 4 -7 12 1 18 18 46 14 53 -7
13 -41 -24 -68 -53 -39 -8 8 -12 8 -12 1 0 -12 23 -23 46 -23 8 0 19 11 25 24
20 43 -14 77 -58 59z"/>
<path d="M6372 2255 c0 -16 2 -22 5 -12 2 9 2 23 0 30 -3 6 -5 -1 -5 -18z"/>
<path d="M6437 2243 c-2 -21 0 -42 4 -47 5 -6 9 10 9 37 0 57 -6 61 -13 10z"/>
<path d="M6733 2273 c-7 -2 -13 -9 -13 -15 0 -6 6 -6 15 2 8 7 22 10 30 6 27
-10 16 -25 -22 -29 l-38 -4 43 -1 c43 -2 55 11 30 36 -13 13 -24 14 -45 5z"/>
<path d="M6820 2276 c0 -2 11 -6 25 -8 13 -3 22 -1 19 3 -5 9 -44 13 -44 5z"/>
<path d="M6912 2230 c1 -40 2 -41 5 -10 2 19 11 40 20 47 13 10 13 12 -6 10
-18 -1 -21 -7 -19 -47z"/>
<path d="M6970 2235 c0 -27 2 -46 4 -44 8 8 10 78 3 85 -4 4 -7 -14 -7 -41z"/>
<path d="M7012 2268 c9 -7 19 -29 21 -48 3 -26 4 -24 3 10 -1 36 -5 45 -21 48
-18 4 -19 3 -3 -10z"/>
<path d="M7182 2230 c1 -40 2 -41 5 -10 2 19 11 40 20 47 13 10 13 12 -6 10
-18 -1 -21 -7 -19 -47z"/>
<path d="M7253 2273 c-7 -2 -13 -10 -13 -16 0 -8 4 -7 12 1 18 18 46 14 53 -7
13 -41 -24 -68 -53 -39 -8 8 -12 8 -12 1 0 -12 23 -23 46 -23 8 0 19 11 25 24
20 43 -14 77 -58 59z"/>
<path d="M7363 2273 c-7 -2 -13 -9 -13 -14 0 -5 9 -4 20 3 25 16 39 0 41 -47
2 -30 2 -30 6 -3 7 48 -18 76 -54 61z"/>
<path d="M7508 2255 c-15 -33 -1 -59 33 -62 l24 -2 -24 7 c-38 11 -38 32 -1
32 27 0 31 3 28 23 -5 34 -45 35 -60 2z m52 0 c0 -9 -9 -15 -25 -15 -18 0 -23
4 -19 15 4 8 15 15 25 15 10 0 19 -7 19 -15z"/>
<path d="M7600 2235 c0 -27 2 -46 4 -44 8 8 10 78 3 85 -4 4 -7 -14 -7 -41z"/>
<path d="M7642 2274 c11 -4 18 -19 21 -45 l4 -39 -1 42 c-1 35 -5 43 -21 45
-15 1 -15 0 -3 -3z"/>
<path d="M7990 2273 c46 -15 46 -15 25 -23 -18 -8 -18 -9 -2 -9 13 -1 17 -6
12 -20 -3 -11 -1 -22 5 -26 6 -4 10 6 10 24 0 46 -10 61 -39 60 -14 0 -19 -3
-11 -6z"/>
<path d="M8071 2231 l2 -46 6 40 c7 46 37 62 45 23 3 -13 7 -32 9 -43 3 -11 5
-1 6 23 0 23 -2 43 -6 44 -5 0 -20 2 -35 3 -27 2 -28 0 -27 -44z"/>
<path d="M8162 2274 c11 -4 18 -19 21 -45 l4 -39 -1 42 c-1 35 -5 43 -21 45
-15 1 -15 0 -3 -3z"/>
<path d="M8232 2268 c-28 -28 -7 -79 33 -77 17 1 17 2 -4 8 -38 10 -38 31 -1
31 27 0 31 3 28 23 -3 25 -36 35 -56 15z m46 -15 c2 -8 -6 -13 -22 -13 -25 0
-33 10 -19 24 10 10 36 3 41 -11z"/>
<path d="M8311 2264 c0 -11 3 -14 6 -6 3 7 2 16 -1 19 -3 4 -6 -2 -5 -13z"/>
<path d="M8357 2258 c-4 -12 -4 -24 -2 -27 3 -2 5 1 5 8 0 7 5 9 10 6 6 -3 10
1 10 9 0 25 -17 27 -23 4z"/>
<path d="M8456 2272 c-2 -4 8 -8 22 -7 23 0 27 -4 27 -30 0 -25 -4 -30 -25
-30 -17 0 -26 7 -32 25 -7 25 -7 25 -5 1 3 -32 31 -50 55 -35 21 14 28 64 10
75 -17 11 -45 11 -52 1z"/>
<path d="M8704 2265 c-8 -19 1 -32 28 -38 l23 -6 -22 16 c-13 8 -23 19 -23 24
0 4 10 10 23 12 l22 4 -23 2 c-12 0 -25 -6 -28 -14z"/>
<path d="M8883 2235 c0 -27 2 -38 4 -22 2 15 2 37 0 50 -2 12 -4 0 -4 -28z"/>
<path d="M9008 2255 c-15 -33 -1 -59 33 -62 l24 -2 -24 7 c-38 11 -38 32 -1
32 27 0 31 3 28 23 -5 34 -45 35 -60 2z m52 0 c0 -9 -9 -15 -25 -15 -18 0 -23
4 -19 15 4 8 15 15 25 15 10 0 19 -7 19 -15z"/>
<path d="M5911 2254 c0 -11 3 -14 6 -6 3 7 2 16 -1 19 -3 4 -6 -2 -5 -13z"/>
<path d="M7921 2254 c0 -11 3 -14 6 -6 3 7 2 16 -1 19 -3 4 -6 -2 -5 -13z"/>
<path d="M8405 2239 c-5 -23 -10 -28 -16 -18 -7 11 -9 11 -9 -3 0 -32 19 -28
30 8 7 19 10 38 7 40 -3 3 -8 -9 -12 -27z"/>
<path d="M8561 2254 c0 -11 3 -14 6 -6 3 7 2 16 -1 19 -3 4 -6 -2 -5 -13z"/>
<path d="M6820 2235 c-16 -19 -6 -45 17 -44 17 1 17 2 0 6 -25 7 -17 37 12 41
19 3 22 0 17 -16 -4 -11 -2 -23 4 -27 6 -4 10 6 10 24 0 26 -4 31 -24 31 -13
0 -29 -7 -36 -15z"/>
<path d="M7974 2225 c-8 -19 4 -35 24 -34 14 1 14 2 -1 6 -13 3 -17 11 -14 24
6 22 -1 26 -9 4z"/>
<path d="M8321 2233 c-2 -20 11 -43 20 -37 5 3 9 10 9 15 0 6 -4 8 -9 4 -5 -3
-12 3 -14 12 -3 10 -5 13 -6 6z"/>
<path d="M4650 2210 c0 -9 39 -25 45 -18 2 2 -7 8 -21 15 -13 6 -24 7 -24 3z"/>
<path d="M5282 2210 c2 -8 18 -16 34 -17 18 -1 22 0 9 4 -11 3 -26 10 -34 17
-11 9 -13 8 -9 -4z"/>
<path d="M5812 2210 c2 -8 18 -16 34 -17 18 -1 22 0 9 4 -11 3 -26 10 -34 17
-11 9 -13 8 -9 -4z"/>
<path d="M6383 2210 c2 -8 12 -16 23 -17 13 -2 15 -1 4 4 -8 3 -19 11 -23 17
-6 7 -7 6 -4 -4z"/>
<path d="M6722 2210 c2 -8 18 -16 34 -17 18 -1 22 0 9 4 -11 3 -26 10 -34 17
-11 9 -13 8 -9 -4z"/>
<path d="M8720 2200 c-23 -7 -23 -8 -3 -9 12 -1 25 4 28 9 3 6 5 10 3 9 -2 -1
-14 -5 -28 -9z"/>
<path d="M4330 1861 c0 -23 -4 -28 -18 -24 -25 6 -44 -20 -40 -54 3 -24 8 -28
36 -29 l32 -1 0 69 c0 37 -2 68 -5 68 -3 0 -5 -13 -5 -29z m-5 -66 c0 -23 -4
-30 -20 -30 -21 0 -31 25 -21 51 11 28 41 12 41 -21z"/>
<path d="M4930 1861 c0 -24 -3 -28 -24 -24 -13 3 -26 1 -29 -4 -3 -5 7 -9 21
-8 24 0 27 -4 28 -32 1 -67 14 -43 14 25 0 40 -2 72 -5 72 -3 0 -5 -13 -5 -29z"/>
<path d="M6650 1875 c-8 -9 -12 -38 -11 -67 2 -62 11 -78 11 -20 0 23 5 42 13
45 10 4 10 6 0 6 -19 1 -16 28 5 40 9 6 12 11 6 11 -6 0 -17 -7 -24 -15z"/>
<path d="M8670 1861 c0 -24 -3 -28 -24 -24 -13 3 -26 1 -29 -4 -3 -5 7 -9 21
-8 24 0 27 -4 28 -32 1 -67 14 -43 14 25 0 40 -2 72 -5 72 -3 0 -5 -13 -5 -29z"/>
<path d="M9713 1820 c0 -41 2 -58 4 -37 2 20 2 54 0 75 -2 20 -4 3 -4 -38z"/>
<path d="M4052 1829 c-1 -40 2 -60 13 -69 16 -13 65 -6 65 10 0 6 -8 5 -19 -1
-34 -22 -50 -5 -54 58 l-3 58 -2 -56z"/>
<path d="M4133 1835 c0 -27 2 -38 4 -22 2 15 2 37 0 50 -2 12 -4 0 -4 -28z"/>
<path d="M4621 1858 c-1 -9 -7 -19 -13 -21 -10 -4 -10 -6 0 -6 7 -1 12 -16 12
-41 0 -32 4 -40 18 -39 10 0 12 3 5 6 -7 2 -13 20 -13 39 0 20 5 34 13 34 8 0
9 3 1 8 -6 4 -14 14 -17 22 -4 12 -6 12 -6 -2z"/>
<path d="M5281 1858 c-1 -9 -7 -19 -13 -21 -10 -4 -10 -6 0 -6 7 -1 12 -16 12
-41 0 -32 4 -40 18 -39 10 0 12 3 5 6 -7 2 -13 20 -13 39 0 20 5 34 13 34 8 0
9 3 1 8 -6 4 -14 14 -17 22 -4 12 -6 12 -6 -2z"/>
<path d="M6061 1858 c-1 -9 -7 -19 -13 -21 -10 -4 -10 -6 0 -6 7 -1 12 -16 12
-41 0 -32 4 -40 18 -39 10 0 12 3 5 6 -7 2 -13 20 -13 39 0 20 5 34 13 34 8 0
9 3 1 8 -6 4 -14 14 -17 22 -4 12 -6 12 -6 -2z"/>
<path d="M9971 1858 c-1 -10 -7 -18 -13 -18 -10 0 -10 -2 -1 -8 6 -4 13 -23
15 -41 2 -19 9 -36 16 -37 7 -1 8 0 2 3 -15 7 -13 73 3 73 8 0 9 3 1 8 -6 4
-14 14 -17 22 -4 12 -6 11 -6 -2z"/>
<path d="M4170 1795 c0 -27 2 -46 4 -44 8 8 10 78 3 85 -4 4 -7 -14 -7 -41z"/>
<path d="M4212 1828 c9 -7 19 -29 21 -48 3 -26 4 -24 3 10 -1 36 -5 45 -21 48
-18 4 -19 3 -3 -10z"/>
<path d="M4393 1833 c-7 -2 -13 -9 -13 -15 0 -6 6 -6 15 2 8 7 22 10 30 6 27
-10 16 -25 -22 -29 l-38 -4 43 -1 c43 -2 55 11 30 36 -13 13 -24 14 -45 5z"/>
<path d="M4470 1795 c0 -27 2 -46 4 -44 8 8 10 78 3 85 -4 4 -7 -14 -7 -41z"/>
<path d="M4534 1825 c-8 -19 1 -32 28 -38 l23 -6 -22 16 c-13 8 -23 19 -23 24
0 4 10 10 23 12 l22 4 -23 2 c-12 0 -25 -6 -28 -14z"/>
<path d="M4698 1833 c30 -6 28 -19 -4 -27 -37 -10 -30 -51 9 -52 27 -1 28 1
25 40 -3 36 -6 41 -28 43 -22 1 -22 1 -2 -4z m22 -48 c0 -16 -27 -32 -37 -22
-3 4 -3 13 0 22 8 20 37 20 37 0z"/>
<path d="M4783 1833 c-7 -2 -13 -9 -13 -14 0 -5 9 -4 20 3 25 16 39 0 41 -47
2 -30 2 -30 6 -3 7 48 -18 76 -54 61z"/>
<path d="M4973 1795 c0 -27 2 -38 4 -22 2 15 2 37 0 50 -2 12 -4 0 -4 -28z"/>
<path d="M5033 1833 c-7 -2 -13 -9 -13 -14 0 -5 9 -4 20 3 25 16 39 0 41 -47
2 -30 2 -30 6 -3 7 48 -18 76 -54 61z"/>
<path d="M5126 1832 c-2 -4 8 -8 22 -7 26 0 27 -2 27 -50 0 -47 -2 -50 -30
-56 -28 -6 -28 -7 -4 -8 37 -2 49 17 49 74 0 49 -1 51 -29 53 -16 1 -32 -1
-35 -6z"/>
<path d="M5353 1833 c-7 -2 -13 -9 -13 -14 0 -5 9 -4 20 3 25 16 39 0 41 -47
2 -30 2 -30 6 -3 7 48 -18 76 -54 61z"/>
<path d="M5442 1828 c-28 -28 -7 -79 33 -77 17 1 17 2 -4 8 -38 10 -38 31 -1
31 27 0 31 3 28 23 -3 25 -36 35 -56 15z m46 -15 c2 -8 -6 -13 -22 -13 -25 0
-33 10 -19 24 10 10 36 3 41 -11z"/>
<path d="M5583 1795 c0 -27 2 -38 4 -22 2 15 2 37 0 50 -2 12 -4 0 -4 -28z"/>
<path d="M5620 1795 c0 -27 2 -46 4 -44 8 8 10 78 3 85 -4 4 -7 -14 -7 -41z"/>
<path d="M5663 1829 c11 -6 18 -23 18 -47 l2 -37 6 40 c4 26 12 41 23 43 13 3
18 -6 21 -40 l4 -43 -1 45 -1 45 -45 2 c-33 1 -40 -1 -27 -8z"/>
<path d="M5781 1771 c1 -36 4 -54 6 -38 2 15 9 25 14 22 5 -4 18 -3 30 0 16 5
20 14 17 43 -3 34 -6 37 -35 38 l-33 1 1 -66z m54 24 c0 -23 -4 -30 -20 -30
-21 0 -31 25 -21 51 11 28 41 12 41 -21z"/>
<path d="M5890 1826 c-28 -35 11 -93 48 -70 35 22 22 84 -18 84 -10 0 -23 -7
-30 -14z m55 -31 c0 -25 -4 -30 -25 -30 -16 0 -26 6 -28 18 -6 30 6 49 30 45
18 -2 23 -9 23 -33z"/>
<path d="M5992 1790 c1 -40 2 -41 5 -10 2 19 11 40 20 47 13 10 13 12 -6 10
-18 -1 -21 -7 -19 -47z"/>
<path d="M6138 1833 c30 -6 28 -19 -4 -27 -37 -10 -30 -51 9 -52 27 -1 28 1
25 40 -3 36 -6 41 -28 43 -22 1 -22 1 -2 -4z m22 -48 c0 -16 -27 -32 -37 -22
-3 4 -3 13 0 22 8 20 37 20 37 0z"/>
<path d="M6223 1833 c-7 -2 -13 -9 -13 -14 0 -5 9 -4 20 3 25 16 39 0 41 -47
2 -30 2 -30 6 -3 7 48 -18 76 -54 61z"/>
<path d="M6308 1814 c-15 -32 -1 -58 33 -61 24 -2 24 -2 -1 5 -18 6 -25 15
-25 32 0 16 9 29 25 37 25 13 25 13 2 13 -15 0 -27 -9 -34 -26z"/>
<path d="M6403 1833 c-7 -2 -13 -9 -13 -15 0 -6 6 -6 15 2 8 7 22 10 30 6 27
-10 16 -25 -22 -29 l-38 -4 43 -1 c43 -2 55 11 30 36 -13 13 -24 14 -45 5z"/>
<path d="M6540 1826 c-28 -35 11 -93 48 -70 35 22 22 84 -18 84 -10 0 -23 -7
-30 -14z m55 -31 c0 -25 -4 -30 -25 -30 -16 0 -26 6 -28 18 -6 30 6 49 30 45
18 -2 23 -9 23 -33z"/>
<path d="M6843 1833 c26 -7 15 -27 -16 -31 -18 -2 -27 -9 -26 -20 0 -11 3 -12
6 -4 2 6 13 12 23 12 21 0 44 25 35 40 -3 5 -14 9 -23 9 -15 -1 -15 -2 1 -6z"/>
<path d="M6918 1833 c7 -3 16 -2 19 1 4 3 -2 6 -13 5 -11 0 -14 -3 -6 -6z"/>
<path d="M7090 1836 c0 -2 9 -6 20 -9 11 -3 18 -1 14 4 -5 9 -34 13 -34 5z"/>
<path d="M7200 1836 c0 -2 7 -7 16 -10 8 -3 12 -2 9 4 -6 10 -25 14 -25 6z"/>
<path d="M7288 1833 c7 -3 16 -2 19 1 4 3 -2 6 -13 5 -11 0 -14 -3 -6 -6z"/>
<path d="M7503 1833 c27 -7 14 -28 -16 -28 -15 1 -27 -3 -27 -7 0 -14 47 -9
60 7 14 17 5 35 -18 34 -15 -1 -15 -2 1 -6z"/>
<path d="M7638 1833 c6 -2 18 -2 25 0 6 3 1 5 -13 5 -14 0 -19 -2 -12 -5z"/>
<path d="M7709 1823 c-12 -16 -12 -17 1 -7 8 6 22 14 30 17 13 5 12 6 -1 6 -9
1 -23 -7 -30 -16z"/>
<path d="M7796 1831 c-4 -5 3 -7 14 -4 23 6 26 13 6 13 -8 0 -17 -4 -20 -9z"/>
<path d="M7938 1833 c6 -2 18 -2 25 0 6 3 1 5 -13 5 -14 0 -19 -2 -12 -5z"/>
<path d="M8153 1795 c0 -27 2 -38 4 -22 2 15 2 37 0 50 -2 12 -4 0 -4 -28z"/>
<path d="M8213 1833 c-7 -2 -13 -9 -13 -14 0 -5 9 -4 20 3 25 16 39 0 41 -47
2 -30 2 -30 6 -3 7 48 -18 76 -54 61z"/>
<path d="M8351 1790 l2 -45 6 40 c4 27 12 41 24 43 14 3 17 -4 18 -40 l2 -43
6 40 c5 31 10 40 26 40 16 0 21 -9 26 -40 l6 -40 1 35 c2 50 -7 58 -65 57
l-53 -1 1 -46z"/>
<path d="M8510 1826 c-28 -35 11 -93 48 -70 35 22 22 84 -18 84 -10 0 -23 -7
-30 -14z m55 -31 c0 -25 -4 -30 -25 -30 -16 0 -26 6 -28 18 -6 30 6 49 30 45
18 -2 23 -9 23 -33z"/>
<path d="M8722 1828 c-7 -7 -12 -24 -12 -39 0 -27 16 -40 48 -38 10 1 7 4 -7
8 -37 10 -38 31 -2 31 19 0 31 5 31 13 0 16 -20 37 -35 37 -6 0 -16 -5 -23
-12z m46 -15 c2 -8 -6 -13 -22 -13 -25 0 -33 10 -19 24 10 10 36 3 41 -11z"/>
<path d="M8812 1790 c1 -40 2 -41 5 -10 2 19 11 40 20 47 13 10 13 12 -6 10
-18 -1 -21 -7 -19 -47z"/>
<path d="M8870 1795 c0 -27 2 -46 4 -44 8 8 10 78 3 85 -4 4 -7 -14 -7 -41z"/>
<path d="M8912 1828 c9 -7 19 -29 21 -48 3 -26 4 -24 3 10 -1 36 -5 45 -21 48
-18 4 -19 3 -3 -10z"/>
<path d="M9016 1820 c11 -42 24 -73 29 -68 3 3 -4 25 -15 49 -11 24 -17 33
-14 19z"/>
<path d="M9066 1831 c-5 -8 -4 -16 2 -20 6 -3 14 -19 17 -34 8 -29 25 -37 25
-12 0 8 -4 15 -9 15 -4 0 -12 15 -17 32 -7 24 -12 29 -18 19z"/>
<path d="M9116 1825 c-3 -9 -6 -22 -5 -28 0 -7 5 -1 10 12 5 13 8 26 5 28 -2
2 -6 -3 -10 -12z"/>
<path d="M9162 1828 c-7 -7 -12 -24 -12 -39 0 -27 16 -40 48 -38 10 1 7 4 -7
8 -37 10 -38 31 -2 31 19 0 31 5 31 13 0 16 -20 37 -35 37 -6 0 -16 -5 -23
-12z m46 -15 c2 -8 -6 -13 -22 -13 -25 0 -33 10 -19 24 10 10 36 3 41 -11z"/>
<path d="M9263 1834 c-7 -3 -13 -10 -13 -16 0 -6 6 -6 15 2 21 18 45 5 45 -25
0 -17 -7 -29 -22 -35 -16 -6 -18 -9 -7 -9 24 -1 41 24 37 56 -3 28 -26 39 -55
27z"/>
<path d="M9428 1833 c23 -5 31 -23 9 -23 -24 0 -48 -25 -41 -43 4 -12 16 -16
36 -15 27 2 29 4 26 43 -3 35 -6 40 -28 42 -22 1 -22 1 -2 -4z m22 -48 c0 -21
-28 -31 -43 -16 -9 9 -8 14 3 21 22 14 40 12 40 -5z"/>
<path d="M9491 1774 c1 -38 4 -57 6 -43 3 21 9 26 24 22 10 -3 26 0 34 7 29
24 12 81 -24 79 -10 0 -7 -4 7 -10 18 -7 23 -15 20 -36 -2 -22 -8 -28 -28 -28
-21 0 -25 5 -26 32 0 18 -3 36 -7 39 -4 4 -6 -24 -6 -62z"/>
<path d="M9601 1771 c1 -36 4 -54 6 -38 2 15 9 25 14 22 5 -4 18 -3 30 0 16 5
20 14 17 43 -3 34 -6 37 -35 38 l-33 1 1 -66z m54 24 c0 -23 -4 -30 -20 -30
-21 0 -31 25 -21 51 11 28 41 12 41 -21z"/>
<path d="M9753 1795 c0 -27 2 -38 4 -22 2 15 2 37 0 50 -2 12 -4 0 -4 -28z"/>
<path d="M9802 1828 c-28 -28 -7 -79 33 -77 17 1 16 2 -5 8 -19 5 -25 13 -25
36 0 23 6 31 25 36 21 6 22 7 5 8 -12 1 -26 -4 -33 -11z"/>
<path d="M9880 1836 c0 -2 11 -6 25 -8 13 -3 22 -1 19 3 -5 9 -44 13 -44 5z"/>
<path d="M10033 1795 c0 -27 2 -38 4 -22 2 15 2 37 0 50 -2 12 -4 0 -4 -28z"/>
<path d="M10083 1833 c-7 -2 -13 -10 -13 -16 0 -8 4 -7 12 1 18 18 46 14 53
-7 13 -41 -24 -68 -53 -39 -8 8 -12 8 -12 1 0 -12 23 -23 46 -23 8 0 19 11 25
24 20 43 -14 77 -58 59z"/>
<path d="M10193 1833 c-7 -2 -13 -9 -13 -14 0 -5 9 -4 20 3 25 16 39 0 41 -47
2 -30 2 -30 6 -3 7 48 -18 76 -54 61z"/>
<path d="M10277 1833 c-14 -13 -6 -30 20 -42 27 -13 23 -25 -12 -34 -19 -4
-19 -5 1 -6 12 0 27 5 33 13 10 12 7 18 -13 31 -32 21 -33 32 -3 38 20 4 20 4
1 6 -11 0 -24 -2 -27 -6z"/>
<path d="M6971 1814 c0 -11 3 -14 6 -6 3 7 2 16 -1 19 -3 4 -6 -2 -5 -13z"/>
<path d="M4861 1795 c-1 -25 17 -45 39 -44 10 0 9 3 -5 8 -11 4 -23 19 -26 32
-6 21 -7 21 -8 4z"/>
<path d="M5111 1795 c-1 -25 17 -45 39 -44 10 0 9 3 -5 8 -11 4 -23 19 -26 32
-6 21 -7 21 -8 4z"/>
<path d="M6900 1806 c0 -2 8 -10 18 -17 15 -13 16 -12 3 4 -13 16 -21 21 -21
13z"/>
<path d="M7790 1806 c0 -2 8 -10 18 -17 15 -13 16 -12 3 4 -13 16 -21 21 -21
13z"/>
<path d="M8601 1795 c-1 -25 17 -45 39 -44 10 0 9 3 -5 8 -11 4 -23 19 -26 32
-6 21 -7 21 -8 4z"/>
<path d="M9880 1795 c-16 -19 -6 -45 17 -44 17 1 17 2 0 6 -25 7 -17 37 12 41
19 3 22 0 17 -16 -4 -11 -2 -23 4 -27 6 -4 10 6 10 24 0 26 -4 31 -24 31 -13
0 -29 -7 -36 -15z"/>
<path d="M7270 1796 c0 -2 7 -7 16 -10 8 -3 12 -2 9 4 -6 10 -25 14 -25 6z"/>
<path d="M7708 1793 c6 -2 18 -2 25 0 6 3 1 5 -13 5 -14 0 -19 -2 -12 -5z"/>
<path d="M4382 1770 c2 -8 18 -16 34 -17 18 -1 22 0 9 4 -11 3 -26 10 -34 17
-11 9 -13 8 -9 -4z"/>
<path d="M6392 1770 c2 -8 18 -16 34 -17 18 -1 22 0 9 4 -11 3 -26 10 -34 17
-11 9 -13 8 -9 -4z"/>
<path d="M6960 1768 c0 -12 7 -18 23 -17 15 0 17 2 7 6 -8 3 -18 11 -22 17 -5
7 -8 4 -8 -6z"/>
<path d="M7951 1764 c0 -11 3 -14 6 -6 3 7 2 16 -1 19 -3 4 -6 -2 -5 -13z"/>
<path d="M4550 1760 c-23 -7 -23 -8 -3 -9 12 -1 25 4 28 9 3 6 5 10 3 9 -2 -1
-14 -5 -28 -9z"/>
<path d="M7270 1760 c-23 -7 -23 -8 -3 -9 12 -1 25 4 28 9 3 6 5 10 3 9 -2 -1
-14 -5 -28 -9z"/>
<path d="M7390 1759 c0 -5 5 -7 10 -4 6 3 10 8 10 11 0 2 -4 4 -10 4 -5 0 -10
-5 -10 -11z"/>
<path d="M7607 1759 c7 -7 15 -10 18 -7 3 3 -2 9 -12 12 -14 6 -15 5 -6 -5z"/>
<path d="M7708 1758 c5 -5 16 -8 23 -6 8 3 3 7 -10 11 -17 4 -21 3 -13 -5z"/>
<path d="M7907 1759 c7 -7 15 -10 18 -7 3 3 -2 9 -12 12 -14 6 -15 5 -6 -5z"/>
<path d="M6828 1753 c7 -3 16 -2 19 1 4 3 -2 6 -13 5 -11 0 -14 -3 -6 -6z"/>
<path d="M6898 1753 c7 -3 16 -2 19 1 4 3 -2 6 -13 5 -11 0 -14 -3 -6 -6z"/>
<path d="M7488 1753 c7 -3 16 -2 19 1 4 3 -2 6 -13 5 -11 0 -14 -3 -6 -6z"/>
<path d="M7788 1753 c7 -3 16 -2 19 1 4 3 -2 6 -13 5 -11 0 -14 -3 -6 -6z"/>
<path d="M7908 1713 c7 -3 16 -2 19 1 4 3 -2 6 -13 5 -11 0 -14 -3 -6 -6z"/>
<path d="M4653 1380 c0 -41 2 -58 4 -37 2 20 2 54 0 75 -2 20 -4 3 -4 -38z"/>
<path d="M5080 1421 c0 -24 -3 -28 -20 -24 -11 3 -27 0 -35 -7 -29 -24 -12
-81 25 -79 9 0 6 4 -8 10 -18 7 -23 15 -20 36 2 22 8 28 28 28 21 0 25 -5 25
-32 0 -17 3 -35 8 -39 4 -4 7 25 7 64 0 40 -2 72 -5 72 -3 0 -5 -13 -5 -29z"/>
<path d="M5984 1439 c-7 -13 -7 -120 1 -127 3 -3 5 13 5 36 0 23 5 42 13 45
10 4 10 6 0 6 -20 1 -15 39 5 44 15 4 15 5 0 6 -9 0 -20 -4 -24 -10z"/>
<path d="M6267 1443 c-4 -3 -7 -15 -7 -25 0 -10 -6 -18 -12 -18 -10 0 -10 -2
-1 -8 6 -4 13 -25 16 -47 l4 -40 1 42 c1 23 8 44 15 46 10 4 10 6 0 6 -7 1
-13 10 -13 20 0 11 6 22 13 24 6 3 7 6 1 6 -6 1 -14 -2 -17 -6z"/>
<path d="M6413 1380 c0 -41 2 -58 4 -37 2 20 2 54 0 75 -2 20 -4 3 -4 -38z"/>
<path d="M6453 1380 c0 -41 2 -58 4 -37 2 20 2 54 0 75 -2 20 -4 3 -4 -38z"/>
<path d="M6813 1380 c-1 -41 2 -64 6 -52 l6 24 19 -21 c11 -12 24 -21 29 -21
5 0 -2 10 -17 21 l-27 21 23 27 23 26 -27 -24 -27 -23 -4 48 c-2 34 -4 26 -4
-26z"/>
<path d="M7010 1421 c0 -24 -3 -28 -20 -24 -11 3 -27 0 -35 -7 -29 -24 -12
-81 25 -79 9 0 6 4 -8 10 -18 7 -23 15 -20 36 2 22 8 28 28 28 21 0 25 -5 25
-32 0 -17 3 -35 8 -39 4 -4 7 25 7 64 0 40 -2 72 -5 72 -3 0 -5 -13 -5 -29z"/>
<path d="M7333 1380 c0 -41 2 -58 4 -37 2 20 2 54 0 75 -2 20 -4 3 -4 -38z"/>
<path d="M4053 1375 c0 -49 1 -60 6 -35 l6 35 24 -32 c14 -18 29 -33 35 -33 5
0 -2 13 -17 28 -15 15 -27 32 -27 37 0 5 12 22 27 37 15 15 22 28 16 28 -7 0
-22 -15 -35 -32 l-23 -33 -6 35 c-5 24 -6 14 -6 -35z"/>
<path d="M6581 1418 c-1 -9 -7 -19 -13 -21 -10 -4 -10 -6 0 -6 7 -1 12 -16 12
-41 0 -32 4 -40 18 -39 10 0 12 3 5 6 -7 2 -13 20 -13 39 0 20 5 34 13 34 8 0
9 3 1 8 -6 4 -14 14 -17 22 -4 12 -6 12 -6 -2z"/>
<path d="M7941 1418 c-1 -9 -7 -19 -13 -21 -10 -4 -10 -6 0 -6 7 -1 12 -16 12
-41 0 -32 4 -40 18 -39 10 0 12 3 5 6 -7 2 -13 20 -13 39 0 20 5 34 13 34 8 0
9 3 1 8 -6 4 -14 14 -17 22 -4 12 -6 12 -6 -2z"/>
<path d="M4163 1393 c-7 -2 -13 -9 -13 -15 0 -6 6 -6 15 2 8 7 22 10 30 6 27
-10 16 -25 -22 -29 l-38 -4 43 -1 c43 -2 55 11 30 36 -13 13 -24 14 -45 5z"/>
<path d="M4234 1390 c3 -8 10 -32 17 -54 12 -35 11 -40 -6 -52 -10 -8 -14 -14
-7 -14 14 0 37 35 46 70 6 22 6 23 -5 6 -10 -17 -13 -15 -30 20 -11 22 -17 32
-15 24z"/>
<path d="M4295 1389 c-4 -6 -5 -12 -2 -15 2 -3 7 2 10 11 7 17 1 20 -8 4z"/>
<path d="M4383 1393 c9 -2 23 -2 30 0 6 3 -1 5 -18 5 -16 0 -22 -2 -12 -5z"/>
<path d="M4453 1393 c-7 -2 -13 -10 -13 -16 0 -8 4 -7 12 1 18 18 46 14 53 -7
13 -41 -24 -68 -53 -39 -8 8 -12 8 -12 1 0 -12 23 -23 46 -23 8 0 19 11 25 24
20 43 -14 77 -58 59z"/>
<path d="M4556 1392 c-2 -4 8 -8 22 -7 23 0 27 -4 27 -30 0 -25 -4 -30 -25
-30 -17 0 -26 7 -32 25 -7 25 -7 25 -5 1 3 -32 31 -50 55 -35 21 14 28 64 10
75 -17 11 -45 11 -52 1z"/>
<path d="M4694 1385 c-8 -19 1 -32 28 -38 l23 -6 -22 16 c-13 8 -23 19 -23 24
0 4 10 10 23 12 l22 4 -23 2 c-12 0 -25 -6 -28 -14z"/>
<path d="M4848 1393 c23 -5 31 -23 9 -23 -24 0 -48 -25 -41 -43 4 -12 16 -16
36 -15 27 2 29 4 26 43 -3 35 -6 40 -28 42 -22 1 -22 1 -2 -4z m22 -48 c0 -21
-28 -31 -43 -16 -9 9 -8 14 3 21 22 14 40 12 40 -5z"/>
<path d="M4910 1355 c0 -27 2 -46 4 -44 8 8 10 78 3 85 -4 4 -7 -14 -7 -41z"/>
<path d="M4952 1394 c11 -4 18 -19 21 -45 l4 -39 -1 42 c-1 35 -5 43 -21 45
-15 1 -15 0 -3 -3z"/>
<path d="M5172 1350 c1 -40 2 -41 5 -10 2 19 11 40 20 47 13 10 13 12 -6 10
-18 -1 -21 -7 -19 -47z"/>
<path d="M5242 1388 c-7 -7 -12 -24 -12 -39 0 -27 16 -40 48 -38 10 1 7 4 -7
8 -37 10 -38 31 -2 31 19 0 31 5 31 13 0 16 -20 37 -35 37 -6 0 -16 -5 -23
-12z m46 -15 c2 -8 -6 -13 -22 -13 -25 0 -33 10 -19 24 10 10 36 3 41 -11z"/>
<path d="M5327 1393 c-14 -13 -6 -30 20 -42 27 -13 23 -25 -12 -34 -19 -4 -19
-5 1 -6 12 0 27 5 33 13 10 12 7 18 -13 31 -32 21 -33 32 -3 38 20 4 20 4 1 6
-11 0 -24 -2 -27 -6z"/>
<path d="M5410 1386 c-28 -35 11 -93 48 -70 35 22 22 84 -18 84 -10 0 -23 -7
-30 -14z m55 -31 c0 -25 -4 -30 -25 -30 -16 0 -26 6 -28 18 -6 30 6 49 30 45
18 -2 23 -9 23 -33z"/>
<path d="M5502 1375 c0 -16 2 -22 5 -12 2 9 2 23 0 30 -3 6 -5 -1 -5 -18z"/>
<path d="M5567 1363 c-2 -21 0 -42 4 -47 5 -6 9 10 9 37 0 57 -6 61 -13 10z"/>
<path d="M5612 1350 c1 -40 2 -41 5 -10 2 19 11 40 20 47 13 10 13 12 -6 10
-18 -1 -21 -7 -19 -47z"/>
<path d="M5682 1388 c-28 -28 -7 -79 33 -77 17 1 16 2 -5 8 -19 5 -25 13 -25
36 0 23 6 31 25 36 21 6 22 7 5 8 -12 1 -26 -4 -33 -11z"/>
<path d="M5762 1388 c-28 -28 -7 -79 33 -77 17 1 17 2 -4 8 -38 10 -38 31 -1
31 27 0 31 3 28 23 -3 25 -36 35 -56 15z m46 -15 c2 -8 -6 -13 -22 -13 -25 0
-33 10 -19 24 10 10 36 3 41 -11z"/>
<path d="M5856 1391 c-3 -4 6 -6 19 -3 14 2 25 6 25 8 0 8 -39 4 -44 -5z"/>
<path d="M6040 1386 c-28 -35 11 -93 48 -70 35 22 22 84 -18 84 -10 0 -23 -7
-30 -14z m55 -31 c0 -25 -4 -30 -25 -30 -16 0 -26 6 -28 18 -6 30 6 49 30 45
18 -2 23 -9 23 -33z"/>
<path d="M6142 1350 c1 -40 2 -41 5 -10 2 19 11 40 20 47 13 10 13 12 -6 10
-18 -1 -21 -7 -19 -47z"/>
<path d="M6301 1369 c-1 -41 14 -59 47 -56 19 1 22 7 21 47 l-2 45 -6 -40 c-5
-31 -10 -40 -26 -40 -16 0 -21 9 -26 40 l-6 40 -2 -36z"/>
<path d="M6494 1385 c-8 -19 1 -32 28 -38 l23 -6 -22 16 c-13 8 -23 19 -23 24
0 4 10 10 23 12 l22 4 -23 2 c-12 0 -25 -6 -28 -14z"/>
<path d="M6658 1393 c30 -6 28 -19 -4 -27 -37 -10 -30 -51 9 -52 27 -1 28 1
25 40 -3 36 -6 41 -28 43 -22 1 -22 1 -2 -4z m22 -48 c0 -16 -27 -32 -37 -22
-3 4 -3 13 0 22 8 20 37 20 37 0z"/>
<path d="M6732 1388 c-28 -28 -7 -79 33 -77 17 1 16 2 -5 8 -19 5 -25 13 -25
36 0 23 6 31 25 36 21 6 22 7 5 8 -12 1 -26 -4 -33 -11z"/>
<path d="M7062 1388 c-7 -7 -12 -24 -12 -39 0 -27 16 -40 48 -38 10 1 7 4 -7
8 -37 10 -38 31 -2 31 19 0 31 5 31 13 0 16 -20 37 -35 37 -6 0 -16 -5 -23
-12z m46 -15 c2 -8 -6 -13 -22 -13 -25 0 -33 10 -19 24 10 10 36 3 41 -11z"/>
<path d="M7149 1355 c9 -25 19 -45 22 -45 4 0 12 12 17 28 21 57 22 66 3 28
l-19 -40 -16 37 c-21 52 -27 46 -7 -8z"/>
<path d="M7242 1388 c-7 -7 -12 -24 -12 -39 0 -27 16 -40 48 -38 10 1 7 4 -7
8 -37 10 -38 31 -2 31 19 0 31 5 31 13 0 16 -20 37 -35 37 -6 0 -16 -5 -23
-12z m46 -15 c2 -8 -6 -13 -22 -13 -25 0 -33 10 -19 24 10 10 36 3 41 -11z"/>
<path d="M7383 1393 c-7 -2 -13 -10 -13 -16 0 -8 4 -7 12 1 18 18 46 14 53 -7
13 -41 -24 -68 -53 -39 -8 8 -12 8 -12 1 0 -12 23 -23 46 -23 8 0 19 11 25 24
20 43 -14 77 -58 59z"/>
<path d="M7493 1394 c-7 -3 -13 -10 -13 -16 0 -6 6 -6 15 2 21 18 45 5 45 -25
0 -17 -7 -29 -22 -35 -16 -6 -18 -9 -7 -9 24 -1 41 24 37 56 -3 28 -26 39 -55
27z"/>
<path d="M7581 1351 l2 -46 6 40 c7 46 37 62 45 23 3 -13 7 -32 9 -43 3 -11 5
-1 6 23 0 23 -2 43 -6 44 -5 0 -20 2 -35 3 -27 2 -28 0 -27 -44z"/>
<path d="M7672 1394 c11 -4 18 -19 21 -45 l4 -39 -1 42 c-1 35 -5 43 -21 45
-15 1 -15 0 -3 -3z"/>
<path d="M7742 1388 c-28 -28 -7 -79 33 -77 17 1 17 2 -4 8 -38 10 -38 31 -1
31 27 0 31 3 28 23 -3 25 -36 35 -56 15z m46 -15 c2 -8 -6 -13 -22 -13 -25 0
-33 10 -19 24 10 10 36 3 41 -11z"/>
<path d="M7830 1355 c0 -27 2 -46 4 -44 8 8 10 78 3 85 -4 4 -7 -14 -7 -41z"/>
<path d="M7872 1388 c9 -7 19 -29 21 -48 3 -26 4 -24 3 10 -1 36 -5 45 -21 48
-18 4 -19 3 -3 -10z"/>
<path d="M5868 1354 c12 -9 22 -20 22 -25 0 -4 -10 -10 -22 -12 -20 -5 -20 -5
2 -4 17 1 25 8 25 21 0 11 -10 22 -25 27 l-25 9 23 -16z"/>
<path d="M4152 1330 c2 -8 18 -16 34 -17 18 -1 22 0 9 4 -11 3 -26 10 -34 17
-11 9 -13 8 -9 -4z"/>
<path d="M5513 1330 c2 -8 12 -16 23 -17 13 -2 15 -1 4 4 -8 3 -19 11 -23 17
-6 7 -7 6 -4 -4z"/>
<path d="M4390 1320 c0 -6 7 -10 15 -10 8 0 15 2 15 4 0 2 -7 6 -15 10 -8 3
-15 1 -15 -4z"/>
<path d="M4710 1320 c-23 -7 -23 -8 -3 -9 12 -1 25 4 28 9 3 6 5 10 3 9 -2 -1
-14 -5 -28 -9z"/>
<path d="M6510 1320 c-23 -7 -23 -8 -3 -9 12 -1 25 4 28 9 3 6 5 10 3 9 -2 -1
-14 -5 -28 -9z"/>
<path d="M4673 940 c0 -41 2 -58 4 -37 2 20 2 54 0 75 -2 20 -4 3 -4 -38z"/>
<path d="M5143 940 c0 -54 2 -64 6 -35 5 31 10 40 26 40 16 0 21 -9 26 -40 l6
-40 2 36 c1 39 -19 65 -43 56 -11 -4 -16 3 -19 26 -2 18 -4 -2 -4 -43z"/>
<path d="M5680 979 c0 -18 -4 -28 -10 -24 -14 9 -50 -4 -50 -17 0 -6 6 -6 15
2 21 18 45 5 45 -25 0 -31 -24 -43 -47 -24 -14 12 -16 12 -11 -1 3 -9 18 -15
36 -16 l32 -1 0 69 c0 37 -2 68 -5 68 -3 0 -5 -14 -5 -31z"/>
<path d="M6127 1003 c-4 -3 -7 -15 -7 -25 0 -10 -6 -18 -12 -18 -10 0 -10 -2
-1 -8 6 -4 13 -25 16 -47 l4 -40 1 42 c1 23 8 44 15 46 10 4 10 6 0 6 -7 1
-13 10 -13 20 0 11 6 22 13 24 6 3 7 6 1 6 -6 1 -14 -2 -17 -6z"/>
<path d="M6583 940 c0 -41 2 -58 4 -37 2 20 2 54 0 75 -2 20 -4 3 -4 -38z"/>
<path d="M7217 1003 c-4 -3 -7 -15 -7 -25 0 -10 -6 -18 -12 -18 -10 0 -10 -2
-1 -8 6 -4 13 -25 16 -47 l4 -40 1 42 c1 23 8 44 15 46 10 4 10 6 0 6 -7 1
-13 10 -13 20 0 11 6 22 13 24 6 3 7 6 1 6 -6 1 -14 -2 -17 -6z"/>
<path d="M7850 981 c0 -24 -3 -28 -24 -24 -13 3 -26 1 -29 -4 -3 -5 7 -9 21
-8 24 0 27 -4 28 -32 1 -67 14 -43 14 25 0 40 -2 72 -5 72 -3 0 -5 -13 -5 -29z"/>
<path d="M8200 981 c0 -24 -3 -28 -20 -24 -11 3 -27 0 -35 -7 -29 -24 -12 -81
25 -79 9 0 6 4 -8 10 -18 7 -23 15 -20 36 2 22 8 28 28 28 21 0 25 -5 25 -32
0 -17 3 -35 8 -39 4 -4 7 25 7 64 0 40 -2 72 -5 72 -3 0 -5 -13 -5 -29z"/>
<path d="M8290 943 l0 -70 32 1 c26 1 34 7 42 28 11 30 -5 58 -33 57 -11 0 -9
-3 7 -9 36 -15 24 -76 -14 -68 -16 3 -19 13 -21 62 -4 84 -13 83 -13 -1z"/>
<path d="M8573 940 c-1 -41 2 -64 6 -52 l6 24 19 -21 c11 -12 24 -21 29 -21 6
0 0 12 -14 26 l-24 26 24 19 c13 10 19 19 14 19 -6 0 -18 -10 -29 -21 l-19
-21 -6 48 c-5 43 -6 39 -6 -26z"/>
<path d="M8920 981 c0 -24 -3 -28 -24 -24 -13 3 -26 1 -29 -4 -3 -5 7 -9 21
-8 24 0 27 -4 28 -32 1 -67 14 -43 14 25 0 40 -2 72 -5 72 -3 0 -5 -13 -5 -29z"/>
<path d="M9093 940 c-1 -41 2 -64 6 -52 l6 24 19 -21 c11 -12 24 -21 29 -21 5
0 -2 10 -17 21 l-27 21 23 27 23 26 -27 -24 -27 -23 -4 48 c-2 34 -4 26 -4
-26z"/>
<path d="M9223 940 c0 -41 2 -58 4 -37 2 20 2 54 0 75 -2 20 -4 3 -4 -38z"/>
<path d="M9273 940 c0 -41 2 -58 4 -37 2 20 2 54 0 75 -2 20 -4 3 -4 -38z"/>
<path d="M4051 933 c1 -37 4 -56 6 -41 3 18 11 28 25 30 52 8 47 70 -6 76
l-26 3 1 -68z m54 27 c0 -18 -6 -26 -22 -28 -20 -3 -23 1 -23 28 0 27 3 31 23
28 16 -2 22 -10 22 -28z"/>
<path d="M5781 978 c-1 -10 -7 -18 -13 -18 -10 0 -10 -2 -1 -8 6 -4 13 -23 15
-41 2 -19 9 -36 16 -37 7 -1 8 0 2 3 -15 7 -13 73 3 73 8 0 9 3 1 8 -6 4 -14
14 -17 22 -4 12 -6 11 -6 -2z"/>
<path d="M4152 948 c-7 -7 -12 -24 -12 -39 0 -27 16 -40 48 -38 10 1 7 4 -7 8
-37 10 -38 31 -2 31 19 0 31 5 31 13 0 16 -20 37 -35 37 -6 0 -16 -5 -23 -12z
m46 -15 c2 -8 -6 -13 -22 -13 -25 0 -33 10 -19 24 10 10 36 3 41 -11z"/>
<path d="M4297 953 c-14 -13 -6 -30 20 -42 27 -13 23 -25 -12 -34 -19 -4 -19
-5 1 -6 12 0 27 5 33 13 10 12 7 18 -13 31 -32 21 -33 32 -3 38 20 4 20 4 1 6
-11 0 -24 -2 -27 -6z"/>
<path d="M4380 946 c-28 -35 11 -93 48 -70 35 22 22 84 -18 84 -10 0 -23 -7
-30 -14z m55 -31 c0 -25 -4 -30 -25 -30 -16 0 -26 6 -28 18 -6 30 6 49 30 45
18 -2 23 -9 23 -33z"/>
<path d="M4480 915 c0 -27 2 -46 4 -44 8 8 10 78 3 85 -4 4 -7 -14 -7 -41z"/>
<path d="M4522 948 c9 -7 19 -29 21 -48 3 -26 4 -24 3 10 -1 36 -5 45 -21 48
-18 4 -19 3 -3 -10z"/>
<path d="M4608 953 c30 -6 28 -19 -4 -27 -37 -10 -30 -51 9 -52 27 -1 28 1 25
40 -3 36 -6 41 -28 43 -22 1 -22 1 -2 -4z m22 -48 c0 -16 -27 -32 -37 -22 -3
4 -3 13 0 22 8 20 37 20 37 0z"/>
<path d="M4773 915 c0 -27 2 -38 4 -22 2 15 2 37 0 50 -2 12 -4 0 -4 -28z"/>
<path d="M4810 915 c0 -27 2 -46 4 -44 8 8 10 78 3 85 -4 4 -7 -14 -7 -41z"/>
<path d="M4852 948 c9 -7 19 -29 21 -48 3 -26 4 -24 3 10 -1 36 -5 45 -21 48
-18 4 -19 3 -3 -10z"/>
<path d="M4913 943 c-4 -11 1 -22 15 -31 28 -18 28 -29 0 -35 -20 -5 -20 -5 2
-4 32 2 41 36 11 44 -28 7 -27 30 2 36 l22 4 -23 2 c-13 0 -25 -6 -29 -16z"/>
<path d="M4993 915 c0 -27 2 -38 4 -22 2 15 2 37 0 50 -2 12 -4 0 -4 -28z"/>
<path d="M5040 945 c-6 -7 -10 -26 -8 -42 2 -23 8 -28 31 -28 38 1 32 -28 -8
-36 -28 -6 -28 -7 -4 -8 37 -2 49 17 49 74 0 46 -2 51 -24 53 -13 1 -29 -5
-36 -13z m45 -30 c0 -23 -4 -30 -20 -30 -21 0 -31 25 -21 51 11 28 41 12 41
-21z"/>
<path d="M5243 953 c9 -2 23 -2 30 0 6 3 -1 5 -18 5 -16 0 -22 -2 -12 -5z"/>
<path d="M5306 951 c-3 -4 6 -6 19 -3 14 2 25 6 25 8 0 8 -39 4 -44 -5z"/>
<path d="M5440 953 c46 -15 46 -15 25 -23 -18 -8 -18 -9 -2 -9 13 -1 17 -6 12
-20 -3 -11 -1 -22 5 -26 6 -4 10 6 10 24 0 46 -10 61 -39 60 -14 0 -19 -3 -11
-6z"/>
<path d="M5521 910 l2 -45 6 40 c5 31 10 40 26 40 16 0 21 -9 26 -40 l6 -40 2
36 c1 41 -14 59 -47 56 -19 -1 -22 -7 -21 -47z"/>
<path d="M5843 915 c0 -27 2 -38 4 -22 2 15 2 37 0 50 -2 12 -4 0 -4 -28z"/>
<path d="M5881 894 c1 -38 4 -57 6 -43 3 21 8 25 28 21 19 -3 27 2 37 23 14
31 2 59 -28 62 -15 2 -14 1 4 -7 36 -15 24 -76 -14 -68 -14 2 -19 12 -20 35 0
18 -3 36 -7 39 -4 4 -6 -24 -6 -62z"/>
<path d="M5984 945 c-8 -19 1 -32 28 -38 l23 -6 -22 16 c-13 8 -23 19 -23 24
0 4 10 10 23 12 l22 4 -23 2 c-12 0 -25 -6 -28 -14z"/>
<path d="M6176 952 c-2 -4 8 -8 22 -7 23 0 27 -4 27 -30 0 -25 -4 -30 -25 -30
-17 0 -26 7 -32 25 -7 25 -7 25 -5 1 3 -32 31 -50 55 -35 21 14 28 64 10 75
-17 11 -45 11 -52 1z"/>
<path d="M6270 915 c0 -27 2 -46 4 -44 8 8 10 78 3 85 -4 4 -7 -14 -7 -41z"/>
<path d="M6403 954 c-7 -3 -13 -10 -13 -16 0 -6 6 -6 15 2 21 18 45 5 45 -25
0 -17 -7 -29 -22 -35 -16 -6 -18 -9 -7 -9 24 -1 41 24 37 56 -3 28 -26 39 -55
27z"/>
<path d="M6518 953 c23 -5 31 -23 9 -23 -24 0 -48 -25 -41 -43 4 -12 16 -16
36 -15 27 2 29 4 26 43 -3 35 -6 40 -28 42 -22 1 -22 1 -2 -4z m22 -48 c0 -21
-28 -31 -43 -16 -9 9 -8 14 3 21 22 14 40 12 40 -5z"/>
<path d="M6630 956 c0 -2 11 -6 25 -8 13 -3 22 -1 19 3 -5 9 -44 13 -44 5z"/>
<path d="M6721 910 l2 -45 6 40 c5 31 10 40 26 40 16 0 21 -9 26 -40 l6 -40 2
36 c1 41 -14 59 -47 56 -19 -1 -22 -7 -21 -47z"/>
<path d="M6833 948 c-19 -25 -24 -43 -6 -21 10 11 27 23 38 26 19 4 19 5 -1 6
-12 0 -26 -5 -31 -11z"/>
<path d="M6903 915 c0 -27 2 -38 4 -22 2 15 2 37 0 50 -2 12 -4 0 -4 -28z"/>
<path d="M6963 953 c-7 -2 -13 -9 -13 -14 0 -5 9 -4 20 3 25 16 39 0 41 -47 2
-30 2 -30 6 -3 7 48 -18 76 -54 61z"/>
<path d="M7056 952 c-2 -4 8 -8 22 -7 26 0 27 -2 27 -50 0 -47 -2 -50 -30 -56
-28 -6 -28 -7 -4 -8 37 -2 49 17 49 74 0 49 -1 51 -29 53 -16 1 -32 -1 -35 -6z"/>
<path d="M7262 910 c1 -40 2 -41 5 -10 2 19 11 40 20 47 13 10 13 12 -6 10
-18 -1 -21 -7 -19 -47z"/>
<path d="M7330 946 c-28 -35 11 -93 48 -70 35 22 22 84 -18 84 -10 0 -23 -7
-30 -14z m55 -31 c0 -25 -4 -30 -25 -30 -16 0 -26 6 -28 18 -6 30 6 49 30 45
18 -2 23 -9 23 -33z"/>
<path d="M7431 910 l2 -45 6 40 c5 31 10 40 26 40 16 0 21 -9 26 -40 l6 -40 2
36 c1 41 -14 59 -47 56 -19 -1 -22 -7 -21 -47z"/>
<path d="M7533 953 c9 -2 23 -2 30 0 6 3 -1 5 -18 5 -16 0 -22 -2 -12 -5z"/>
<path d="M7603 953 c-7 -2 -13 -9 -13 -15 0 -6 6 -6 15 2 8 7 22 10 30 6 27
-10 16 -25 -22 -29 l-38 -4 43 -1 c43 -2 55 11 30 36 -13 13 -24 14 -45 5z"/>
<path d="M7703 953 c-7 -2 -13 -9 -13 -14 0 -5 9 -4 20 3 25 16 39 0 41 -47 2
-30 2 -30 6 -3 7 48 -18 76 -54 61z"/>
<path d="M7968 953 c30 -6 28 -19 -4 -27 -37 -10 -30 -51 9 -52 27 -1 28 1 25
40 -3 36 -6 41 -28 43 -22 1 -22 1 -2 -4z m22 -48 c0 -16 -27 -32 -37 -22 -3
4 -3 13 0 22 8 20 37 20 37 0z"/>
<path d="M8030 915 c0 -27 2 -46 4 -44 8 8 10 78 3 85 -4 4 -7 -14 -7 -41z"/>
<path d="M8072 954 c11 -4 18 -19 21 -45 l4 -39 -1 42 c-1 35 -5 43 -21 45
-15 1 -15 0 -3 -3z"/>
<path d="M8410 953 c46 -15 46 -15 25 -23 -18 -8 -18 -9 -2 -9 13 -1 17 -6 12
-20 -3 -11 -1 -22 5 -26 6 -4 10 6 10 24 0 46 -10 61 -39 60 -14 0 -19 -3 -11
-6z"/>
<path d="M8488 934 c-15 -32 -1 -58 33 -61 24 -2 24 -2 -1 5 -18 6 -25 15 -25
32 0 16 9 29 25 37 25 13 25 13 2 13 -15 0 -27 -9 -34 -26z"/>
<path d="M8673 953 c-7 -2 -13 -9 -13 -15 0 -6 6 -6 15 2 8 7 22 10 30 6 27
-10 16 -25 -22 -29 l-38 -4 43 -1 c43 -2 55 11 30 36 -13 13 -24 14 -45 5z"/>
<path d="M8773 953 c-7 -2 -13 -9 -13 -14 0 -5 9 -4 20 3 25 16 39 0 41 -47 2
-30 2 -30 6 -3 7 48 -18 76 -54 61z"/>
<path d="M9013 943 c-4 -11 1 -22 15 -31 28 -18 28 -29 0 -35 -20 -5 -20 -5 2
-4 32 2 41 36 11 44 -28 7 -27 30 2 36 l22 4 -23 2 c-13 0 -25 -6 -29 -16z"/>
<path d="M9183 915 c0 -27 2 -38 4 -22 2 15 2 37 0 50 -2 12 -4 0 -4 -28z"/>
<path d="M9307 953 c-14 -13 -6 -30 20 -42 27 -13 23 -25 -12 -34 -19 -4 -19
-5 1 -6 12 0 27 5 33 13 10 12 7 18 -13 31 -32 21 -33 32 -3 38 20 4 20 4 1 6
-11 0 -24 -2 -27 -6z"/>
<path d="M4241 934 c0 -11 3 -14 6 -6 3 7 2 16 -1 19 -3 4 -6 -2 -5 -13z"/>
<path d="M5318 914 c12 -9 22 -20 22 -25 0 -4 -10 -10 -22 -12 -20 -5 -20 -5
2 -4 17 1 25 8 25 21 0 11 -10 22 -25 27 l-25 9 23 -16z"/>
<path d="M6630 915 c-16 -19 -6 -45 17 -44 17 1 17 2 0 6 -25 7 -17 37 12 41
19 3 22 0 17 -16 -4 -11 -2 -23 4 -27 6 -4 10 6 10 24 0 26 -4 31 -24 31 -13
0 -29 -7 -36 -15z"/>
<path d="M7041 915 c-1 -25 17 -45 39 -44 10 0 9 3 -5 8 -11 4 -23 19 -26 32
-6 21 -7 21 -8 4z"/>
<path d="M7781 915 c-1 -25 17 -45 39 -44 10 0 9 3 -5 8 -11 4 -23 19 -26 32
-6 21 -7 21 -8 4z"/>
<path d="M8851 915 c-1 -25 17 -45 39 -44 10 0 9 3 -5 8 -11 4 -23 19 -26 32
-6 21 -7 21 -8 4z"/>
<path d="M5424 905 c-8 -19 4 -35 24 -34 14 1 14 2 -1 6 -13 3 -17 11 -14 24
6 22 -1 26 -9 4z"/>
<path d="M8394 905 c-8 -19 4 -35 24 -34 14 1 14 2 -1 6 -13 3 -17 11 -14 24
6 22 -1 26 -9 4z"/>
<path d="M6820 890 c0 -9 39 -25 45 -18 2 2 -7 8 -21 15 -13 6 -24 7 -24 3z"/>
<path d="M7592 890 c2 -8 18 -16 34 -17 18 -1 22 0 9 4 -11 3 -26 10 -34 17
-11 9 -13 8 -9 -4z"/>
<path d="M8662 890 c2 -8 18 -16 34 -17 18 -1 22 0 9 4 -11 3 -26 10 -34 17
-11 9 -13 8 -9 -4z"/>
<path d="M5250 880 c0 -6 7 -10 15 -10 8 0 15 2 15 4 0 2 -7 6 -15 10 -8 3
-15 1 -15 -4z"/>
<path d="M6000 880 c-23 -7 -23 -8 -3 -9 12 -1 25 4 28 9 3 6 5 10 3 9 -2 -1
-14 -5 -28 -9z"/>
<path d="M7540 880 c0 -6 7 -10 15 -10 8 0 15 2 15 4 0 2 -7 6 -15 10 -8 3
-15 1 -15 -4z"/>
</g>
</svg>
