<?xml version="1.0" standalone="no"?>
<!DOCTYPE svg PUBLIC "-//W3C//DTD SVG 20010904//EN"
 "http://www.w3.org/TR/2001/REC-SVG-20010904/DTD/svg10.dtd">
<svg version="1.0" xmlns="http://www.w3.org/2000/svg"
 width="1862.000000pt" height="871.000000pt" viewBox="0 0 1862.000000 871.000000"
 preserveAspectRatio="xMidYMid meet">

<g transform="translate(0.000000,871.000000) scale(0.100000,-0.100000)"
fill="#000000" stroke="none">
<path d="M1960 8355 c0 -78 3 -95 15 -95 12 0 15 17 15 95 0 78 -3 95 -15 95
-12 0 -15 -17 -15 -95z"/>
<path d="M1800 8350 l0 -90 44 0 c50 0 76 19 76 54 0 13 -7 29 -15 36 -13 11
-13 14 0 27 32 31 2 63 -61 63 l-44 0 0 -90z m75 40 c0 -8 -10 -16 -22 -18
-18 -3 -23 2 -23 18 0 16 5 21 23 18 12 -2 22 -10 22 -18z m10 -75 c0 -14 -8
-21 -27 -23 -24 -3 -28 0 -28 23 0 23 4 26 28 23 19 -2 27 -9 27 -23z"/>
<path d="M2352 8351 c-28 -83 -29 -91 -12 -91 10 0 20 9 23 20 4 15 14 20 40
20 26 0 36 -5 40 -20 6 -22 37 -28 36 -7 0 6 -12 46 -27 87 -21 59 -32 76 -48
78 -19 3 -26 -8 -52 -87z m66 12 c10 -31 10 -33 -14 -33 -27 0 -29 6 -14 46
12 31 13 30 28 -13z"/>
<path d="M4680 8430 c0 -5 5 -10 10 -10 6 0 10 5 10 10 0 6 -4 10 -10 10 -5 0
-10 -4 -10 -10z"/>
<path d="M3323 8360 c0 -41 2 -58 4 -37 4 36 6 37 43 37 37 0 39 -1 43 -37 2
-21 4 -4 4 37 0 41 -2 60 -4 43 -4 -31 -7 -33 -43 -33 -36 0 -39 2 -43 33 -2
17 -4 -2 -4 -43z"/>
<path d="M4362 8363 l-2 -73 33 1 c29 2 30 2 5 6 -26 4 -27 7 -31 71 l-3 67
-2 -72z"/>
<path d="M2040 8370 c-40 -40 -11 -110 45 -110 32 0 65 33 65 65 0 32 -33 65
-65 65 -14 0 -34 -9 -45 -20z m75 -29 c9 -28 -5 -51 -30 -51 -25 0 -39 23 -30
51 4 12 16 19 30 19 14 0 26 -7 30 -19z"/>
<path d="M2188 8368 c-22 -22 -23 -56 -2 -86 17 -24 43 -29 63 -9 10 10 12 7
9 -13 -2 -21 -9 -25 -41 -28 -45 -4 -46 -25 0 -30 18 -2 39 4 54 16 20 17 24
30 27 95 l4 75 -48 0 c-32 -1 -53 -7 -66 -20z m71 -25 c11 -21 -3 -53 -23 -53
-25 0 -39 26 -26 49 13 25 36 27 49 4z"/>
<path d="M2510 8295 c0 -78 3 -95 15 -95 11 0 15 11 15 42 0 33 3 39 12 30 31
-31 78 3 78 56 0 49 -39 78 -69 50 -11 -10 -14 -10 -18 0 -3 6 -11 12 -19 12
-11 0 -14 -20 -14 -95z m85 30 c0 -25 -4 -30 -25 -30 -16 0 -26 6 -28 18 -6
30 6 49 30 45 18 -2 23 -9 23 -33z"/>
<path d="M2670 8295 c0 -78 3 -95 15 -95 11 0 15 11 15 41 0 36 2 40 15 29 24
-20 62 2 70 40 12 55 -39 102 -73 68 -9 -9 -12 -9 -12 0 0 7 -7 12 -15 12 -12
0 -15 -17 -15 -95z m84 49 c8 -22 -12 -56 -32 -52 -18 3 -27 30 -18 54 7 19
42 18 50 -2z"/>
<path d="M3472 8378 c-7 -7 -12 -24 -12 -38 0 -30 16 -50 41 -50 23 0 49 27
49 50 0 39 -52 64 -78 38z m56 -10 c28 -28 1 -75 -38 -63 -14 4 -20 15 -20 35
0 37 33 53 58 28z"/>
<path d="M3583 8340 c0 -30 2 -43 4 -27 2 15 2 39 0 55 -2 15 -4 2 -4 -28z"/>
<path d="M3623 8379 c11 -7 18 -24 19 -52 l1 -42 4 37 c4 39 28 67 43 52 5 -5
10 -27 13 -49 4 -39 4 -39 5 8 2 51 -15 70 -42 48 -10 -8 -16 -9 -21 -1 -3 5
-14 10 -23 10 -16 -1 -16 -1 1 -11z"/>
<path d="M3762 8378 c-7 -7 -12 -24 -12 -38 0 -14 5 -31 12 -38 15 -15 45 -15
54 0 4 7 3 8 -5 4 -16 -10 -51 3 -51 20 0 9 11 14 35 14 38 0 44 10 19 34 -19
19 -36 20 -52 4z m48 -13 c11 -13 8 -15 -19 -15 -30 0 -39 9 -24 23 11 11 30
8 43 -8z"/>
<path d="M4456 8374 c-31 -30 -9 -84 34 -84 11 0 27 11 36 25 15 23 15 27 0
50 -19 29 -47 32 -70 9z m48 0 c35 -13 14 -74 -24 -74 -18 0 -31 39 -20 60 11
21 19 24 44 14z"/>
<path d="M4575 8374 c-35 -36 -7 -92 40 -80 14 4 25 2 25 -3 0 -18 -33 -43
-51 -38 -11 3 -19 1 -19 -4 0 -15 47 -10 64 7 11 10 16 34 16 72 0 56 -1 57
-30 59 -16 1 -36 -5 -45 -13z m55 -9 c15 -19 -1 -65 -23 -65 -18 0 -37 21 -37
40 0 36 38 51 60 25z"/>
<path d="M4683 8340 c0 -30 2 -43 4 -27 2 15 2 39 0 55 -2 15 -4 2 -4 -28z"/>
<path d="M4731 8335 c2 -49 2 -50 8 -11 6 38 33 68 47 53 4 -4 11 -26 15 -50
l6 -42 2 41 c1 47 -12 63 -51 61 -27 -2 -28 -4 -27 -52z"/>
<path d="M7120 3980 l0 -3980 5750 0 5750 0 0 3980 0 3980 -5750 0 -5750 0 0
-3980z m4000 395 l0 -145 -35 0 -35 0 0 145 0 145 35 0 35 0 0 -145z m1890 0
l0 -145 -40 0 -40 0 0 145 0 145 40 0 40 0 0 -145z m1790 0 l0 -144 -82 0
c-105 0 -128 17 -128 91 0 65 31 98 90 98 l40 0 0 50 0 50 40 0 40 0 0 -145z
m445 115 c0 -21 -5 -26 -33 -28 -22 -2 -34 2 -38 12 -12 30 4 47 38 44 28 -2
33 -7 33 -28z m-4702 -2 c2 -7 10 -47 18 -88 12 -71 13 -73 21 -40 5 19 16 59
24 88 14 51 15 52 54 52 42 0 46 -6 66 -108 4 -18 10 -32 14 -32 4 0 12 32 19
70 l13 70 40 0 c33 0 39 -3 34 -17 -6 -24 -42 -158 -56 -211 -11 -43 -11 -43
-53 -40 l-41 3 -20 80 -20 80 -20 -83 -20 -83 -45 3 -44 3 -33 125 c-18 69
-33 128 -33 133 -1 12 77 8 82 -5z m2335 -4 c28 -19 29 -67 2 -94 -11 -11 -16
-20 -11 -20 20 0 41 -33 41 -65 0 -55 -35 -75 -131 -75 l-79 0 0 135 0 135 78
0 c54 0 84 -5 100 -16z m828 -113 c24 -68 44 -127 44 -132 0 -5 -18 -9 -39 -9
-36 0 -40 3 -46 30 -6 28 -10 30 -50 30 -39 0 -43 -2 -48 -30 -6 -28 -10 -30
-48 -30 -29 0 -40 4 -37 13 3 6 25 67 49 135 l43 123 44 -3 44 -3 44 -124z
m795 102 c6 -16 28 -76 49 -135 l38 -108 -40 0 c-34 0 -40 4 -49 30 -10 27
-16 30 -50 30 -35 0 -41 -3 -50 -30 -10 -27 -16 -30 -51 -30 -22 0 -38 4 -36
8 2 4 23 65 48 135 l45 127 43 0 c37 0 44 -3 53 -27z m-2201 -23 c0 -25 4 -30
25 -30 20 0 25 -5 25 -25 0 -20 -5 -25 -26 -25 -23 0 -25 -3 -22 -42 2 -36 7
-44 26 -46 16 -3 22 -10 22 -28 0 -22 -4 -24 -44 -24 -60 0 -76 18 -76 86 0
41 -4 54 -15 54 -9 0 -15 9 -15 25 0 16 6 25 15 25 9 0 15 9 15 24 0 24 13 32
53 35 13 1 17 -7 17 -29z m-1293 -52 c15 -14 23 -33 23 -55 l0 -33 -60 0 c-51
0 -58 -2 -53 -16 5 -13 16 -15 55 -11 45 6 48 5 48 -17 0 -29 -16 -36 -81 -36
-68 0 -99 30 -99 95 0 64 31 95 96 95 35 0 54 -6 71 -22z m303 -8 c0 -27 -2
-29 -30 -24 -36 8 -60 -9 -60 -41 0 -32 24 -49 60 -41 28 5 30 3 30 -24 0 -30
-1 -30 -54 -30 -86 0 -127 48 -105 124 13 46 45 66 107 66 51 0 52 0 52 -30z
m205 5 c19 -18 25 -35 25 -70 0 -64 -33 -95 -102 -95 -63 0 -86 13 -104 57
-12 27 -13 42 -4 69 16 47 44 64 108 64 43 0 58 -5 77 -25z m227 14 c10 -6 19
-5 23 1 10 16 82 12 99 -6 12 -11 16 -36 16 -95 l0 -79 -35 0 -35 0 0 65 c0
51 -4 67 -16 72 -24 9 -34 -15 -34 -79 l0 -58 -35 0 -35 0 0 58 c0 64 -10 88
-34 79 -12 -5 -16 -21 -16 -72 l0 -65 -35 0 -35 0 0 94 0 95 78 -1 c42 0 85
-4 94 -9z m325 -11 c15 -14 23 -33 23 -55 l0 -33 -60 0 c-51 0 -58 -2 -53 -16
5 -13 16 -15 55 -11 45 6 48 5 48 -17 0 -29 -16 -36 -81 -36 -68 0 -99 30 -99
95 0 64 31 95 96 95 35 0 54 -6 71 -22z m475 -8 c27 -28 30 -36 25 -73 -8 -57
-43 -87 -102 -87 -55 0 -90 15 -104 47 -20 43 -13 82 18 114 25 25 37 29 81
29 44 0 56 -4 82 -30z m680 0 c27 -28 30 -36 25 -73 -8 -57 -43 -87 -102 -87
-55 0 -90 15 -104 47 -20 43 -13 82 18 114 25 25 37 29 81 29 44 0 56 -4 82
-30z m248 -65 c0 -153 -28 -190 -141 -183 -51 3 -54 5 -57 30 -3 27 -3 28 42
22 30 -5 51 -2 61 6 28 23 17 36 -26 32 -59 -6 -89 25 -89 90 0 39 5 54 25 73
22 22 32 25 105 25 l80 0 0 -95z m486 74 c29 -33 26 -110 -6 -144 -21 -22 -32
-26 -67 -23 l-43 3 0 -47 0 -48 -35 0 -35 0 0 139 0 140 84 0 c72 0 86 -3 102
-20z m234 -6 c29 -37 26 -94 -7 -133 -23 -28 -31 -31 -70 -28 l-43 3 0 -47 0
-48 -35 0 -35 0 0 139 0 139 85 1 c79 0 86 -2 105 -26z m812 16 c10 -6 19 -5
23 1 10 16 82 12 99 -6 12 -11 16 -36 16 -95 l0 -79 -35 0 -35 0 0 65 c0 51
-4 67 -16 72 -24 9 -34 -15 -34 -79 l0 -58 -35 0 -35 0 0 65 c0 51 -4 67 -16
72 -24 9 -34 -15 -34 -79 l0 -58 -35 0 -35 0 0 94 0 95 78 -1 c42 0 85 -4 94
-9z m248 -84 l0 -95 -40 0 -40 0 0 95 0 95 40 0 40 0 0 -95z m216 60 c8 -19
14 -62 14 -95 l0 -60 -40 0 -40 0 0 65 c0 51 -4 67 -16 72 -24 9 -34 -15 -34
-79 l0 -58 -35 0 -35 0 0 94 0 94 86 1 86 0 14 -34z m-2706 -525 c0 -5 -7 -10
-15 -10 -8 0 -15 5 -15 10 0 6 7 10 15 10 8 0 15 -4 15 -10z m2090 -76 l0 -85
-52 3 c-48 3 -54 6 -62 31 -15 41 10 81 52 85 26 3 32 8 32 28 0 15 6 24 15
24 12 0 15 -16 15 -86z m-4759 26 c12 -27 25 -50 28 -50 4 0 17 23 28 50 16
37 27 50 42 50 20 0 21 -6 21 -80 0 -73 -2 -80 -20 -80 -17 0 -20 7 -20 43 l0
42 -20 -42 c-10 -24 -25 -43 -32 -43 -7 0 -23 22 -35 48 l-21 47 -1 -47 c-1
-36 -5 -48 -16 -48 -12 0 -15 16 -15 80 0 73 2 80 20 80 14 0 26 -14 41 -50z
m1719 26 c0 -8 6 -17 13 -20 10 -5 10 -7 0 -12 -15 -7 -18 -84 -3 -84 6 0 10
-4 10 -10 0 -16 -47 -11 -54 6 -3 9 -6 31 -6 49 0 18 -6 36 -12 39 -10 5 -10
7 0 12 6 3 12 12 12 20 0 8 9 14 20 14 11 0 20 -6 20 -14z m320 -1 c0 -8 7
-15 15 -15 8 0 15 -4 15 -10 0 -5 -7 -10 -15 -10 -11 0 -15 -11 -15 -41 0 -40
0 -40 30 -34 23 5 30 3 30 -8 0 -27 -12 -47 -27 -47 -9 0 -13 6 -10 14 4 10
-2 16 -21 18 -24 3 -27 8 -30 48 -2 24 -9 48 -15 53 -9 7 -9 10 1 14 6 2 12
11 12 19 0 8 7 14 15 14 8 0 15 -7 15 -15z m690 0 c0 -8 7 -15 15 -15 8 0 15
-4 15 -10 0 -5 -7 -10 -15 -10 -11 0 -15 -11 -15 -40 0 -29 4 -40 15 -40 8 0
15 -5 15 -11 0 -6 -12 -9 -27 -7 -25 3 -28 7 -31 48 -2 24 -9 48 -15 53 -9 7
-9 10 1 14 6 2 12 11 12 19 0 8 7 14 15 14 8 0 15 -7 15 -15z m1530 0 c0 -8 7
-15 15 -15 8 0 15 -4 15 -10 0 -5 -7 -10 -15 -10 -11 0 -15 -11 -15 -40 l0
-41 35 7 35 6 -11 -31 c-6 -17 -17 -31 -25 -31 -7 0 -11 6 -8 14 4 10 -3 16
-23 18 -26 3 -28 7 -31 48 -2 24 -9 48 -15 53 -9 7 -9 10 1 14 6 2 12 11 12
19 0 8 7 14 15 14 8 0 15 -7 15 -15z m-4030 -34 c5 -11 10 -38 10 -60 l0 -41
-49 0 c-36 0 -51 4 -55 16 -11 28 4 55 35 61 16 3 29 10 29 15 0 5 -13 7 -30
3 -16 -4 -30 -2 -30 3 0 29 74 32 90 3z m124 3 c3 -9 6 -36 6 -60 0 -32 -4
-44 -15 -44 -11 0 -15 12 -15 44 0 25 -5 48 -12 52 -16 10 -38 -25 -38 -63 0
-23 -5 -33 -15 -33 -12 0 -15 13 -15 60 l0 60 49 0 c35 0 51 -4 55 -16z m116
-3 c5 -11 10 -38 10 -60 l0 -41 -49 0 c-36 0 -51 4 -55 16 -11 28 4 55 35 61
16 3 29 10 29 15 0 5 -13 7 -30 3 -16 -4 -30 -2 -30 3 0 29 74 32 90 3z m140
-44 c0 -84 -17 -109 -73 -105 -22 2 -42 9 -44 15 -3 9 7 12 33 10 22 -1 39 3
41 11 3 8 -5 12 -24 12 -38 0 -53 16 -53 60 0 48 15 60 72 60 l48 0 0 -63z
m108 51 c7 -7 12 -22 12 -35 0 -20 -5 -23 -40 -23 -32 0 -38 -3 -33 -16 4 -12
14 -14 40 -9 27 5 34 3 31 -7 -7 -21 -80 -23 -95 -2 -18 24 -16 69 3 88 18 19
65 21 82 4z m117 -18 c9 -42 22 -46 30 -9 6 28 29 48 41 37 5 -6 -44 -138 -58
-155 -12 -15 -58 -18 -58 -4 0 5 9 11 20 14 25 6 25 23 0 89 -24 64 -24 58 -1
58 13 0 21 -9 26 -30z m183 18 c7 -7 12 -28 12 -48 0 -45 -15 -60 -60 -60 -43
0 -60 15 -60 53 0 48 16 67 58 67 21 0 43 -5 50 -12z m62 -39 c0 -43 3 -50 18
-47 13 2 18 15 20 51 2 33 7 47 18 47 11 0 14 -14 14 -60 l0 -60 -45 0 c-52 0
-65 16 -65 79 0 34 3 41 20 41 17 0 20 -7 20 -51z m170 42 c0 -5 -9 -11 -20
-14 -16 -4 -20 -14 -20 -51 0 -39 -3 -46 -20 -46 -18 0 -20 7 -20 60 l0 60 40
0 c22 0 40 -4 40 -9z m160 -1 c0 -5 -11 -10 -24 -10 -32 0 -50 -24 -42 -56 6
-23 11 -26 37 -20 22 4 29 2 27 -7 -6 -16 -66 -21 -84 -6 -19 15 -18 74 2 93
17 18 84 22 84 6z m112 -7 c41 -37 10 -103 -48 -103 -34 0 -64 28 -64 60 0 9
7 26 16 38 18 27 69 30 96 5z m126 5 c18 -18 16 -108 -3 -108 -10 0 -15 10
-15 34 0 43 -9 66 -25 66 -16 0 -25 -23 -25 -66 0 -24 -5 -34 -15 -34 -12 0
-15 13 -15 60 l0 60 43 0 c24 0 48 -5 55 -12z m200 0 c7 -7 12 -22 12 -35 0
-20 -5 -23 -41 -23 -28 0 -39 -4 -36 -12 2 -7 18 -12 36 -12 21 1 31 -3 31
-12 0 -18 -71 -19 -88 -2 -15 15 -16 63 -2 89 12 22 68 27 88 7z m126 -4 c3
-9 6 -36 6 -60 0 -32 -4 -44 -15 -44 -11 0 -15 12 -15 44 0 25 -5 48 -12 52
-16 10 -38 -25 -38 -63 0 -23 -5 -33 -15 -33 -12 0 -15 13 -15 60 l0 60 49 0
c35 0 51 -4 55 -16z m384 -46 c2 -46 0 -58 -12 -58 -11 0 -16 13 -18 48 -2 34
-7 47 -18 47 -11 0 -16 -13 -18 -47 -2 -33 -8 -48 -17 -48 -9 0 -15 15 -17 48
-2 34 -7 47 -18 47 -11 0 -16 -13 -18 -47 -3 -40 -6 -48 -23 -48 -17 0 -19 7
-19 60 l0 60 88 -3 87 -2 3 -57z m124 45 c41 -37 10 -103 -48 -103 -34 0 -64
28 -64 60 0 9 7 26 16 38 18 27 69 30 96 5z m132 1 c3 -9 6 -36 6 -60 0 -32
-4 -44 -15 -44 -11 0 -15 12 -15 44 0 25 -5 48 -12 52 -16 10 -38 -25 -38 -63
0 -23 -5 -33 -15 -33 -12 0 -15 13 -15 60 l0 60 49 0 c35 0 51 -4 55 -16z m56
-44 c0 -47 -3 -60 -15 -60 -12 0 -15 13 -15 60 0 47 3 60 15 60 12 0 15 -13
15 -60z m202 43 c41 -37 10 -103 -48 -103 -34 0 -64 28 -64 60 0 9 7 26 16 38
18 27 69 30 96 5z m108 7 c0 -5 -7 -10 -15 -10 -19 0 -35 -31 -35 -69 0 -21
-5 -31 -15 -31 -12 0 -15 13 -15 60 l0 60 40 0 c22 0 40 -4 40 -10z m160 -9
c20 -39 13 -51 -31 -51 -28 0 -39 -4 -36 -12 2 -7 18 -12 36 -11 45 2 34 -21
-11 -25 -28 -2 -40 2 -52 20 -20 28 -20 48 0 76 20 29 79 31 94 3z m118 7 c18
-18 16 -108 -3 -108 -10 0 -15 10 -15 34 0 43 -9 66 -25 66 -16 0 -25 -23 -25
-66 0 -24 -5 -34 -15 -34 -12 0 -15 13 -15 60 l0 60 43 0 c24 0 48 -5 55 -12z
m142 -55 c0 -81 -15 -103 -72 -103 -26 0 -38 4 -38 14 0 9 10 13 31 12 18 0
34 5 36 12 3 8 -5 12 -24 12 -37 0 -53 16 -53 53 0 52 15 67 70 67 l50 0 0
-67z m111 46 l11 -21 14 21 c12 16 26 21 60 21 l44 0 0 -74 c0 -85 -10 -99
-66 -94 -51 4 -59 28 -8 25 22 -1 39 3 41 11 3 8 -6 12 -26 12 -20 0 -35 8
-45 22 l-16 22 0 -22 c0 -20 -5 -22 -49 -22 -36 0 -51 4 -55 16 -11 28 4 55
35 61 16 3 29 10 29 15 0 5 -13 7 -30 3 -16 -4 -30 -2 -30 3 0 16 13 22 46 22
24 0 37 -6 45 -21z m247 9 c7 -7 12 -22 12 -35 0 -20 -5 -23 -41 -23 -28 0
-39 -4 -36 -12 2 -7 18 -12 36 -12 21 1 31 -3 31 -12 0 -18 -71 -19 -88 -2
-15 15 -16 63 -2 89 12 22 68 27 88 7z m190 0 c18 -16 16 -108 -3 -108 -11 0
-15 11 -15 38 0 20 -4 43 -9 51 -15 24 -31 1 -31 -45 0 -37 -3 -44 -20 -44
-17 0 -20 7 -20 50 0 36 -4 50 -14 50 -15 0 -26 -30 -26 -72 0 -18 -5 -28 -15
-28 -12 0 -15 13 -15 60 l0 60 78 -1 c42 0 83 -5 90 -11z m120 0 c7 -7 12 -22
12 -35 0 -20 -5 -23 -40 -23 -32 0 -38 -3 -33 -16 4 -12 14 -14 40 -9 27 5 34
3 31 -7 -7 -21 -80 -23 -95 -2 -18 24 -16 69 3 88 18 19 65 21 82 4z m130 -50
c2 -46 0 -58 -12 -58 -11 0 -16 13 -18 48 -2 34 -7 47 -18 47 -11 0 -16 -13
-18 -47 -3 -40 -6 -48 -23 -48 -17 0 -19 7 -19 61 l0 60 53 -3 52 -3 3 -57z
m302 43 c5 -11 10 -38 10 -60 l0 -41 -49 0 c-36 0 -51 4 -55 16 -11 28 4 55
35 61 16 3 29 10 29 15 0 5 -13 7 -30 3 -16 -4 -30 -2 -30 3 0 29 74 32 90 3z
m124 3 c3 -9 6 -36 6 -60 0 -32 -4 -44 -15 -44 -11 0 -15 12 -15 44 0 25 -5
48 -12 52 -16 10 -38 -25 -38 -63 0 -23 -5 -33 -15 -33 -12 0 -15 13 -15 60
l0 60 49 0 c35 0 51 -4 55 -16z m336 -47 c0 -84 -17 -109 -73 -105 -22 2 -42
9 -44 15 -3 9 7 12 33 10 22 -1 39 3 41 11 3 8 -5 12 -24 12 -37 0 -53 16 -53
53 0 52 15 67 70 67 l50 0 0 -63z m90 55 c0 -4 -9 -13 -20 -20 -15 -9 -20 -23
-20 -52 0 -29 -4 -40 -15 -40 -12 0 -15 13 -15 60 l0 60 35 0 c19 0 35 -3 35
-8z m108 -4 c7 -7 12 -28 12 -48 0 -45 -15 -60 -60 -60 -43 0 -60 15 -60 53 0
48 16 67 58 67 21 0 43 -5 50 -12z m57 -25 l8 -38 10 38 c6 25 15 37 27 37 13
0 20 -11 25 -37 l8 -38 10 38 c5 20 15 37 23 37 17 0 17 -13 0 -70 -13 -46
-42 -65 -51 -36 -16 50 -17 51 -27 19 -13 -49 -41 -44 -55 10 -7 23 -15 50
-18 60 -5 13 -2 17 13 17 15 0 22 -9 27 -37z m227 -4 l14 -42 14 42 c9 27 19
41 31 41 16 0 16 -3 -3 -52 -38 -100 -49 -118 -74 -118 -13 0 -24 5 -24 10 0
6 6 10 14 10 24 0 26 29 6 83 -24 62 -24 67 -6 67 8 0 21 -19 28 -41z m180 24
c40 -36 9 -103 -47 -103 -35 0 -65 28 -65 60 0 9 7 26 16 38 18 27 69 30 96 5z
m58 -28 c0 -33 5 -47 16 -52 21 -8 34 14 34 60 0 26 4 37 15 37 12 0 15 -13
15 -60 l0 -60 -43 0 c-55 0 -67 13 -67 72 0 36 4 48 15 48 11 0 15 -12 15 -45z
m170 37 c0 -4 -9 -13 -20 -20 -15 -9 -20 -23 -20 -52 0 -29 -4 -40 -15 -40
-12 0 -15 13 -15 60 l0 60 35 0 c19 0 35 -3 35 -8z m-4490 -378 l0 -85 -47 3
c-40 3 -50 7 -63 31 -13 24 -13 30 0 55 11 19 25 28 48 30 26 3 32 8 32 28 0
15 6 24 15 24 12 0 15 -16 15 -86z m60 76 c0 -5 -9 -10 -20 -10 -11 0 -20 5
-20 10 0 6 9 10 20 10 11 0 20 -4 20 -10z m620 0 c0 -5 -7 -10 -15 -10 -18 0
-20 -26 -2 -34 10 -5 10 -7 0 -12 -8 -3 -13 -25 -13 -55 0 -42 -3 -49 -20 -49
-17 0 -20 7 -20 49 0 30 -5 52 -12 55 -10 5 -10 7 0 12 6 3 12 11 12 18 0 7 5
17 12 24 15 15 58 16 58 2z m1550 -75 c0 -69 -3 -85 -15 -85 -12 0 -15 16 -15
85 0 69 3 85 15 85 12 0 15 -16 15 -85z m200 0 l0 -85 -48 0 c-55 0 -72 12
-72 53 0 45 17 67 50 67 25 0 30 4 30 25 0 18 5 25 20 25 18 0 20 -7 20 -85z
m260 60 c0 -21 5 -25 30 -25 36 0 50 -23 50 -79 0 -34 -3 -41 -20 -41 -17 0
-20 7 -20 51 0 43 -3 50 -17 47 -14 -2 -19 -15 -21 -51 -2 -33 -7 -47 -18 -47
-11 0 -14 18 -14 85 0 69 3 85 15 85 9 0 15 -9 15 -25z m130 0 c0 -21 5 -25
28 -25 37 0 52 -17 52 -60 0 -48 -15 -60 -72 -60 l-48 0 0 85 c0 78 2 85 20
85 15 0 20 -7 20 -25z m530 -61 l0 -85 -47 3 c-39 2 -50 8 -62 29 -21 38 2 83
47 87 26 3 32 7 32 28 0 15 6 24 15 24 12 0 15 -16 15 -86z m-1380 51 c0 -8 7
-15 15 -15 8 0 15 -4 15 -10 0 -5 -7 -10 -15 -10 -11 0 -15 -11 -15 -40 0 -29
4 -40 15 -40 8 0 15 -5 15 -11 0 -6 -12 -9 -27 -7 -25 3 -28 7 -31 48 -2 24
-9 48 -15 53 -9 7 -9 10 1 14 6 2 12 11 12 19 0 8 7 14 15 14 8 0 15 -7 15
-15z m-2230 -34 c5 -11 10 -38 10 -60 l0 -41 -49 0 c-36 0 -51 4 -55 16 -11
28 4 55 35 61 16 3 29 10 29 15 0 5 -13 7 -30 3 -16 -4 -30 -2 -30 3 0 29 74
32 90 3z m60 -32 c0 -43 3 -50 18 -47 13 2 18 15 20 51 2 33 7 47 18 47 11 0
14 -14 14 -60 l0 -60 -45 0 c-52 0 -65 16 -65 79 0 34 3 41 20 41 17 0 20 -7
20 -51z m260 -9 c0 -53 -2 -60 -20 -60 -18 0 -20 7 -20 60 0 53 2 60 20 60 18
0 20 -7 20 -60z m118 35 c18 -40 15 -45 -29 -45 -28 0 -39 -4 -36 -12 2 -8 18
-12 36 -10 23 2 32 -2 29 -10 -7 -21 -67 -22 -89 -2 -40 36 -11 104 45 104 25
0 35 -6 44 -25z m122 6 c5 -11 10 -38 10 -60 0 -34 -3 -41 -20 -41 -17 0 -20
7 -20 51 0 43 -3 50 -17 47 -14 -2 -19 -15 -21 -51 -2 -33 -7 -47 -18 -47 -11
0 -14 14 -14 60 l0 60 45 0 c34 0 47 -5 55 -19z m120 9 c0 -5 -11 -10 -24 -10
-32 0 -50 -24 -42 -56 6 -23 11 -26 37 -20 22 4 29 2 27 -7 -6 -16 -66 -21
-84 -6 -19 15 -18 74 2 93 17 18 84 22 84 6z m98 -2 c7 -7 12 -22 12 -35 0
-20 -5 -23 -40 -23 -32 0 -38 -3 -33 -16 4 -12 14 -14 40 -9 27 5 34 3 31 -7
-7 -21 -80 -23 -95 -2 -18 24 -16 69 3 88 18 19 65 21 82 4z m232 4 c0 -4 -9
-13 -20 -20 -15 -9 -20 -23 -20 -52 0 -29 -4 -40 -15 -40 -12 0 -15 13 -15 60
l0 60 35 0 c19 0 35 -3 35 -8z m120 -24 c13 -25 13 -31 0 -55 -12 -21 -24 -29
-52 -31 -43 -4 -68 17 -68 58 0 41 25 62 68 58 28 -2 40 -10 52 -30z m188 -30
c2 -47 0 -58 -13 -58 -11 0 -15 12 -15 50 0 36 -4 50 -14 50 -17 0 -26 -22
-26 -66 0 -23 -5 -34 -14 -34 -11 0 -16 14 -18 48 -2 34 -7 47 -18 47 -11 0
-16 -13 -18 -47 -2 -34 -7 -48 -18 -48 -11 0 -14 14 -14 60 l0 60 83 -2 82 -3
3 -57z m192 43 c27 -51 -1 -101 -56 -101 -34 0 -64 28 -64 60 0 9 7 26 16 38
20 30 88 31 104 3z m128 -43 c2 -46 0 -58 -12 -58 -11 0 -16 13 -18 48 -2 34
-7 47 -18 47 -11 0 -16 -13 -18 -47 -3 -40 -6 -48 -23 -48 -17 0 -19 7 -19 61
l0 60 53 -3 52 -3 3 -57z m122 43 c20 -39 13 -51 -31 -51 -28 0 -39 -4 -36
-12 2 -7 18 -12 36 -11 45 2 34 -21 -11 -25 -28 -2 -40 2 -52 20 -20 28 -20
48 0 76 20 29 79 31 94 3z m180 10 c0 -6 -15 -11 -32 -13 -28 -3 -34 -7 -36
-32 -4 -36 8 -49 42 -40 19 4 26 13 26 31 0 42 18 63 53 63 39 0 57 -15 57
-47 0 -20 -5 -23 -41 -23 -28 0 -39 -4 -36 -12 2 -7 18 -12 36 -12 21 1 31 -3
31 -12 0 -17 -70 -20 -87 -3 -8 8 -13 8 -17 0 -13 -20 -74 -13 -90 11 -34 48
-6 98 55 98 21 0 39 -4 39 -9z m228 -53 c2 -46 0 -58 -12 -58 -11 0 -16 13
-18 48 -2 34 -7 47 -18 47 -11 0 -16 -13 -18 -47 -3 -40 -6 -48 -23 -48 -17 0
-19 7 -19 61 l0 60 53 -3 52 -3 3 -57z m172 54 c0 -4 -9 -13 -20 -20 -15 -9
-20 -23 -20 -52 0 -29 -4 -40 -15 -40 -12 0 -15 13 -15 60 l0 60 35 0 c19 0
35 -3 35 -8z m94 -8 c3 -9 6 -36 6 -60 l0 -45 -47 3 c-41 3 -48 6 -51 26 -5
30 14 52 45 52 15 0 22 4 17 11 -3 6 -17 8 -30 5 -17 -5 -24 -2 -24 9 0 22 76
21 84 -1z m364 -47 l3 -58 -48 3 c-46 3 -48 4 -48 33 0 25 5 32 33 40 40 12
42 30 2 22 -16 -4 -30 -3 -30 2 0 16 15 22 50 19 l35 -3 3 -58z m102 48 c0
-11 -7 -14 -25 -9 -32 8 -33 -11 -2 -27 31 -16 37 -30 26 -52 -8 -13 -19 -17
-46 -15 -20 2 -38 9 -41 15 -2 9 5 11 27 7 37 -8 42 10 9 27 -31 16 -38 30
-27 51 13 23 79 26 79 3z m389 -16 c12 -22 12 -29 0 -55 -11 -23 -22 -30 -50
-32 -44 -4 -69 17 -69 58 0 41 25 62 68 58 27 -2 40 -10 51 -29z m111 12 c5
-11 10 -38 10 -60 l0 -41 -49 0 c-36 0 -51 4 -55 16 -11 28 4 55 35 61 16 3
29 10 29 15 0 5 -13 7 -30 3 -16 -4 -30 -2 -30 3 0 29 74 32 90 3z m100 10 c0
-5 -9 -11 -20 -14 -16 -4 -20 -14 -20 -51 0 -39 -3 -46 -20 -46 -18 0 -20 7
-20 60 l0 60 40 0 c22 0 40 -4 40 -9z m170 -96 c0 -8 -9 -15 -20 -15 -11 0
-20 7 -20 15 0 8 9 15 20 15 11 0 20 -7 20 -15z"/>
<path d="M14672 4358 c-24 -24 -11 -78 19 -78 26 0 47 45 32 68 -13 22 -35 26
-51 10z"/>
<path d="M12770 4421 c0 -31 13 -39 38 -22 21 13 10 46 -16 49 -19 3 -22 -1
-22 -27z"/>
<path d="M12770 4310 c0 -28 3 -31 28 -28 21 2 27 8 27 28 0 20 -6 26 -27 28
-25 3 -28 0 -28 -28z"/>
<path d="M13607 4398 c-4 -14 -10 -33 -13 -42 -5 -12 0 -16 20 -16 29 0 29 1
12 50 l-13 35 -6 -27z"/>
<path d="M14433 4375 c-11 -34 -10 -35 14 -35 22 0 24 3 18 28 -10 43 -21 45
-32 7z"/>
<path d="M10920 4365 c-11 -13 -9 -15 15 -15 16 0 25 5 23 12 -7 19 -24 20
-38 3z"/>
<path d="M11412 4358 c-26 -26 -8 -83 23 -76 26 5 39 31 31 61 -7 29 -33 36
-54 15z"/>
<path d="M11980 4365 c-11 -13 -9 -15 15 -15 16 0 25 5 23 12 -7 19 -24 20
-38 3z"/>
<path d="M12429 4349 c-16 -31 4 -71 33 -67 25 4 38 35 27 66 -11 28 -45 29
-60 1z"/>
<path d="M13109 4349 c-16 -31 4 -71 33 -67 25 4 38 35 27 66 -11 28 -45 29
-60 1z"/>
<path d="M13342 4358 c-25 -25 -8 -78 25 -78 22 0 36 40 24 66 -12 26 -30 31
-49 12z"/>
<path d="M13844 4346 c-10 -41 -1 -61 26 -61 22 0 25 4 25 40 0 34 -4 40 -22
43 -17 3 -24 -3 -29 -22z"/>
<path d="M14082 4358 c-26 -26 -8 -83 24 -76 15 2 19 12 19 43 0 42 -19 57
-43 33z"/>
<path d="M14771 3778 c-11 -29 4 -60 27 -56 24 5 24 71 -1 76 -11 2 -20 -5
-26 -20z"/>
<path d="M10261 3746 c-8 -10 -9 -16 -1 -21 13 -8 30 3 30 21 0 18 -14 18 -29
0z"/>
<path d="M10501 3746 c-8 -10 -9 -16 -1 -21 13 -8 30 3 30 21 0 18 -14 18 -29
0z"/>
<path d="M10614 3776 c-8 -35 2 -58 23 -54 25 5 25 71 1 76 -12 2 -19 -5 -24
-22z"/>
<path d="M10750 3785 c-11 -13 -9 -15 15 -15 16 0 25 5 23 12 -7 19 -24 20
-38 3z"/>
<path d="M11035 3781 c-10 -34 4 -63 28 -59 18 2 22 10 22 38 0 28 -4 36 -22
38 -14 2 -23 -3 -28 -17z"/>
<path d="M11547 3793 c-4 -3 -7 -19 -7 -35 0 -34 25 -47 48 -25 13 13 13 21 4
42 -11 24 -31 32 -45 18z"/>
<path d="M11877 3794 c-14 -14 -6 -24 19 -24 16 0 24 5 22 13 -5 14 -31 21
-41 11z"/>
<path d="M12507 3793 c-4 -3 -7 -19 -7 -35 0 -34 25 -47 48 -25 13 13 13 21 4
42 -11 24 -31 32 -45 18z"/>
<path d="M12897 3793 c-4 -3 -7 -19 -7 -35 0 -34 25 -47 48 -25 13 13 13 21 4
42 -11 24 -31 32 -45 18z"/>
<path d="M13167 3793 c-13 -12 -7 -23 13 -23 11 0 20 7 20 15 0 15 -21 21 -33
8z"/>
<path d="M13410 3785 c-15 -18 -5 -65 14 -65 22 0 39 28 32 55 -7 28 -27 33
-46 10z"/>
<path d="M13654 3786 c-11 -28 0 -61 21 -61 16 0 20 7 20 35 0 25 -5 36 -18
38 -9 2 -20 -3 -23 -12z"/>
<path d="M13541 3746 c-8 -10 -9 -16 -1 -21 13 -8 30 3 30 21 0 18 -14 18 -29
0z"/>
<path d="M13787 3794 c-14 -14 -6 -24 19 -24 16 0 24 5 22 13 -5 14 -31 21
-41 11z"/>
<path d="M14097 3785 c-5 -11 0 -15 19 -15 16 0 24 5 22 13 -7 18 -35 20 -41
2z"/>
<path d="M14530 3750 c-11 -7 -12 -12 -3 -21 13 -13 33 -4 33 17 0 16 -9 18
-30 4z"/>
<path d="M14964 3776 c-8 -35 2 -58 23 -54 25 5 25 71 1 76 -12 2 -19 -5 -24
-22z"/>
<path d="M15175 3781 c-10 -34 4 -63 28 -59 18 2 22 10 22 38 0 28 -4 36 -22
38 -14 2 -23 -3 -28 -17z"/>
<path d="M15640 3781 c-13 -26 4 -64 27 -59 25 5 40 35 27 56 -16 25 -41 26
-54 3z"/>
<path d="M11374 3436 c-11 -28 0 -61 21 -61 16 0 20 7 20 35 0 25 -5 36 -18
38 -9 2 -20 -3 -23 -12z"/>
<path d="M13794 3426 c-8 -35 2 -58 23 -54 25 5 25 71 1 76 -12 2 -19 -5 -24
-22z"/>
<path d="M14274 3436 c-11 -28 0 -61 21 -61 16 0 20 7 20 35 0 25 -5 36 -18
38 -9 2 -20 -3 -23 -12z"/>
<path d="M14724 3436 c-11 -28 0 -61 21 -61 16 0 20 7 20 35 0 25 -5 36 -18
38 -9 2 -20 -3 -23 -12z"/>
<path d="M11131 3396 c-8 -10 -9 -16 -1 -21 13 -8 30 3 30 21 0 18 -14 18 -29
0z"/>
<path d="M11567 3443 c-13 -12 -7 -23 13 -23 11 0 20 7 20 15 0 15 -21 21 -33
8z"/>
<path d="M11907 3435 c-5 -11 0 -15 19 -15 16 0 24 5 22 13 -7 18 -35 20 -41
2z"/>
<path d="M12242 3438 c-27 -27 0 -77 34 -64 10 4 14 16 12 38 -3 35 -25 47
-46 26z"/>
<path d="M12624 3436 c-11 -28 0 -61 20 -61 27 0 44 30 30 53 -15 22 -43 27
-50 8z"/>
<path d="M12887 3443 c-13 -12 -7 -23 13 -23 11 0 20 7 20 15 0 15 -21 21 -33
8z"/>
<path d="M13167 3444 c-14 -14 -6 -24 19 -24 16 0 24 5 22 13 -5 14 -31 21
-41 11z"/>
<path d="M13567 3403 c-12 -11 -7 -33 7 -33 12 0 26 20 26 36 0 7 -26 5 -33
-3z"/>
<path d="M13923 3395 c-3 -9 -3 -18 0 -22 10 -10 37 6 37 22 0 20 -29 20 -37
0z"/>
<path d="M14402 3438 c-27 -27 0 -77 34 -64 10 4 14 16 12 38 -3 35 -25 47
-46 26z"/>
<path d="M14530 3400 c-11 -7 -12 -12 -3 -21 13 -13 33 -4 33 17 0 16 -9 18
-30 4z"/>
<path d="M3000 5375 c0 -108 1 -115 20 -115 19 0 20 7 20 115 0 108 -1 115
-20 115 -19 0 -20 -7 -20 -115z"/>
<path d="M4360 5375 l0 -115 25 0 c22 0 25 4 25 38 l1 37 22 -37 c17 -30 28
-38 51 -38 l28 0 -26 35 c-28 37 -28 62 -1 85 22 18 18 30 -8 30 -15 0 -29
-11 -42 -32 l-20 -33 -3 73 c-3 69 -4 72 -27 72 l-25 0 0 -115z"/>
<path d="M2569 5368 c25 -95 29 -103 53 -106 24 -3 28 2 43 55 28 102 24 104
56 -19 8 -31 14 -38 34 -38 25 0 27 4 64 145 15 56 14 65 -8 65 -21 0 -26 -10
-37 -75 -12 -72 -20 -71 -39 4 -16 68 -19 72 -43 69 -22 -3 -28 -12 -46 -78
l-20 -75 -9 40 c-25 110 -27 115 -52 115 l-23 0 27 -102z"/>
<path d="M3890 5364 l0 -106 66 4 c50 3 70 9 80 23 20 27 17 62 -6 78 -18 13
-19 16 -5 27 21 18 19 57 -4 70 -11 5 -45 10 -75 10 l-56 0 0 -106z m89 67
c19 -12 6 -41 -19 -41 -15 0 -20 7 -20 25 0 26 14 31 39 16z m18 -97 c4 -11
-1 -22 -12 -30 -30 -22 -45 -17 -45 16 0 25 4 30 25 30 15 0 28 -7 32 -16z"/>
<path d="M2862 5390 c-31 -29 -31 -93 0 -114 36 -25 108 -19 108 9 0 10 -10
12 -33 8 -23 -3 -37 0 -46 11 -12 14 -8 16 38 16 48 0 51 2 51 25 0 57 -75 85
-118 45z m72 -25 c4 -11 -2 -15 -26 -15 -26 0 -29 2 -18 15 7 8 18 15 25 15 7
0 15 -7 19 -15z"/>
<path d="M3095 5385 c-51 -50 -13 -130 59 -123 44 4 50 38 7 38 -19 0 -34 7
-40 18 -14 27 5 52 39 52 23 0 30 5 30 20 0 31 -63 28 -95 -5z"/>
<path d="M3230 5392 c-31 -25 -31 -89 1 -115 29 -23 96 -18 116 9 22 30 16 91
-9 108 -30 21 -81 20 -108 -2z m85 -57 c0 -27 -3 -30 -30 -30 -21 0 -31 5 -33
18 -6 33 6 49 35 45 24 -3 28 -8 28 -33z"/>
<path d="M3390 5335 c0 -68 2 -75 20 -75 17 0 20 7 20 39 0 52 8 71 30 71 22
0 30 -19 30 -71 0 -32 3 -39 19 -39 17 0 20 8 23 53 3 45 6 52 26 55 21 3 22
0 22 -52 0 -49 2 -56 20 -56 18 0 20 7 20 63 0 67 -10 87 -45 87 -12 0 -26 -5
-33 -12 -9 -9 -15 -9 -24 0 -16 16 -50 15 -67 0 -11 -10 -14 -10 -18 0 -3 6
-13 12 -24 12 -17 0 -19 -8 -19 -75z"/>
<path d="M3675 5385 c-44 -43 -28 -106 31 -121 34 -9 74 3 74 22 0 11 -6 13
-20 9 -23 -7 -60 2 -60 16 0 5 20 9 45 9 41 0 45 2 45 25 0 32 -33 65 -65 65
-14 0 -37 -11 -50 -25z m73 -22 c2 -8 -6 -13 -22 -13 -25 0 -33 10 -19 24 10
10 36 3 41 -11z"/>
<path d="M4088 5403 c-33 -8 -21 -33 15 -30 42 3 51 -15 11 -23 -43 -9 -54
-18 -54 -44 0 -28 18 -46 45 -46 12 0 26 5 33 12 9 9 12 9 12 0 0 -7 9 -12 20
-12 18 0 20 7 20 59 0 82 -27 104 -102 84z m62 -87 c0 -18 -30 -30 -43 -17 -5
5 -6 14 -3 20 10 16 46 13 46 -3z"/>
<path d="M4247 5390 c-34 -27 -37 -80 -6 -111 26 -26 92 -24 97 4 3 13 -4 17
-31 17 -37 0 -52 18 -42 51 5 14 16 19 41 19 28 0 35 4 32 18 -5 26 -58 27
-91 2z"/>
<path d="M3870 4991 c0 -24 -3 -28 -24 -24 -13 3 -26 1 -29 -4 -3 -5 7 -9 21
-8 24 0 27 -4 28 -32 1 -67 14 -43 14 25 0 40 -2 72 -5 72 -3 0 -5 -13 -5 -29z"/>
<path d="M4310 4989 c0 -18 -4 -28 -10 -24 -14 9 -50 -4 -50 -17 0 -6 6 -6 15
2 21 18 45 5 45 -25 0 -31 -24 -43 -47 -24 -14 12 -16 12 -11 -1 3 -9 18 -15
36 -16 l32 -1 0 69 c0 37 -2 68 -5 68 -3 0 -5 -14 -5 -31z"/>
<path d="M4523 4950 c0 -54 2 -64 6 -35 5 31 10 40 26 40 16 0 21 -9 26 -40
l6 -40 2 36 c1 39 -19 65 -43 56 -11 -4 -16 3 -19 26 -2 18 -4 -2 -4 -43z"/>
<path d="M5030 4991 c0 -23 -4 -28 -18 -24 -25 6 -44 -20 -40 -54 3 -24 8 -28
36 -29 l32 -1 0 69 c0 37 -2 68 -5 68 -3 0 -5 -13 -5 -29z m-5 -66 c0 -23 -4
-30 -20 -30 -21 0 -31 25 -21 51 11 28 41 12 41 -21z"/>
<path d="M2028 5003 c6 -2 18 -2 25 0 6 3 1 5 -13 5 -14 0 -19 -2 -12 -5z"/>
<path d="M2001 4983 c-1 -14 10 -30 29 -43 36 -26 34 -43 -6 -51 -29 -7 -29
-7 -3 -8 53 -2 60 58 10 74 -11 3 -22 16 -24 28 l-4 22 -2 -22z"/>
<path d="M2581 4988 c-1 -10 -7 -18 -13 -18 -10 0 -10 -2 -1 -8 6 -4 13 -23
15 -41 2 -19 9 -36 16 -37 7 -1 8 0 2 3 -15 7 -13 73 3 73 8 0 9 3 1 8 -6 4
-14 14 -17 22 -4 12 -6 11 -6 -2z"/>
<path d="M2093 4925 c0 -27 2 -38 4 -22 2 15 2 37 0 50 -2 12 -4 0 -4 -28z"/>
<path d="M2142 4958 c-26 -26 -7 -79 28 -77 9 0 6 4 -8 10 -18 7 -23 15 -20
36 2 22 8 28 28 28 22 0 25 -4 26 -40 1 -55 -4 -65 -35 -66 -26 -2 -26 -2 -2
-6 34 -7 51 20 51 77 0 43 -2 46 -28 48 -15 1 -33 -3 -40 -10z"/>
<path d="M2241 4920 l2 -45 6 40 c5 31 10 40 26 40 16 0 21 -9 26 -40 l6 -40
2 36 c1 41 -14 59 -47 56 -19 -1 -22 -7 -21 -47z"/>
<path d="M2393 4925 c0 -27 2 -38 4 -22 2 15 2 37 0 50 -2 12 -4 0 -4 -28z"/>
<path d="M2431 4920 l2 -45 6 40 c5 31 10 40 26 40 16 0 21 -9 26 -40 l6 -40
2 36 c1 41 -14 59 -47 56 -19 -1 -22 -7 -21 -47z"/>
<path d="M2640 4956 c-28 -35 11 -93 48 -70 35 22 22 84 -18 84 -10 0 -23 -7
-30 -14z m55 -31 c0 -25 -4 -30 -25 -30 -16 0 -26 6 -28 18 -6 30 6 49 30 45
18 -2 23 -9 23 -33z"/>
<path d="M2790 4966 c0 -2 11 -6 25 -8 13 -3 22 -1 19 3 -5 9 -44 13 -44 5z"/>
<path d="M2882 4958 c-28 -28 -7 -79 33 -77 17 1 16 2 -5 8 -19 5 -25 13 -25
36 0 23 6 31 25 36 21 6 22 7 5 8 -12 1 -26 -4 -33 -11z"/>
<path d="M2962 4958 c-28 -28 -7 -79 33 -77 17 1 16 2 -5 8 -19 5 -25 13 -25
36 0 23 6 31 25 36 21 6 22 7 5 8 -12 1 -26 -4 -33 -11z"/>
<path d="M3042 4958 c-28 -28 -7 -79 33 -77 17 1 17 2 -4 8 -38 10 -38 31 -1
31 27 0 31 3 28 23 -3 25 -36 35 -56 15z m46 -15 c2 -8 -6 -13 -22 -13 -25 0
-33 10 -19 24 10 10 36 3 41 -11z"/>
<path d="M3127 4963 c-14 -13 -6 -30 20 -42 27 -13 23 -25 -12 -34 -19 -4 -19
-5 1 -6 12 0 27 5 33 13 10 12 7 18 -13 31 -32 21 -33 32 -3 38 20 4 20 4 1 6
-11 0 -24 -2 -27 -6z"/>
<path d="M3203 4953 c-4 -11 1 -22 15 -31 28 -18 28 -29 0 -35 -20 -5 -20 -5
2 -4 32 2 41 36 11 44 -28 7 -27 30 2 36 l22 4 -23 2 c-13 0 -25 -6 -29 -16z"/>
<path d="M3314 4960 c3 -8 10 -32 17 -54 12 -35 11 -40 -6 -52 -10 -8 -14 -14
-7 -14 14 0 37 35 46 70 6 22 6 23 -5 6 -10 -17 -13 -15 -30 20 -11 22 -17 32
-15 24z"/>
<path d="M3375 4959 c-4 -6 -5 -12 -2 -15 2 -3 7 2 10 11 7 17 1 20 -8 4z"/>
<path d="M3416 4962 c-2 -4 8 -8 22 -7 23 0 27 -4 27 -30 0 -25 -4 -30 -25
-30 -17 0 -26 7 -32 25 -7 25 -7 25 -5 1 3 -32 31 -50 55 -35 21 14 28 64 10
75 -17 11 -45 11 -52 1z"/>
<path d="M3514 4930 c1 -36 5 -45 21 -48 18 -4 19 -3 3 10 -9 7 -19 29 -21 48
-3 26 -4 24 -3 -10z"/>
<path d="M3568 4929 c-2 -22 0 -43 4 -45 4 -3 8 15 8 40 0 57 -7 60 -12 5z"/>
<path d="M3612 4920 c1 -40 2 -41 5 -10 2 19 11 40 20 47 13 10 13 12 -6 10
-18 -1 -21 -7 -19 -47z"/>
<path d="M3730 4963 c46 -15 46 -15 25 -23 -18 -8 -18 -9 -2 -9 13 -1 17 -6
12 -20 -3 -11 -1 -22 5 -26 6 -4 10 6 10 24 0 46 -10 61 -39 60 -14 0 -19 -3
-11 -6z"/>
<path d="M3911 4921 l2 -46 6 40 c7 46 37 62 45 23 3 -13 7 -32 9 -43 3 -11 5
-1 6 23 0 23 -2 43 -6 44 -5 0 -20 2 -35 3 -27 2 -28 0 -27 -44z"/>
<path d="M4002 4964 c11 -4 18 -19 21 -45 l4 -39 -1 42 c-1 35 -5 43 -21 45
-15 1 -15 0 -3 -3z"/>
<path d="M4063 4925 c0 -27 2 -38 4 -22 2 15 2 37 0 50 -2 12 -4 0 -4 -28z"/>
<path d="M4100 4925 c0 -27 2 -46 4 -44 8 8 10 78 3 85 -4 4 -7 -14 -7 -41z"/>
<path d="M4142 4964 c11 -4 18 -19 21 -45 l4 -39 -1 42 c-1 35 -5 43 -21 45
-15 1 -15 0 -3 -3z"/>
<path d="M4360 4966 c0 -2 11 -6 25 -8 13 -3 22 -1 19 3 -5 9 -44 13 -44 5z"/>
<path d="M4443 4953 c-4 -11 1 -22 15 -31 28 -18 28 -29 0 -35 -20 -5 -20 -5
2 -4 32 2 41 36 11 44 -28 7 -27 30 2 36 l22 4 -23 2 c-13 0 -25 -6 -29 -16z"/>
<path d="M4658 4960 c14 -6 22 -18 22 -35 0 -17 -7 -29 -22 -35 -16 -6 -18 -9
-7 -9 24 -1 41 24 37 56 -2 22 -9 29 -28 30 -25 3 -25 3 -2 -7z"/>
<path d="M4733 4963 c-7 -2 -13 -10 -13 -16 0 -8 4 -7 12 1 18 18 46 14 53 -7
13 -41 -24 -68 -53 -39 -8 8 -12 8 -12 1 0 -12 23 -23 46 -23 8 0 19 11 25 24
20 43 -14 77 -58 59z"/>
<path d="M4848 4963 c30 -6 28 -19 -4 -27 -37 -10 -30 -51 9 -52 27 -1 28 1
25 40 -3 36 -6 41 -28 43 -22 1 -22 1 -2 -4z m22 -48 c0 -16 -27 -32 -37 -22
-3 4 -3 13 0 22 8 20 37 20 37 0z"/>
<path d="M4912 4920 c1 -40 2 -41 5 -10 2 19 11 40 20 47 13 10 13 12 -6 10
-18 -1 -21 -7 -19 -47z"/>
<path d="M2790 4925 c-16 -19 -6 -45 17 -44 17 1 17 2 0 6 -25 7 -17 37 12 41
19 3 22 0 17 -16 -4 -11 -2 -23 4 -27 6 -4 10 6 10 24 0 26 -4 31 -24 31 -13
0 -29 -7 -36 -15z"/>
<path d="M3801 4925 c-1 -25 17 -45 39 -44 10 0 9 3 -5 8 -11 4 -23 19 -26 32
-6 21 -7 21 -8 4z"/>
<path d="M4360 4925 c-16 -19 -6 -45 17 -44 17 1 17 2 0 6 -25 7 -17 37 12 41
19 3 22 0 17 -16 -4 -11 -2 -23 4 -27 6 -4 10 6 10 24 0 26 -4 31 -24 31 -13
0 -29 -7 -36 -15z"/>
<path d="M3714 4915 c-8 -19 4 -35 24 -34 14 1 14 2 -1 6 -13 3 -17 11 -14 24
6 22 -1 26 -9 4z"/>
<path d="M1523 4300 c0 -41 2 -58 4 -37 2 20 2 54 0 75 -2 20 -4 3 -4 -38z"/>
<path d="M1770 4339 c0 -26 -3 -29 -20 -24 -26 8 -50 -11 -50 -40 0 -29 18
-44 52 -42 28 2 28 3 28 70 0 37 -2 67 -5 67 -3 0 -5 -14 -5 -31z m-6 -48 c10
-16 -5 -41 -24 -41 -20 0 -30 17 -22 38 5 14 38 16 46 3z"/>
<path d="M1870 4341 c0 -25 -3 -28 -25 -24 -19 4 -27 0 -36 -20 -17 -38 2 -65
46 -64 l35 1 0 68 c0 39 -4 68 -10 68 -5 0 -10 -13 -10 -29z m0 -66 c0 -24
-16 -35 -37 -27 -16 5 -17 34 -2 49 17 17 39 4 39 -22z"/>
<path d="M1140 4295 l0 -65 30 0 c17 0 30 5 30 10 0 6 -11 10 -25 10 -18 0
-25 5 -25 20 0 15 7 20 25 20 14 0 25 5 25 10 0 6 -11 10 -25 10 -16 0 -25 6
-25 15 0 9 9 15 25 15 14 0 25 5 25 10 0 6 -13 10 -30 10 l-30 0 0 -65z"/>
<path d="M1470 4350 c0 -5 5 -10 10 -10 6 0 10 5 10 10 0 6 -4 10 -10 10 -5 0
-10 -4 -10 -10z"/>
<path d="M1231 4270 c2 -44 2 -44 8 -10 9 50 41 55 41 6 0 -20 5 -36 10 -36 6
0 10 16 10 35 0 28 4 35 20 35 16 0 20 -7 20 -35 0 -19 5 -35 10 -35 14 0 12
67 -2 77 -7 4 -37 8 -65 8 l-53 1 1 -46z"/>
<path d="M1384 4309 c-4 -7 0 -9 14 -5 11 4 23 2 27 -4 3 -5 0 -10 -7 -10 -24
0 -49 -25 -43 -42 4 -11 18 -16 41 -15 31 1 34 4 34 32 0 17 -5 36 -12 43 -15
15 -45 16 -54 1z m46 -43 c0 -18 -27 -29 -36 -14 -4 5 0 14 7 19 20 13 29 11
29 -5z"/>
<path d="M1470 4275 c0 -25 5 -45 10 -45 6 0 10 20 10 45 0 25 -4 45 -10 45
-5 0 -10 -20 -10 -45z"/>
<path d="M1620 4311 c0 -6 6 -8 14 -5 8 3 17 1 20 -5 4 -6 -5 -13 -19 -17 -19
-5 -25 -12 -23 -28 2 -16 11 -21 36 -23 33 -1 33 -1 30 40 -3 37 -6 42 -30 45
-16 2 -28 -1 -28 -7z m40 -46 c0 -8 -7 -15 -15 -15 -16 0 -20 12 -8 23 11 12
23 8 23 -8z"/>
<path d="M1910 4274 c0 -24 5 -44 10 -44 6 0 10 14 10 30 0 18 6 33 15 36 23
9 18 19 -10 20 -23 2 -25 -1 -25 -42z"/>
<path d="M1986 4304 c-19 -18 -20 -28 -6 -55 11 -20 60 -27 60 -8 0 6 -6 9
-14 6 -14 -5 -36 10 -36 25 0 4 14 8 30 8 32 0 42 23 14 34 -24 9 -31 8 -48
-10z m39 -4 c3 -6 -4 -10 -17 -10 -18 0 -20 2 -8 10 19 12 18 12 25 0z"/>
<path d="M2073 4304 c-4 -11 2 -23 17 -34 25 -19 14 -35 -16 -23 -12 4 -15 3
-10 -5 11 -18 46 -15 53 4 4 11 -2 23 -17 34 -15 11 -19 19 -11 24 6 4 16 4
21 1 6 -3 10 -1 10 4 0 17 -40 13 -47 -5z"/>
<path d="M2151 4311 c-18 -11 -7 -41 15 -41 8 0 14 -6 11 -12 -2 -7 -11 -12
-21 -10 -9 2 -16 -2 -16 -8 0 -12 30 -13 49 -1 18 11 7 41 -15 41 -8 0 -14 6
-11 13 2 6 10 11 16 10 6 -2 11 2 11 7 0 12 -20 13 -39 1z"/>
<path d="M1790 4041 c0 -24 -3 -28 -20 -24 -26 7 -50 -13 -50 -42 0 -29 20
-46 54 -43 25 2 26 4 26 70 0 37 -2 68 -5 68 -3 0 -5 -13 -5 -29z m-5 -42 c12
-19 -4 -59 -24 -59 -22 0 -34 25 -26 51 7 20 40 26 50 8z"/>
<path d="M2803 4000 c0 -41 2 -58 4 -37 2 20 2 54 0 75 -2 20 -4 3 -4 -38z"/>
<path d="M2145 4035 c-30 -30 -32 -64 -4 -99 20 -25 71 -37 83 -18 3 5 -8 6
-24 4 -58 -8 -92 66 -50 108 41 41 105 11 98 -46 -5 -43 -28 -43 -28 1 0 34
-2 36 -27 33 -25 -3 -28 -7 -28 -38 0 -33 2 -35 35 -37 43 -2 60 11 60 48 0
63 -70 90 -115 44z m60 -35 c10 -16 -5 -50 -21 -50 -8 0 -14 10 -14 23 0 34
21 50 35 27z"/>
<path d="M1655 4013 c30 -8 42 -23 18 -23 -25 0 -47 -25 -39 -45 3 -8 13 -15
23 -15 15 0 15 2 -3 15 -16 13 -17 16 -4 25 25 16 42 12 35 -9 -3 -11 -1 -22
5 -26 8 -5 10 7 8 37 -3 40 -5 43 -33 45 -18 1 -22 -1 -10 -4z"/>
<path d="M1831 3971 l2 -46 6 40 c4 27 12 41 24 43 14 3 17 -4 17 -37 0 -51
18 -54 22 -3 4 52 31 50 39 -3 l7 -40 -2 45 -1 45 -57 1 -58 1 1 -46z"/>
<path d="M1983 3975 c0 -27 2 -38 4 -22 2 15 2 37 0 50 -2 12 -4 0 -4 -28z"/>
<path d="M2021 3975 l1 -50 8 40 c5 22 4 44 -1 50 -5 5 -9 -11 -8 -40z"/>
<path d="M2062 4008 c9 -7 19 -29 21 -48 3 -26 4 -24 3 10 -1 36 -5 45 -21 48
-18 4 -19 3 -3 -10z"/>
<path d="M2289 3999 c-17 -33 3 -69 38 -68 27 1 28 1 4 8 -37 10 -38 31 -2 31
32 0 41 16 19 38 -19 19 -46 14 -59 -9z m55 -4 c4 -11 -1 -15 -19 -15 -24 0
-32 10 -18 23 11 12 31 8 37 -8z"/>
<path d="M2382 3998 c14 -20 14 -26 0 -48 l-16 -25 22 19 c19 17 22 17 28 2 3
-9 11 -16 16 -16 6 0 4 10 -5 23 -13 20 -13 25 2 47 l15 25 -22 -19 c-19 -17
-22 -17 -28 -2 -3 9 -11 16 -16 16 -6 0 -4 -10 4 -22z"/>
<path d="M2465 4011 c-3 -7 0 -8 9 -5 32 12 38 -9 7 -22 -44 -18 -39 -49 7
-50 33 -1 33 0 30 40 -2 33 -7 42 -25 44 -11 2 -24 -2 -28 -7z m45 -46 c0 -16
-27 -32 -37 -22 -3 4 -3 13 0 22 8 20 37 20 37 0z"/>
<path d="M2551 3971 l2 -46 6 40 c4 27 12 41 24 43 14 3 17 -4 17 -37 0 -51
18 -54 22 -3 4 52 31 50 39 -3 l7 -40 -2 45 -1 45 -57 1 -58 1 1 -46z"/>
<path d="M2701 3950 c1 -36 4 -53 6 -39 3 21 9 26 24 22 25 -7 49 14 49 42 0
29 -20 46 -54 43 -25 -2 -26 -4 -25 -68z m64 39 c8 -26 -16 -54 -39 -46 -16 6
-22 48 -9 60 14 14 42 6 48 -14z"/>
<path d="M2852 4008 c-15 -15 -16 -50 0 -66 14 -14 44 -16 52 -4 2 4 -7 8 -21
7 -14 0 -28 6 -30 13 -3 8 6 12 27 12 27 0 31 3 28 23 -3 25 -36 35 -56 15z
m46 -15 c2 -8 -6 -13 -22 -13 -19 0 -24 4 -19 15 6 18 34 16 41 -2z"/>
<path d="M2982 4008 c-28 -28 -7 -79 33 -77 17 1 16 2 -5 8 -18 5 -25 14 -25
31 0 16 9 29 25 37 22 11 23 13 5 13 -12 0 -26 -5 -33 -12z"/>
<path d="M3060 4006 c-28 -35 11 -93 48 -70 21 14 28 64 10 75 -20 13 -44 11
-58 -5z m55 -31 c0 -25 -4 -30 -25 -30 -16 0 -26 6 -28 18 -6 30 6 49 30 45
18 -2 23 -9 23 -33z"/>
<path d="M3161 3971 l2 -46 6 40 c4 26 11 40 21 40 10 0 17 -14 21 -40 5 -34
6 -36 8 -10 3 68 47 74 54 8 4 -34 4 -33 3 7 l-1 45 -57 1 -58 0 1 -45z"/>
<path d="M2930 3940 c0 -5 5 -10 10 -10 6 0 10 5 10 10 0 6 -4 10 -10 10 -5 0
-10 -4 -10 -10z"/>
<path d="M1840 3589 c0 -26 -3 -29 -20 -24 -26 8 -50 -11 -50 -40 0 -29 18
-44 52 -42 28 2 28 3 28 70 0 37 -2 67 -5 67 -3 0 -5 -14 -5 -31z m-3 -73 c-4
-9 -16 -16 -27 -16 -15 0 -20 7 -20 24 0 13 6 26 13 29 18 7 41 -19 34 -37z"/>
<path d="M1141 3543 c1 -38 4 -58 6 -45 2 12 11 22 19 22 16 0 54 35 54 49 0
18 -32 41 -56 41 -23 0 -24 -2 -23 -67z m54 22 c0 -13 -8 -21 -22 -23 -19 -3
-23 1 -23 23 0 22 4 26 23 23 14 -2 22 -10 22 -23z"/>
<path d="M1240 3561 c0 -6 6 -8 14 -5 8 3 17 1 20 -5 4 -6 -5 -13 -19 -17 -19
-5 -25 -12 -23 -28 2 -16 11 -21 36 -23 33 -1 33 -1 30 40 -3 37 -6 42 -30 45
-16 2 -28 -1 -28 -7z m40 -46 c0 -8 -7 -15 -15 -15 -16 0 -20 12 -8 23 11 12
23 8 23 -8z"/>
<path d="M1323 3554 c-4 -11 2 -23 17 -34 15 -11 19 -19 11 -24 -6 -4 -15 -4
-21 -1 -5 3 -10 1 -10 -4 0 -13 30 -14 49 -2 18 11 7 41 -15 41 -8 0 -14 6
-11 13 2 6 10 11 16 10 6 -2 11 2 11 7 0 17 -40 11 -47 -6z"/>
<path d="M1403 3554 c-4 -11 2 -23 17 -34 25 -19 14 -35 -16 -23 -12 4 -15 3
-10 -5 11 -18 46 -15 53 4 4 11 -2 23 -17 34 -15 11 -19 19 -11 24 6 4 16 4
21 1 6 -3 10 -1 10 4 0 17 -40 13 -47 -5z"/>
<path d="M1471 3559 c-1 -22 19 -79 29 -79 4 0 12 15 17 33 10 33 13 31 29
-20 7 -25 21 -13 33 28 12 40 8 71 -5 33 -15 -48 -17 -49 -27 -16 -5 17 -13
32 -17 32 -4 0 -12 -15 -17 -32 l-10 -33 -16 35 c-8 19 -16 28 -16 19z"/>
<path d="M1612 3558 c-17 -17 -15 -53 3 -68 20 -17 62 -5 70 20 14 44 -41 80
-73 48z m58 -33 c0 -13 -6 -25 -12 -28 -22 -7 -38 4 -38 28 0 13 6 25 13 28
21 7 37 -4 37 -28z"/>
<path d="M1710 3524 c0 -24 5 -44 10 -44 6 0 10 14 10 30 0 18 6 33 15 36 23
9 18 22 -10 22 -23 0 -25 -4 -25 -44z"/>
<path d="M1640 3240 c0 -15 5 -20 18 -18 9 2 17 10 17 18 0 8 -8 16 -17 18
-13 2 -18 -3 -18 -18z"/>
<path d="M1710 3240 c0 -15 5 -20 18 -18 9 2 17 10 17 18 0 8 -8 16 -17 18
-13 2 -18 -3 -18 -18z"/>
<path d="M1784 3249 c-10 -17 13 -36 27 -22 12 12 4 33 -11 33 -5 0 -12 -5
-16 -11z"/>
<path d="M1854 3249 c-10 -17 13 -36 27 -22 12 12 4 33 -11 33 -5 0 -12 -5
-16 -11z"/>
<path d="M1925 3250 c-8 -14 3 -30 21 -30 8 0 14 9 14 20 0 21 -24 28 -35 10z"/>
<path d="M1995 3250 c-8 -14 3 -30 21 -30 8 0 14 9 14 20 0 21 -24 28 -35 10z"/>
<path d="M2065 3250 c-4 -7 -3 -16 3 -22 14 -14 45 -2 40 15 -6 16 -34 21 -43
7z"/>
<path d="M2135 3250 c-4 -7 -3 -16 3 -22 14 -14 45 -2 40 15 -6 16 -34 21 -43
7z"/>
<path d="M1120 2555 l0 -275 2400 0 2400 0 0 275 0 275 -2400 0 -2400 0 0
-275z m2265 55 c3 -6 -1 -13 -10 -16 -19 -8 -30 0 -20 15 8 14 22 14 30 1z
m303 -8 c2 -7 -6 -12 -17 -12 -21 0 -27 11 -14 24 9 9 26 2 31 -12z m-348 -7
c0 -11 -7 -14 -25 -9 -19 5 -25 2 -25 -10 0 -9 5 -16 10 -16 6 0 19 -9 30 -20
l20 -20 0 25 c0 16 6 25 15 25 11 0 15 -12 15 -45 0 -33 -4 -45 -15 -45 -8 0
-15 5 -15 12 0 9 -3 9 -12 0 -19 -19 -88 -16 -88 4 0 12 7 14 30 9 17 -4 30
-3 30 2 0 5 -13 19 -30 31 -32 24 -37 41 -18 60 18 18 78 16 78 -3z m150 -78
c0 -29 -5 -58 -12 -65 -14 -14 -78 -16 -78 -2 0 6 11 10 25 10 14 0 25 5 25
10 0 6 -11 10 -24 10 -24 0 -36 16 -36 49 0 27 21 41 62 41 l38 0 0 -53z m98
41 c7 -7 12 -27 12 -45 0 -26 -4 -33 -20 -33 -16 0 -20 7 -20 35 0 19 -4 35
-10 35 -5 0 -10 -16 -10 -35 0 -28 -4 -35 -20 -35 -17 0 -20 7 -20 45 l0 45
38 0 c21 0 43 -5 50 -12z m102 -33 c0 -38 -3 -45 -20 -45 -17 0 -20 7 -20 45
0 38 3 45 20 45 17 0 20 -7 20 -45z m98 -2 c2 -33 0 -43 -12 -43 -9 0 -16 12
-18 33 -2 17 -7 32 -13 32 -5 0 -11 -15 -13 -32 -2 -21 -9 -33 -18 -33 -10 0
-14 13 -14 46 l0 45 43 -3 c42 -3 42 -3 45 -45z"/>
<path d="M3426 2533 c-9 -22 10 -41 25 -26 13 13 5 43 -10 43 -5 0 -12 -8 -15
-17z"/>
</g>
</svg>
